<ttFont>
    <TTGlyph name=".notdef" xMin="73" yMin="-220" xMax="639" yMax="1030">
      <contour>
        <pt x="73" y="1030" on="1"/>
        <pt x="639" y="1030" on="1"/>
        <pt x="639" y="-220" on="1"/>
        <pt x="73" y="-220" on="1"/>
      </contour>
      <contour>
        <pt x="515" y="-104" on="1"/>
        <pt x="515" y="915" on="1"/>
        <pt x="197" y="915" on="1"/>
        <pt x="197" y="-104" on="1"/>
      </contour>
    </TTGlyph>
    <TTGlyph name="A" xMin="0" yMin="0" xMax="651" yMax="740">
      <contour>
        <pt x="0" y="7" on="1"/>
        <pt x="210" y="740" on="1"/>
        <pt x="441" y="740" on="1"/>
        <pt x="651" y="7" on="1"/>
        <pt x="651" y="0" on="1"/>
        <pt x="504" y="0" on="1"/>
        <pt x="451" y="184" on="1"/>
        <pt x="199" y="184" on="1"/>
        <pt x="147" y="0" on="1"/>
        <pt x="0" y="0" on="1"/>
      </contour>
      <contour>
        <pt x="419" y="307" on="1"/>
        <pt x="363" y="505" on="1"/>
        <pt x="331" y="626" on="1"/>
        <pt x="319" y="626" on="1"/>
        <pt x="287" y="505" on="1"/>
        <pt x="231" y="307" on="1"/>
      </contour>
    </TTGlyph>
    <TTGlyph name="A.sc" xMin="3" yMin="0" xMax="596" yMax="577">
      <contour>
        <pt x="3" y="6" on="1"/>
        <pt x="190" y="577" on="1"/>
        <pt x="409" y="577" on="1"/>
        <pt x="596" y="6" on="1"/>
        <pt x="596" y="0" on="1"/>
        <pt x="456" y="0" on="1"/>
        <pt x="412" y="127" on="1"/>
        <pt x="186" y="127" on="1"/>
        <pt x="142" y="0" on="1"/>
        <pt x="3" y="0" on="1"/>
      </contour>
      <contour>
        <pt x="386" y="226" on="1"/>
        <pt x="333" y="385" on="1"/>
        <pt x="305" y="473" on="1"/>
        <pt x="293" y="473" on="1"/>
        <pt x="265" y="384" on="1"/>
        <pt x="211" y="226" on="1"/>
      </contour>
    </TTGlyph>
    <TTGlyph name="AE" xMin="-2" yMin="0" xMax="834" yMax="740">
      <contour>
        <pt x="-2" y="7" on="1"/>
        <pt x="245" y="740" on="1"/>
        <pt x="823" y="740" on="1"/>
        <pt x="823" y="613" on="1"/>
        <pt x="547" y="613" on="1"/>
        <pt x="558" y="435" on="1"/>
        <pt x="807" y="435" on="1"/>
        <pt x="807" y="308" on="1"/>
        <pt x="566" y="308" on="1"/>
        <pt x="577" y="127" on="1"/>
        <pt x="834" y="127" on="1"/>
        <pt x="834" y="0" on="1"/>
        <pt x="426" y="0" on="1"/>
        <pt x="418" y="181" on="1"/>
        <pt x="213" y="181" on="1"/>
        <pt x="153" y="0" on="1"/>
        <pt x="-2" y="0" on="1"/>
      </contour>
      <contour>
        <pt x="256" y="310" on="1"/>
        <pt x="413" y="310" on="1"/>
        <pt x="400" y="624" on="1"/>
        <pt x="361" y="624" on="1"/>
      </contour>
    </TTGlyph>
    <TTGlyph name="AE.sc" xMin="2" yMin="0" xMax="763" yMax="577">
      <contour>
        <pt x="2" y="6" on="1"/>
        <pt x="225" y="577" on="1"/>
        <pt x="754" y="577" on="1"/>
        <pt x="754" y="463" on="1"/>
        <pt x="507" y="463" on="1"/>
        <pt x="514" y="343" on="1"/>
        <pt x="740" y="343" on="1"/>
        <pt x="740" y="236" on="1"/>
        <pt x="525" y="236" on="1"/>
        <pt x="534" y="115" on="1"/>
        <pt x="763" y="115" on="1"/>
        <pt x="763" y="0" on="1"/>
        <pt x="390" y="0" on="1"/>
        <pt x="385" y="127" on="1"/>
        <pt x="199" y="127" on="1"/>
        <pt x="149" y="0" on="1"/>
        <pt x="2" y="0" on="1"/>
      </contour>
      <contour>
        <pt x="239" y="230" on="1"/>
        <pt x="379" y="230" on="1"/>
        <pt x="369" y="471" on="1"/>
        <pt x="334" y="471" on="1"/>
      </contour>
    </TTGlyph>
    <TTGlyph name="AEacute" xMin="-2" yMin="0" xMax="834" yMax="970">
      <contour>
        <pt x="437" y="801" on="1"/>
        <pt x="505" y="970" on="1"/>
        <pt x="660" y="970" on="1"/>
        <pt x="547" y="793" on="1"/>
      </contour>
      <contour>
        <pt x="-2" y="7" on="1"/>
        <pt x="245" y="740" on="1"/>
        <pt x="823" y="740" on="1"/>
        <pt x="823" y="613" on="1"/>
        <pt x="547" y="613" on="1"/>
        <pt x="558" y="435" on="1"/>
        <pt x="807" y="435" on="1"/>
        <pt x="807" y="308" on="1"/>
        <pt x="566" y="308" on="1"/>
        <pt x="577" y="127" on="1"/>
        <pt x="834" y="127" on="1"/>
        <pt x="834" y="0" on="1"/>
        <pt x="426" y="0" on="1"/>
        <pt x="418" y="181" on="1"/>
        <pt x="213" y="181" on="1"/>
        <pt x="153" y="0" on="1"/>
        <pt x="-2" y="0" on="1"/>
      </contour>
      <contour>
        <pt x="256" y="310" on="1"/>
        <pt x="413" y="310" on="1"/>
        <pt x="400" y="624" on="1"/>
        <pt x="361" y="624" on="1"/>
      </contour>
    </TTGlyph>
    <TTGlyph name="AEacute.sc" xMin="2" yMin="0" xMax="763" yMax="769">
      <contour>
        <pt x="2" y="6" on="1"/>
        <pt x="225" y="577" on="1"/>
        <pt x="754" y="577" on="1"/>
        <pt x="754" y="463" on="1"/>
        <pt x="507" y="463" on="1"/>
        <pt x="514" y="343" on="1"/>
        <pt x="740" y="343" on="1"/>
        <pt x="740" y="236" on="1"/>
        <pt x="525" y="236" on="1"/>
        <pt x="534" y="115" on="1"/>
        <pt x="763" y="115" on="1"/>
        <pt x="763" y="0" on="1"/>
        <pt x="390" y="0" on="1"/>
        <pt x="385" y="127" on="1"/>
        <pt x="199" y="127" on="1"/>
        <pt x="149" y="0" on="1"/>
        <pt x="2" y="0" on="1"/>
      </contour>
      <contour>
        <pt x="379" y="230" on="1"/>
        <pt x="369" y="471" on="1"/>
        <pt x="334" y="471" on="1"/>
        <pt x="239" y="230" on="1"/>
      </contour>
      <contour>
        <pt x="396" y="627" on="1"/>
        <pt x="455" y="769" on="1"/>
        <pt x="602" y="769" on="1"/>
        <pt x="499" y="620" on="1"/>
      </contour>
    </TTGlyph>
    <TTGlyph name="Aacute" xMin="0" yMin="0" xMax="651" yMax="970">
      <contour>
        <pt x="0" y="7" on="1"/>
        <pt x="210" y="740" on="1"/>
        <pt x="441" y="740" on="1"/>
        <pt x="651" y="7" on="1"/>
        <pt x="651" y="0" on="1"/>
        <pt x="504" y="0" on="1"/>
        <pt x="451" y="184" on="1"/>
        <pt x="199" y="184" on="1"/>
        <pt x="147" y="0" on="1"/>
        <pt x="0" y="0" on="1"/>
      </contour>
      <contour>
        <pt x="419" y="307" on="1"/>
        <pt x="363" y="505" on="1"/>
        <pt x="331" y="626" on="1"/>
        <pt x="319" y="626" on="1"/>
        <pt x="287" y="505" on="1"/>
        <pt x="231" y="307" on="1"/>
      </contour>
      <contour>
        <pt x="265" y="801" on="1"/>
        <pt x="333" y="970" on="1"/>
        <pt x="488" y="970" on="1"/>
        <pt x="375" y="793" on="1"/>
      </contour>
    </TTGlyph>
    <TTGlyph name="Aacute.sc" xMin="3" yMin="0" xMax="596" yMax="769">
      <contour>
        <pt x="3" y="6" on="1"/>
        <pt x="190" y="577" on="1"/>
        <pt x="409" y="577" on="1"/>
        <pt x="596" y="6" on="1"/>
        <pt x="596" y="0" on="1"/>
        <pt x="456" y="0" on="1"/>
        <pt x="412" y="127" on="1"/>
        <pt x="186" y="127" on="1"/>
        <pt x="142" y="0" on="1"/>
        <pt x="3" y="0" on="1"/>
      </contour>
      <contour>
        <pt x="386" y="228" on="1"/>
        <pt x="333" y="385" on="1"/>
        <pt x="305" y="473" on="1"/>
        <pt x="293" y="473" on="1"/>
        <pt x="265" y="384" on="1"/>
        <pt x="212" y="228" on="1"/>
      </contour>
      <contour>
        <pt x="244" y="627" on="1"/>
        <pt x="303" y="769" on="1"/>
        <pt x="450" y="769" on="1"/>
        <pt x="347" y="620" on="1"/>
      </contour>
    </TTGlyph>
    <TTGlyph name="Abreve" xMin="0" yMin="0" xMax="651" yMax="973">
      <contour>
        <pt x="0" y="7" on="1"/>
        <pt x="210" y="740" on="1"/>
        <pt x="441" y="740" on="1"/>
        <pt x="651" y="7" on="1"/>
        <pt x="651" y="0" on="1"/>
        <pt x="504" y="0" on="1"/>
        <pt x="451" y="184" on="1"/>
        <pt x="199" y="184" on="1"/>
        <pt x="147" y="0" on="1"/>
        <pt x="0" y="0" on="1"/>
      </contour>
      <contour>
        <pt x="419" y="307" on="1"/>
        <pt x="363" y="505" on="1"/>
        <pt x="331" y="626" on="1"/>
        <pt x="319" y="626" on="1"/>
        <pt x="287" y="505" on="1"/>
        <pt x="231" y="307" on="1"/>
      </contour>
      <contour>
        <pt x="327" y="801" on="1"/>
        <pt x="231" y="801" on="0"/>
        <pt x="139" y="895" on="0"/>
        <pt x="139" y="973" on="1"/>
        <pt x="243" y="973" on="1"/>
        <pt x="243" y="922" on="0"/>
        <pt x="280" y="875" on="0"/>
        <pt x="327" y="875" on="1"/>
        <pt x="372" y="875" on="0"/>
        <pt x="410" y="922" on="0"/>
        <pt x="410" y="973" on="1"/>
        <pt x="514" y="973" on="1"/>
        <pt x="514" y="895" on="0"/>
        <pt x="421" y="801" on="0"/>
      </contour>
    </TTGlyph>
    <TTGlyph name="Abreve.sc" xMin="3" yMin="0" xMax="596" yMax="765">
      <contour>
        <pt x="300" y="623" on="1"/>
        <pt x="211" y="623" on="0"/>
        <pt x="128" y="701" on="0"/>
        <pt x="128" y="765" on="1"/>
        <pt x="225" y="765" on="1"/>
        <pt x="225" y="724" on="0"/>
        <pt x="258" y="689" on="0"/>
        <pt x="300" y="689" on="1"/>
        <pt x="342" y="689" on="0"/>
        <pt x="374" y="724" on="0"/>
        <pt x="374" y="765" on="1"/>
        <pt x="472" y="765" on="1"/>
        <pt x="472" y="700" on="0"/>
        <pt x="388" y="623" on="0"/>
      </contour>
      <contour>
        <pt x="3" y="6" on="1"/>
        <pt x="190" y="577" on="1"/>
        <pt x="409" y="577" on="1"/>
        <pt x="596" y="6" on="1"/>
        <pt x="596" y="0" on="1"/>
        <pt x="456" y="0" on="1"/>
        <pt x="412" y="127" on="1"/>
        <pt x="186" y="127" on="1"/>
        <pt x="142" y="0" on="1"/>
        <pt x="3" y="0" on="1"/>
      </contour>
      <contour>
        <pt x="386" y="228" on="1"/>
        <pt x="333" y="385" on="1"/>
        <pt x="305" y="473" on="1"/>
        <pt x="293" y="473" on="1"/>
        <pt x="265" y="384" on="1"/>
        <pt x="212" y="228" on="1"/>
      </contour>
    </TTGlyph>
    <TTGlyph name="Acircumflex" xMin="0" yMin="0" xMax="651" yMax="975">
      <contour>
        <pt x="0" y="7" on="1"/>
        <pt x="210" y="740" on="1"/>
        <pt x="441" y="740" on="1"/>
        <pt x="651" y="7" on="1"/>
        <pt x="651" y="0" on="1"/>
        <pt x="504" y="0" on="1"/>
        <pt x="451" y="184" on="1"/>
        <pt x="199" y="184" on="1"/>
        <pt x="147" y="0" on="1"/>
        <pt x="0" y="0" on="1"/>
      </contour>
      <contour>
        <pt x="419" y="307" on="1"/>
        <pt x="363" y="505" on="1"/>
        <pt x="331" y="626" on="1"/>
        <pt x="319" y="626" on="1"/>
        <pt x="287" y="505" on="1"/>
        <pt x="231" y="307" on="1"/>
      </contour>
      <contour>
        <pt x="157" y="901" on="1"/>
        <pt x="327" y="975" on="1"/>
        <pt x="496" y="901" on="1"/>
        <pt x="496" y="798" on="1"/>
        <pt x="327" y="871" on="1"/>
        <pt x="157" y="798" on="1"/>
      </contour>
    </TTGlyph>
    <TTGlyph name="Acircumflex.sc" xMin="3" yMin="0" xMax="596" yMax="771">
      <contour>
        <pt x="3" y="6" on="1"/>
        <pt x="190" y="577" on="1"/>
        <pt x="409" y="577" on="1"/>
        <pt x="596" y="6" on="1"/>
        <pt x="596" y="0" on="1"/>
        <pt x="456" y="0" on="1"/>
        <pt x="412" y="127" on="1"/>
        <pt x="186" y="127" on="1"/>
        <pt x="142" y="0" on="1"/>
        <pt x="3" y="0" on="1"/>
      </contour>
      <contour>
        <pt x="386" y="228" on="1"/>
        <pt x="333" y="385" on="1"/>
        <pt x="305" y="473" on="1"/>
        <pt x="293" y="473" on="1"/>
        <pt x="265" y="384" on="1"/>
        <pt x="212" y="228" on="1"/>
      </contour>
      <contour>
        <pt x="145" y="713" on="1"/>
        <pt x="301" y="771" on="1"/>
        <pt x="457" y="713" on="1"/>
        <pt x="457" y="618" on="1"/>
        <pt x="301" y="676" on="1"/>
        <pt x="145" y="618" on="1"/>
      </contour>
    </TTGlyph>
    <TTGlyph name="Adblgrave" xMin="0" yMin="0" xMax="651" yMax="969">
      <contour>
        <pt x="0" y="7" on="1"/>
        <pt x="210" y="740" on="1"/>
        <pt x="441" y="740" on="1"/>
        <pt x="651" y="7" on="1"/>
        <pt x="651" y="0" on="1"/>
        <pt x="504" y="0" on="1"/>
        <pt x="451" y="184" on="1"/>
        <pt x="199" y="184" on="1"/>
        <pt x="147" y="0" on="1"/>
        <pt x="0" y="0" on="1"/>
      </contour>
      <contour>
        <pt x="419" y="307" on="1"/>
        <pt x="363" y="505" on="1"/>
        <pt x="331" y="626" on="1"/>
        <pt x="319" y="626" on="1"/>
        <pt x="287" y="505" on="1"/>
        <pt x="231" y="307" on="1"/>
      </contour>
      <contour>
        <pt x="192" y="792" on="1"/>
        <pt x="79" y="969" on="1"/>
        <pt x="213" y="969" on="1"/>
        <pt x="281" y="803" on="1"/>
      </contour>
      <contour>
        <pt x="379" y="792" on="1"/>
        <pt x="265" y="969" on="1"/>
        <pt x="400" y="969" on="1"/>
        <pt x="468" y="803" on="1"/>
      </contour>
    </TTGlyph>
    <TTGlyph name="Adblgrave.sc" xMin="3" yMin="0" xMax="596" yMax="769">
      <contour>
        <pt x="3" y="6" on="1"/>
        <pt x="190" y="577" on="1"/>
        <pt x="409" y="577" on="1"/>
        <pt x="596" y="6" on="1"/>
        <pt x="596" y="0" on="1"/>
        <pt x="456" y="0" on="1"/>
        <pt x="412" y="127" on="1"/>
        <pt x="186" y="127" on="1"/>
        <pt x="142" y="0" on="1"/>
        <pt x="3" y="0" on="1"/>
      </contour>
      <contour>
        <pt x="386" y="228" on="1"/>
        <pt x="333" y="385" on="1"/>
        <pt x="305" y="473" on="1"/>
        <pt x="293" y="473" on="1"/>
        <pt x="265" y="384" on="1"/>
        <pt x="212" y="228" on="1"/>
      </contour>
      <contour>
        <pt x="71" y="769" on="1"/>
        <pt x="200" y="769" on="1"/>
        <pt x="259" y="628" on="1"/>
        <pt x="174" y="620" on="1"/>
      </contour>
      <contour>
        <pt x="242" y="769" on="1"/>
        <pt x="370" y="769" on="1"/>
        <pt x="430" y="628" on="1"/>
        <pt x="345" y="620" on="1"/>
      </contour>
    </TTGlyph>
    <TTGlyph name="Adieresis" xMin="0" yMin="0" xMax="651" yMax="968">
      <contour>
        <pt x="0" y="7" on="1"/>
        <pt x="210" y="740" on="1"/>
        <pt x="441" y="740" on="1"/>
        <pt x="651" y="7" on="1"/>
        <pt x="651" y="0" on="1"/>
        <pt x="504" y="0" on="1"/>
        <pt x="451" y="184" on="1"/>
        <pt x="199" y="184" on="1"/>
        <pt x="147" y="0" on="1"/>
        <pt x="0" y="0" on="1"/>
      </contour>
      <contour>
        <pt x="419" y="307" on="1"/>
        <pt x="363" y="505" on="1"/>
        <pt x="331" y="626" on="1"/>
        <pt x="319" y="626" on="1"/>
        <pt x="287" y="505" on="1"/>
        <pt x="231" y="307" on="1"/>
      </contour>
      <contour>
        <pt x="199" y="803" on="1"/>
        <pt x="154" y="803" on="0"/>
        <pt x="115" y="842" on="0"/>
        <pt x="115" y="886" on="1"/>
        <pt x="115" y="930" on="0"/>
        <pt x="154" y="968" on="0"/>
        <pt x="199" y="968" on="1"/>
        <pt x="243" y="968" on="0"/>
        <pt x="284" y="929" on="0"/>
        <pt x="284" y="886" on="1"/>
        <pt x="284" y="842" on="0"/>
        <pt x="243" y="803" on="0"/>
      </contour>
      <contour>
        <pt x="452" y="803" on="1"/>
        <pt x="407" y="803" on="0"/>
        <pt x="368" y="842" on="0"/>
        <pt x="368" y="886" on="1"/>
        <pt x="368" y="930" on="0"/>
        <pt x="407" y="968" on="0"/>
        <pt x="452" y="968" on="1"/>
        <pt x="496" y="968" on="0"/>
        <pt x="537" y="929" on="0"/>
        <pt x="537" y="886" on="1"/>
        <pt x="537" y="842" on="0"/>
        <pt x="496" y="803" on="0"/>
      </contour>
    </TTGlyph>
    <TTGlyph name="Adieresis.sc" xMin="3" yMin="0" xMax="596" yMax="775">
      <contour>
        <pt x="184" y="624" on="1"/>
        <pt x="142" y="624" on="0"/>
        <pt x="106" y="659" on="0"/>
        <pt x="106" y="699" on="1"/>
        <pt x="106" y="739" on="0"/>
        <pt x="142" y="775" on="0"/>
        <pt x="184" y="775" on="1"/>
        <pt x="226" y="775" on="0"/>
        <pt x="264" y="738" on="0"/>
        <pt x="264" y="699" on="1"/>
        <pt x="264" y="660" on="0"/>
        <pt x="226" y="624" on="0"/>
      </contour>
      <contour>
        <pt x="416" y="624" on="1"/>
        <pt x="374" y="624" on="0"/>
        <pt x="337" y="659" on="0"/>
        <pt x="337" y="699" on="1"/>
        <pt x="337" y="739" on="0"/>
        <pt x="374" y="775" on="0"/>
        <pt x="416" y="775" on="1"/>
        <pt x="495" y="775" on="0"/>
        <pt x="495" y="699" on="1"/>
        <pt x="495" y="660" on="0"/>
        <pt x="457" y="624" on="0"/>
      </contour>
      <contour>
        <pt x="3" y="6" on="1"/>
        <pt x="190" y="577" on="1"/>
        <pt x="409" y="577" on="1"/>
        <pt x="596" y="6" on="1"/>
        <pt x="596" y="0" on="1"/>
        <pt x="456" y="0" on="1"/>
        <pt x="412" y="127" on="1"/>
        <pt x="186" y="127" on="1"/>
        <pt x="142" y="0" on="1"/>
        <pt x="3" y="0" on="1"/>
      </contour>
      <contour>
        <pt x="386" y="228" on="1"/>
        <pt x="333" y="385" on="1"/>
        <pt x="305" y="473" on="1"/>
        <pt x="293" y="473" on="1"/>
        <pt x="265" y="384" on="1"/>
        <pt x="212" y="228" on="1"/>
      </contour>
    </TTGlyph>
    <TTGlyph name="Agrave" xMin="0" yMin="0" xMax="651" yMax="970">
      <contour>
        <pt x="0" y="7" on="1"/>
        <pt x="210" y="740" on="1"/>
        <pt x="441" y="740" on="1"/>
        <pt x="651" y="7" on="1"/>
        <pt x="651" y="0" on="1"/>
        <pt x="504" y="0" on="1"/>
        <pt x="451" y="184" on="1"/>
        <pt x="199" y="184" on="1"/>
        <pt x="147" y="0" on="1"/>
        <pt x="0" y="0" on="1"/>
      </contour>
      <contour>
        <pt x="419" y="307" on="1"/>
        <pt x="363" y="505" on="1"/>
        <pt x="331" y="626" on="1"/>
        <pt x="319" y="626" on="1"/>
        <pt x="287" y="505" on="1"/>
        <pt x="231" y="307" on="1"/>
      </contour>
      <contour>
        <pt x="265" y="793" on="1"/>
        <pt x="151" y="970" on="1"/>
        <pt x="307" y="970" on="1"/>
        <pt x="374" y="804" on="1"/>
      </contour>
    </TTGlyph>
    <TTGlyph name="Agrave.sc" xMin="3" yMin="0" xMax="596" yMax="769">
      <contour>
        <pt x="3" y="6" on="1"/>
        <pt x="190" y="577" on="1"/>
        <pt x="409" y="577" on="1"/>
        <pt x="596" y="6" on="1"/>
        <pt x="596" y="0" on="1"/>
        <pt x="456" y="0" on="1"/>
        <pt x="412" y="127" on="1"/>
        <pt x="186" y="127" on="1"/>
        <pt x="142" y="0" on="1"/>
        <pt x="3" y="0" on="1"/>
      </contour>
      <contour>
        <pt x="386" y="228" on="1"/>
        <pt x="333" y="385" on="1"/>
        <pt x="305" y="473" on="1"/>
        <pt x="293" y="473" on="1"/>
        <pt x="265" y="384" on="1"/>
        <pt x="212" y="228" on="1"/>
      </contour>
      <contour>
        <pt x="242" y="620" on="1"/>
        <pt x="140" y="769" on="1"/>
        <pt x="286" y="769" on="1"/>
        <pt x="346" y="628" on="1"/>
      </contour>
    </TTGlyph>
    <TTGlyph name="Ainvertedbreve" xMin="0" yMin="0" xMax="651" yMax="982">
      <contour>
        <pt x="0" y="7" on="1"/>
        <pt x="210" y="740" on="1"/>
        <pt x="441" y="740" on="1"/>
        <pt x="651" y="7" on="1"/>
        <pt x="651" y="0" on="1"/>
        <pt x="504" y="0" on="1"/>
        <pt x="451" y="184" on="1"/>
        <pt x="199" y="184" on="1"/>
        <pt x="147" y="0" on="1"/>
        <pt x="0" y="0" on="1"/>
      </contour>
      <contour>
        <pt x="419" y="307" on="1"/>
        <pt x="363" y="505" on="1"/>
        <pt x="331" y="626" on="1"/>
        <pt x="319" y="626" on="1"/>
        <pt x="287" y="505" on="1"/>
        <pt x="231" y="307" on="1"/>
      </contour>
      <contour>
        <pt x="410" y="811" on="1"/>
        <pt x="410" y="862" on="0"/>
        <pt x="372" y="908" on="0"/>
        <pt x="327" y="908" on="1"/>
        <pt x="280" y="908" on="0"/>
        <pt x="243" y="862" on="0"/>
        <pt x="243" y="811" on="1"/>
        <pt x="140" y="811" on="1"/>
        <pt x="140" y="889" on="0"/>
        <pt x="231" y="982" on="0"/>
        <pt x="327" y="982" on="1"/>
        <pt x="421" y="982" on="0"/>
        <pt x="514" y="889" on="0"/>
        <pt x="514" y="811" on="1"/>
      </contour>
    </TTGlyph>
    <TTGlyph name="Ainvertedbreve.sc" xMin="3" yMin="0" xMax="596" yMax="773">
      <contour>
        <pt x="130" y="631" on="1"/>
        <pt x="130" y="695" on="0"/>
        <pt x="212" y="773" on="0"/>
        <pt x="301" y="773" on="1"/>
        <pt x="389" y="773" on="0"/>
        <pt x="473" y="696" on="0"/>
        <pt x="473" y="631" on="1"/>
        <pt x="375" y="631" on="1"/>
        <pt x="375" y="671" on="0"/>
        <pt x="343" y="706" on="0"/>
        <pt x="301" y="706" on="1"/>
        <pt x="259" y="706" on="0"/>
        <pt x="227" y="671" on="0"/>
        <pt x="227" y="631" on="1"/>
      </contour>
      <contour>
        <pt x="3" y="6" on="1"/>
        <pt x="190" y="577" on="1"/>
        <pt x="409" y="577" on="1"/>
        <pt x="596" y="6" on="1"/>
        <pt x="596" y="0" on="1"/>
        <pt x="456" y="0" on="1"/>
        <pt x="412" y="127" on="1"/>
        <pt x="186" y="127" on="1"/>
        <pt x="142" y="0" on="1"/>
        <pt x="3" y="0" on="1"/>
      </contour>
      <contour>
        <pt x="386" y="228" on="1"/>
        <pt x="333" y="385" on="1"/>
        <pt x="305" y="473" on="1"/>
        <pt x="293" y="473" on="1"/>
        <pt x="265" y="384" on="1"/>
        <pt x="212" y="228" on="1"/>
      </contour>
    </TTGlyph>
    <TTGlyph name="Amacron" xMin="0" yMin="0" xMax="651" yMax="941">
      <contour>
        <pt x="0" y="7" on="1"/>
        <pt x="210" y="740" on="1"/>
        <pt x="441" y="740" on="1"/>
        <pt x="651" y="7" on="1"/>
        <pt x="651" y="0" on="1"/>
        <pt x="504" y="0" on="1"/>
        <pt x="451" y="184" on="1"/>
        <pt x="199" y="184" on="1"/>
        <pt x="147" y="0" on="1"/>
        <pt x="0" y="0" on="1"/>
      </contour>
      <contour>
        <pt x="419" y="307" on="1"/>
        <pt x="363" y="505" on="1"/>
        <pt x="331" y="626" on="1"/>
        <pt x="319" y="626" on="1"/>
        <pt x="287" y="505" on="1"/>
        <pt x="231" y="307" on="1"/>
      </contour>
      <contour>
        <pt x="158" y="941" on="1"/>
        <pt x="490" y="941" on="1"/>
        <pt x="490" y="839" on="1"/>
        <pt x="158" y="839" on="1"/>
      </contour>
    </TTGlyph>
    <TTGlyph name="Amacron.sc" xMin="3" yMin="0" xMax="596" yMax="748">
      <contour>
        <pt x="3" y="6" on="1"/>
        <pt x="190" y="577" on="1"/>
        <pt x="409" y="577" on="1"/>
        <pt x="596" y="6" on="1"/>
        <pt x="596" y="0" on="1"/>
        <pt x="456" y="0" on="1"/>
        <pt x="412" y="127" on="1"/>
        <pt x="186" y="127" on="1"/>
        <pt x="142" y="0" on="1"/>
        <pt x="3" y="0" on="1"/>
      </contour>
      <contour>
        <pt x="386" y="228" on="1"/>
        <pt x="333" y="385" on="1"/>
        <pt x="305" y="473" on="1"/>
        <pt x="293" y="473" on="1"/>
        <pt x="265" y="384" on="1"/>
        <pt x="212" y="228" on="1"/>
      </contour>
      <contour>
        <pt x="146" y="748" on="1"/>
        <pt x="452" y="748" on="1"/>
        <pt x="452" y="654" on="1"/>
        <pt x="146" y="654" on="1"/>
      </contour>
    </TTGlyph>
    <TTGlyph name="Aogonek" xMin="0" yMin="-220" xMax="652" yMax="740">
      <contour>
        <pt x="569" y="-220" on="1"/>
        <pt x="444" y="-220" on="0"/>
        <pt x="444" y="-124" on="1"/>
        <pt x="444" y="-89" on="0"/>
        <pt x="483" y="-30" on="0"/>
        <pt x="527" y="0" on="1"/>
        <pt x="504" y="0" on="1"/>
        <pt x="451" y="184" on="1"/>
        <pt x="199" y="184" on="1"/>
        <pt x="147" y="0" on="1"/>
        <pt x="0" y="0" on="1"/>
        <pt x="0" y="7" on="1"/>
        <pt x="210" y="740" on="1"/>
        <pt x="441" y="740" on="1"/>
        <pt x="651" y="7" on="1"/>
        <pt x="651" y="-10" on="1"/>
        <pt x="592" y="-33" on="0"/>
        <pt x="543" y="-86" on="0"/>
        <pt x="543" y="-107" on="1"/>
        <pt x="543" y="-133" on="0"/>
        <pt x="580" y="-133" on="1"/>
        <pt x="596" y="-133" on="0"/>
        <pt x="635" y="-126" on="0"/>
        <pt x="652" y="-121" on="1"/>
        <pt x="652" y="-208" on="1"/>
        <pt x="631" y="-214" on="0"/>
        <pt x="592" y="-220" on="0"/>
      </contour>
      <contour>
        <pt x="419" y="307" on="1"/>
        <pt x="363" y="505" on="1"/>
        <pt x="331" y="626" on="1"/>
        <pt x="319" y="626" on="1"/>
        <pt x="287" y="505" on="1"/>
        <pt x="231" y="307" on="1"/>
      </contour>
    </TTGlyph>
    <TTGlyph name="Aogonek.sc" xMin="3" yMin="-168" xMax="596" yMax="577">
      <contour>
        <pt x="520" y="-168" on="1"/>
        <pt x="405" y="-168" on="0"/>
        <pt x="405" y="-91" on="1"/>
        <pt x="405" y="-39" on="0"/>
        <pt x="469" y="0" on="1"/>
        <pt x="456" y="0" on="1"/>
        <pt x="411" y="127" on="1"/>
        <pt x="186" y="127" on="1"/>
        <pt x="142" y="0" on="1"/>
        <pt x="3" y="0" on="1"/>
        <pt x="3" y="6" on="1"/>
        <pt x="190" y="577" on="1"/>
        <pt x="409" y="577" on="1"/>
        <pt x="595" y="6" on="1"/>
        <pt x="595" y="-5" on="1"/>
        <pt x="566" y="-15" on="0"/>
        <pt x="528" y="-34" on="0"/>
        <pt x="506" y="-51" on="0"/>
        <pt x="498" y="-66" on="0"/>
        <pt x="498" y="-72" on="1"/>
        <pt x="498" y="-89" on="0"/>
        <pt x="529" y="-89" on="1"/>
        <pt x="544" y="-89" on="0"/>
        <pt x="582" y="-83" on="0"/>
        <pt x="596" y="-79" on="1"/>
        <pt x="596" y="-159" on="1"/>
        <pt x="557" y="-168" on="0"/>
      </contour>
      <contour>
        <pt x="385" y="228" on="1"/>
        <pt x="333" y="388" on="1"/>
        <pt x="305" y="473" on="1"/>
        <pt x="292" y="473" on="1"/>
        <pt x="265" y="387" on="1"/>
        <pt x="211" y="228" on="1"/>
      </contour>
    </TTGlyph>
    <TTGlyph name="Aring" xMin="0" yMin="0" xMax="651" yMax="983">
      <contour>
        <pt x="0" y="7" on="1"/>
        <pt x="210" y="740" on="1"/>
        <pt x="441" y="740" on="1"/>
        <pt x="651" y="7" on="1"/>
        <pt x="651" y="0" on="1"/>
        <pt x="504" y="0" on="1"/>
        <pt x="451" y="184" on="1"/>
        <pt x="199" y="184" on="1"/>
        <pt x="147" y="0" on="1"/>
        <pt x="0" y="0" on="1"/>
      </contour>
      <contour>
        <pt x="419" y="307" on="1"/>
        <pt x="363" y="505" on="1"/>
        <pt x="331" y="626" on="1"/>
        <pt x="319" y="626" on="1"/>
        <pt x="287" y="505" on="1"/>
        <pt x="231" y="307" on="1"/>
      </contour>
      <contour>
        <pt x="324" y="759" on="1"/>
        <pt x="271" y="759" on="0"/>
        <pt x="205" y="823" on="0"/>
        <pt x="205" y="871" on="1"/>
        <pt x="205" y="895" on="0"/>
        <pt x="222" y="936" on="0"/>
        <pt x="254" y="966" on="0"/>
        <pt x="298" y="983" on="0"/>
        <pt x="324" y="983" on="1"/>
        <pt x="351" y="983" on="0"/>
        <pt x="395" y="966" on="0"/>
        <pt x="426" y="936" on="0"/>
        <pt x="444" y="895" on="0"/>
        <pt x="444" y="871" on="1"/>
        <pt x="444" y="847" on="0"/>
        <pt x="426" y="806" on="0"/>
        <pt x="395" y="776" on="0"/>
        <pt x="351" y="759" on="0"/>
      </contour>
      <contour>
        <pt x="324" y="814" on="1"/>
        <pt x="356" y="814" on="0"/>
        <pt x="383" y="842" on="0"/>
        <pt x="383" y="871" on="1"/>
        <pt x="383" y="900" on="0"/>
        <pt x="356" y="928" on="0"/>
        <pt x="324" y="928" on="1"/>
        <pt x="292" y="928" on="0"/>
        <pt x="266" y="900" on="0"/>
        <pt x="266" y="871" on="1"/>
        <pt x="266" y="842" on="0"/>
        <pt x="292" y="814" on="0"/>
      </contour>
    </TTGlyph>
    <TTGlyph name="Aring.sc" xMin="3" yMin="0" xMax="596" yMax="790">
      <contour>
        <pt x="3" y="6" on="1"/>
        <pt x="190" y="577" on="1"/>
        <pt x="409" y="577" on="1"/>
        <pt x="596" y="6" on="1"/>
        <pt x="596" y="0" on="1"/>
        <pt x="456" y="0" on="1"/>
        <pt x="412" y="127" on="1"/>
        <pt x="186" y="127" on="1"/>
        <pt x="142" y="0" on="1"/>
        <pt x="3" y="0" on="1"/>
      </contour>
      <contour>
        <pt x="386" y="228" on="1"/>
        <pt x="333" y="385" on="1"/>
        <pt x="305" y="473" on="1"/>
        <pt x="293" y="473" on="1"/>
        <pt x="265" y="384" on="1"/>
        <pt x="211" y="228" on="1"/>
      </contour>
      <contour>
        <pt x="299" y="611" on="1"/>
        <pt x="251" y="611" on="0"/>
        <pt x="190" y="662" on="0"/>
        <pt x="190" y="700" on="1"/>
        <pt x="190" y="739" on="0"/>
        <pt x="251" y="790" on="0"/>
        <pt x="299" y="790" on="1"/>
        <pt x="347" y="790" on="0"/>
        <pt x="407" y="739" on="0"/>
        <pt x="407" y="700" on="1"/>
        <pt x="407" y="662" on="0"/>
        <pt x="347" y="611" on="0"/>
      </contour>
      <contour>
        <pt x="299" y="659" on="1"/>
        <pt x="327" y="659" on="0"/>
        <pt x="351" y="678" on="0"/>
        <pt x="351" y="700" on="1"/>
        <pt x="351" y="723" on="0"/>
        <pt x="327" y="743" on="0"/>
        <pt x="299" y="743" on="1"/>
        <pt x="270" y="743" on="0"/>
        <pt x="247" y="723" on="0"/>
        <pt x="247" y="700" on="1"/>
        <pt x="247" y="678" on="0"/>
        <pt x="270" y="659" on="0"/>
      </contour>
    </TTGlyph>
    <TTGlyph name="Aringacute" xMin="0" yMin="0" xMax="650" yMax="998">
      <contour>
        <pt x="0" y="7" on="1"/>
        <pt x="195" y="667" on="1"/>
        <pt x="166" y="701" on="0"/>
        <pt x="166" y="750" on="1"/>
        <pt x="166" y="804" on="0"/>
        <pt x="229" y="876" on="0"/>
        <pt x="284" y="886" on="1"/>
        <pt x="332" y="998" on="1"/>
        <pt x="488" y="998" on="1"/>
        <pt x="406" y="871" on="1"/>
        <pt x="443" y="855" on="0"/>
        <pt x="484" y="792" on="0"/>
        <pt x="484" y="750" on="1"/>
        <pt x="484" y="701" on="0"/>
        <pt x="455" y="669" on="1"/>
        <pt x="650" y="7" on="1"/>
        <pt x="650" y="0" on="1"/>
        <pt x="504" y="0" on="1"/>
        <pt x="451" y="181" on="1"/>
        <pt x="198" y="181" on="1"/>
        <pt x="147" y="0" on="1"/>
        <pt x="0" y="0" on="1"/>
      </contour>
      <contour>
        <pt x="324" y="686" on="1"/>
        <pt x="356" y="686" on="0"/>
        <pt x="395" y="721" on="0"/>
        <pt x="395" y="750" on="1"/>
        <pt x="395" y="779" on="0"/>
        <pt x="356" y="815" on="0"/>
        <pt x="324" y="815" on="1"/>
        <pt x="292" y="815" on="0"/>
        <pt x="255" y="779" on="0"/>
        <pt x="255" y="750" on="1"/>
        <pt x="255" y="721" on="0"/>
        <pt x="292" y="686" on="0"/>
      </contour>
      <contour>
        <pt x="418" y="310" on="1"/>
        <pt x="364" y="505" on="1"/>
        <pt x="338" y="604" on="1"/>
        <pt x="312" y="604" on="1"/>
        <pt x="286" y="505" on="1"/>
        <pt x="232" y="310" on="1"/>
      </contour>
    </TTGlyph>
    <TTGlyph name="Aringacute.sc" xMin="3" yMin="0" xMax="595" yMax="794">
      <contour>
        <pt x="3" y="6" on="1"/>
        <pt x="177" y="526" on="1"/>
        <pt x="152" y="554" on="0"/>
        <pt x="152" y="590" on="1"/>
        <pt x="152" y="635" on="0"/>
        <pt x="209" y="695" on="0"/>
        <pt x="260" y="703" on="1"/>
        <pt x="302" y="794" on="1"/>
        <pt x="448" y="794" on="1"/>
        <pt x="375" y="689" on="1"/>
        <pt x="408" y="675" on="0"/>
        <pt x="446" y="624" on="0"/>
        <pt x="446" y="590" on="1"/>
        <pt x="446" y="554" on="0"/>
        <pt x="421" y="527" on="1"/>
        <pt x="595" y="6" on="1"/>
        <pt x="595" y="0" on="1"/>
        <pt x="456" y="0" on="1"/>
        <pt x="411" y="127" on="1"/>
        <pt x="186" y="127" on="1"/>
        <pt x="142" y="0" on="1"/>
        <pt x="3" y="0" on="1"/>
      </contour>
      <contour>
        <pt x="298" y="541" on="1"/>
        <pt x="327" y="541" on="0"/>
        <pt x="362" y="568" on="0"/>
        <pt x="362" y="590" on="1"/>
        <pt x="362" y="613" on="0"/>
        <pt x="327" y="640" on="0"/>
        <pt x="298" y="640" on="1"/>
        <pt x="269" y="640" on="0"/>
        <pt x="235" y="613" on="0"/>
        <pt x="235" y="590" on="1"/>
        <pt x="235" y="568" on="0"/>
        <pt x="269" y="541" on="0"/>
      </contour>
      <contour>
        <pt x="386" y="228" on="1"/>
        <pt x="333" y="385" on="1"/>
        <pt x="310" y="466" on="1"/>
        <pt x="287" y="466" on="1"/>
        <pt x="265" y="384" on="1"/>
        <pt x="212" y="228" on="1"/>
      </contour>
    </TTGlyph>
    <TTGlyph name="Atilde" xMin="0" yMin="0" xMax="651" yMax="955">
      <contour>
        <pt x="0" y="7" on="1"/>
        <pt x="210" y="740" on="1"/>
        <pt x="441" y="740" on="1"/>
        <pt x="651" y="7" on="1"/>
        <pt x="651" y="0" on="1"/>
        <pt x="504" y="0" on="1"/>
        <pt x="451" y="184" on="1"/>
        <pt x="199" y="184" on="1"/>
        <pt x="147" y="0" on="1"/>
        <pt x="0" y="0" on="1"/>
      </contour>
      <contour>
        <pt x="419" y="307" on="1"/>
        <pt x="363" y="505" on="1"/>
        <pt x="331" y="626" on="1"/>
        <pt x="319" y="626" on="1"/>
        <pt x="287" y="505" on="1"/>
        <pt x="231" y="307" on="1"/>
      </contour>
      <contour>
        <pt x="134" y="844" on="1"/>
        <pt x="163" y="898" on="0"/>
        <pt x="237" y="955" on="0"/>
        <pt x="272" y="955" on="1"/>
        <pt x="293" y="955" on="0"/>
        <pt x="334" y="942" on="0"/>
        <pt x="373" y="927" on="0"/>
        <pt x="413" y="915" on="0"/>
        <pt x="434" y="915" on="1"/>
        <pt x="454" y="915" on="0"/>
        <pt x="491" y="933" on="0"/>
        <pt x="512" y="954" on="1"/>
        <pt x="536" y="929" on="1"/>
        <pt x="509" y="874" on="0"/>
        <pt x="435" y="818" on="0"/>
        <pt x="398" y="818" on="1"/>
        <pt x="377" y="818" on="0"/>
        <pt x="337" y="830" on="0"/>
        <pt x="297" y="845" on="0"/>
        <pt x="258" y="857" on="0"/>
        <pt x="237" y="857" on="1"/>
        <pt x="217" y="857" on="0"/>
        <pt x="178" y="840" on="0"/>
        <pt x="157" y="820" on="1"/>
      </contour>
    </TTGlyph>
    <TTGlyph name="Atilde.sc" xMin="3" yMin="0" xMax="596" yMax="757">
      <contour>
        <pt x="3" y="6" on="1"/>
        <pt x="190" y="577" on="1"/>
        <pt x="409" y="577" on="1"/>
        <pt x="596" y="6" on="1"/>
        <pt x="596" y="0" on="1"/>
        <pt x="456" y="0" on="1"/>
        <pt x="412" y="127" on="1"/>
        <pt x="186" y="127" on="1"/>
        <pt x="142" y="0" on="1"/>
        <pt x="3" y="0" on="1"/>
      </contour>
      <contour>
        <pt x="386" y="228" on="1"/>
        <pt x="333" y="385" on="1"/>
        <pt x="305" y="473" on="1"/>
        <pt x="293" y="473" on="1"/>
        <pt x="265" y="384" on="1"/>
        <pt x="211" y="228" on="1"/>
      </contour>
      <contour>
        <pt x="124" y="658" on="1"/>
        <pt x="150" y="708" on="0"/>
        <pt x="219" y="757" on="0"/>
        <pt x="251" y="757" on="1"/>
        <pt x="270" y="757" on="0"/>
        <pt x="307" y="748" on="0"/>
        <pt x="343" y="737" on="0"/>
        <pt x="380" y="728" on="0"/>
        <pt x="399" y="728" on="1"/>
        <pt x="417" y="728" on="0"/>
        <pt x="452" y="740" on="0"/>
        <pt x="472" y="757" on="1"/>
        <pt x="493" y="737" on="1"/>
        <pt x="467" y="686" on="0"/>
        <pt x="398" y="637" on="0"/>
        <pt x="366" y="637" on="1"/>
        <pt x="347" y="637" on="0"/>
        <pt x="310" y="646" on="0"/>
        <pt x="273" y="658" on="0"/>
        <pt x="236" y="667" on="0"/>
        <pt x="217" y="667" on="1"/>
        <pt x="198" y="667" on="0"/>
        <pt x="163" y="655" on="0"/>
        <pt x="143" y="638" on="1"/>
      </contour>
    </TTGlyph>
    <TTGlyph name="B" xMin="64" yMin="-10" xMax="597" yMax="750">
      <contour>
        <pt x="289" y="-10" on="1"/>
        <pt x="234" y="-10" on="0"/>
        <pt x="118" y="-3" on="0"/>
        <pt x="64" y="5" on="1"/>
        <pt x="64" y="735" on="1"/>
        <pt x="133" y="743" on="0"/>
        <pt x="237" y="750" on="0"/>
        <pt x="285" y="750" on="1"/>
        <pt x="437" y="750" on="0"/>
        <pt x="576" y="651" on="0"/>
        <pt x="576" y="542" on="1"/>
        <pt x="576" y="411" on="0"/>
        <pt x="461" y="382" on="1"/>
        <pt x="461" y="378" on="1"/>
        <pt x="527" y="365" on="0"/>
        <pt x="597" y="274" on="0"/>
        <pt x="597" y="201" on="1"/>
        <pt x="597" y="-10" on="0"/>
      </contour>
      <contour>
        <pt x="304" y="105" on="1"/>
        <pt x="440" y="107" on="0"/>
        <pt x="440" y="211" on="1"/>
        <pt x="440" y="269" on="0"/>
        <pt x="376" y="318" on="0"/>
        <pt x="300" y="318" on="1"/>
        <pt x="207" y="318" on="1"/>
        <pt x="207" y="111" on="1"/>
        <pt x="234" y="105" on="0"/>
      </contour>
      <contour>
        <pt x="295" y="427" on="1"/>
        <pt x="329" y="427" on="0"/>
        <pt x="377" y="438" on="0"/>
        <pt x="406" y="463" on="0"/>
        <pt x="419" y="503" on="0"/>
        <pt x="419" y="532" on="1"/>
        <pt x="419" y="586" on="0"/>
        <pt x="361" y="634" on="0"/>
        <pt x="298" y="634" on="1"/>
        <pt x="274" y="634" on="0"/>
        <pt x="230" y="631" on="0"/>
        <pt x="207" y="628" on="1"/>
        <pt x="207" y="427" on="1"/>
      </contour>
    </TTGlyph>
    <TTGlyph name="B.sc" xMin="61" yMin="-8" xMax="547" yMax="585">
      <contour>
        <pt x="269" y="-8" on="1"/>
        <pt x="218" y="-8" on="0"/>
        <pt x="112" y="-2" on="0"/>
        <pt x="61" y="4" on="1"/>
        <pt x="61" y="573" on="1"/>
        <pt x="123" y="579" on="0"/>
        <pt x="219" y="585" on="0"/>
        <pt x="264" y="585" on="1"/>
        <pt x="402" y="585" on="0"/>
        <pt x="528" y="506" on="0"/>
        <pt x="528" y="421" on="1"/>
        <pt x="528" y="322" on="0"/>
        <pt x="424" y="298" on="1"/>
        <pt x="424" y="295" on="1"/>
        <pt x="484" y="284" on="0"/>
        <pt x="547" y="216" on="0"/>
        <pt x="547" y="159" on="1"/>
        <pt x="547" y="-8" on="0"/>
      </contour>
      <contour>
        <pt x="284" y="97" on="1"/>
        <pt x="405" y="97" on="0"/>
        <pt x="405" y="170" on="1"/>
        <pt x="405" y="211" on="0"/>
        <pt x="348" y="243" on="0"/>
        <pt x="281" y="243" on="1"/>
        <pt x="197" y="243" on="1"/>
        <pt x="197" y="101" on="1"/>
        <pt x="208" y="99" on="0"/>
        <pt x="249" y="97" on="0"/>
      </contour>
      <contour>
        <pt x="276" y="338" on="1"/>
        <pt x="336" y="338" on="0"/>
        <pt x="384" y="369" on="0"/>
        <pt x="384" y="411" on="1"/>
        <pt x="384" y="448" on="0"/>
        <pt x="334" y="480" on="0"/>
        <pt x="278" y="480" on="1"/>
        <pt x="257" y="480" on="0"/>
        <pt x="217" y="478" on="0"/>
        <pt x="197" y="475" on="1"/>
        <pt x="197" y="338" on="1"/>
      </contour>
    </TTGlyph>
    <TTGlyph name="C" xMin="35" yMin="-10" xMax="506" yMax="750">
      <contour>
        <pt x="361" y="-10" on="1"/>
        <pt x="196" y="-10" on="0"/>
        <pt x="35" y="174" on="0"/>
        <pt x="35" y="369" on="1"/>
        <pt x="35" y="565" on="0"/>
        <pt x="195" y="750" on="0"/>
        <pt x="356" y="750" on="1"/>
        <pt x="422" y="750" on="0"/>
        <pt x="506" y="735" on="1"/>
        <pt x="506" y="611" on="1"/>
        <pt x="468" y="617" on="0"/>
        <pt x="405" y="623" on="0"/>
        <pt x="378" y="623" on="1"/>
        <pt x="327" y="623" on="0"/>
        <pt x="257" y="599" on="0"/>
        <pt x="213" y="541" on="0"/>
        <pt x="194" y="443" on="0"/>
        <pt x="194" y="369" on="1"/>
        <pt x="194" y="296" on="0"/>
        <pt x="213" y="199" on="0"/>
        <pt x="257" y="141" on="0"/>
        <pt x="326" y="117" on="0"/>
        <pt x="376" y="117" on="1"/>
        <pt x="405" y="117" on="0"/>
        <pt x="478" y="125" on="0"/>
        <pt x="506" y="131" on="1"/>
        <pt x="506" y="9" on="1"/>
        <pt x="480" y="1" on="0"/>
        <pt x="402" y="-10" on="0"/>
      </contour>
    </TTGlyph>
    <TTGlyph name="C.sc" xMin="34" yMin="-8" xMax="461" yMax="586">
      <contour>
        <pt x="329" y="-8" on="1"/>
        <pt x="180" y="-8" on="0"/>
        <pt x="34" y="136" on="0"/>
        <pt x="34" y="288" on="1"/>
        <pt x="34" y="440" on="0"/>
        <pt x="178" y="586" on="0"/>
        <pt x="324" y="586" on="1"/>
        <pt x="356" y="586" on="0"/>
        <pt x="423" y="579" on="0"/>
        <pt x="461" y="573" on="1"/>
        <pt x="461" y="458" on="1"/>
        <pt x="427" y="463" on="0"/>
        <pt x="371" y="466" on="0"/>
        <pt x="344" y="466" on="1"/>
        <pt x="299" y="466" on="0"/>
        <pt x="238" y="451" on="0"/>
        <pt x="201" y="411" on="0"/>
        <pt x="185" y="342" on="0"/>
        <pt x="185" y="288" on="1"/>
        <pt x="185" y="235" on="0"/>
        <pt x="201" y="166" on="0"/>
        <pt x="238" y="126" on="0"/>
        <pt x="298" y="111" on="0"/>
        <pt x="343" y="111" on="1"/>
        <pt x="370" y="111" on="0"/>
        <pt x="436" y="117" on="0"/>
        <pt x="461" y="122" on="1"/>
        <pt x="461" y="8" on="1"/>
        <pt x="437" y="1" on="0"/>
        <pt x="367" y="-8" on="0"/>
      </contour>
    </TTGlyph>
    <TTGlyph name="Cacute" xMin="35" yMin="-10" xMax="506" yMax="970">
      <contour>
        <pt x="361" y="-10" on="1"/>
        <pt x="196" y="-10" on="0"/>
        <pt x="35" y="174" on="0"/>
        <pt x="35" y="369" on="1"/>
        <pt x="35" y="565" on="0"/>
        <pt x="195" y="750" on="0"/>
        <pt x="356" y="750" on="1"/>
        <pt x="422" y="750" on="0"/>
        <pt x="506" y="735" on="1"/>
        <pt x="506" y="611" on="1"/>
        <pt x="468" y="617" on="0"/>
        <pt x="405" y="623" on="0"/>
        <pt x="378" y="623" on="1"/>
        <pt x="327" y="623" on="0"/>
        <pt x="257" y="599" on="0"/>
        <pt x="213" y="541" on="0"/>
        <pt x="194" y="443" on="0"/>
        <pt x="194" y="369" on="1"/>
        <pt x="194" y="296" on="0"/>
        <pt x="213" y="199" on="0"/>
        <pt x="257" y="141" on="0"/>
        <pt x="326" y="117" on="0"/>
        <pt x="376" y="117" on="1"/>
        <pt x="405" y="117" on="0"/>
        <pt x="478" y="125" on="0"/>
        <pt x="506" y="131" on="1"/>
        <pt x="506" y="9" on="1"/>
        <pt x="480" y="1" on="0"/>
        <pt x="402" y="-10" on="0"/>
      </contour>
      <contour>
        <pt x="246" y="801" on="1"/>
        <pt x="314" y="970" on="1"/>
        <pt x="469" y="970" on="1"/>
        <pt x="356" y="793" on="1"/>
      </contour>
    </TTGlyph>
    <TTGlyph name="Cacute.sc" xMin="34" yMin="-8" xMax="460" yMax="769">
      <contour>
        <pt x="329" y="-8" on="1"/>
        <pt x="180" y="-8" on="0"/>
        <pt x="34" y="136" on="0"/>
        <pt x="34" y="288" on="1"/>
        <pt x="34" y="441" on="0"/>
        <pt x="178" y="586" on="0"/>
        <pt x="324" y="586" on="1"/>
        <pt x="353" y="586" on="0"/>
        <pt x="421" y="579" on="0"/>
        <pt x="460" y="573" on="1"/>
        <pt x="460" y="458" on="1"/>
        <pt x="423" y="463" on="0"/>
        <pt x="368" y="466" on="0"/>
        <pt x="344" y="466" on="1"/>
        <pt x="299" y="466" on="0"/>
        <pt x="239" y="451" on="0"/>
        <pt x="201" y="411" on="0"/>
        <pt x="185" y="342" on="0"/>
        <pt x="185" y="288" on="1"/>
        <pt x="185" y="234" on="0"/>
        <pt x="201" y="166" on="0"/>
        <pt x="238" y="126" on="0"/>
        <pt x="298" y="111" on="0"/>
        <pt x="342" y="111" on="1"/>
        <pt x="370" y="111" on="0"/>
        <pt x="435" y="117" on="0"/>
        <pt x="460" y="122" on="1"/>
        <pt x="460" y="8" on="1"/>
        <pt x="436" y="1" on="0"/>
        <pt x="365" y="-8" on="0"/>
      </contour>
      <contour>
        <pt x="222" y="627" on="1"/>
        <pt x="282" y="769" on="1"/>
        <pt x="428" y="769" on="1"/>
        <pt x="325" y="620" on="1"/>
      </contour>
    </TTGlyph>
    <TTGlyph name="Ccaron" xMin="35" yMin="-10" xMax="506" yMax="970">
      <contour>
        <pt x="361" y="-10" on="1"/>
        <pt x="196" y="-10" on="0"/>
        <pt x="35" y="174" on="0"/>
        <pt x="35" y="369" on="1"/>
        <pt x="35" y="565" on="0"/>
        <pt x="195" y="750" on="0"/>
        <pt x="356" y="750" on="1"/>
        <pt x="422" y="750" on="0"/>
        <pt x="506" y="735" on="1"/>
        <pt x="506" y="611" on="1"/>
        <pt x="468" y="617" on="0"/>
        <pt x="405" y="623" on="0"/>
        <pt x="378" y="623" on="1"/>
        <pt x="327" y="623" on="0"/>
        <pt x="257" y="599" on="0"/>
        <pt x="213" y="541" on="0"/>
        <pt x="194" y="443" on="0"/>
        <pt x="194" y="369" on="1"/>
        <pt x="194" y="296" on="0"/>
        <pt x="213" y="199" on="0"/>
        <pt x="257" y="141" on="0"/>
        <pt x="326" y="117" on="0"/>
        <pt x="376" y="117" on="1"/>
        <pt x="405" y="117" on="0"/>
        <pt x="478" y="125" on="0"/>
        <pt x="506" y="131" on="1"/>
        <pt x="506" y="9" on="1"/>
        <pt x="480" y="1" on="0"/>
        <pt x="402" y="-10" on="0"/>
      </contour>
      <contour>
        <pt x="144" y="970" on="1"/>
        <pt x="314" y="897" on="1"/>
        <pt x="484" y="970" on="1"/>
        <pt x="484" y="866" on="1"/>
        <pt x="314" y="793" on="1"/>
        <pt x="144" y="866" on="1"/>
      </contour>
    </TTGlyph>
    <TTGlyph name="Ccaron.sc" xMin="34" yMin="-8" xMax="460" yMax="769">
      <contour>
        <pt x="329" y="-8" on="1"/>
        <pt x="180" y="-8" on="0"/>
        <pt x="34" y="136" on="0"/>
        <pt x="34" y="288" on="1"/>
        <pt x="34" y="441" on="0"/>
        <pt x="178" y="586" on="0"/>
        <pt x="324" y="586" on="1"/>
        <pt x="353" y="586" on="0"/>
        <pt x="421" y="579" on="0"/>
        <pt x="460" y="573" on="1"/>
        <pt x="460" y="458" on="1"/>
        <pt x="423" y="463" on="0"/>
        <pt x="368" y="466" on="0"/>
        <pt x="344" y="466" on="1"/>
        <pt x="299" y="466" on="0"/>
        <pt x="239" y="451" on="0"/>
        <pt x="201" y="411" on="0"/>
        <pt x="185" y="342" on="0"/>
        <pt x="185" y="288" on="1"/>
        <pt x="185" y="234" on="0"/>
        <pt x="201" y="166" on="0"/>
        <pt x="238" y="126" on="0"/>
        <pt x="298" y="111" on="0"/>
        <pt x="342" y="111" on="1"/>
        <pt x="370" y="111" on="0"/>
        <pt x="435" y="117" on="0"/>
        <pt x="460" y="122" on="1"/>
        <pt x="460" y="8" on="1"/>
        <pt x="436" y="1" on="0"/>
        <pt x="365" y="-8" on="0"/>
      </contour>
      <contour>
        <pt x="129" y="769" on="1"/>
        <pt x="285" y="712" on="1"/>
        <pt x="441" y="769" on="1"/>
        <pt x="441" y="675" on="1"/>
        <pt x="285" y="617" on="1"/>
        <pt x="129" y="675" on="1"/>
      </contour>
    </TTGlyph>
    <TTGlyph name="Ccedilla" xMin="35" yMin="-220" xMax="506" yMax="750">
      <contour>
        <pt x="289" y="-220" on="1"/>
        <pt x="271" y="-220" on="0"/>
        <pt x="226" y="-214" on="0"/>
        <pt x="201" y="-208" on="1"/>
        <pt x="201" y="-118" on="1"/>
        <pt x="219" y="-123" on="0"/>
        <pt x="255" y="-127" on="0"/>
        <pt x="266" y="-127" on="1"/>
        <pt x="310" y="-127" on="0"/>
        <pt x="310" y="-89" on="1"/>
        <pt x="310" y="-56" on="0"/>
        <pt x="277" y="-3" on="1"/>
        <pt x="154" y="19" on="0"/>
        <pt x="35" y="200" on="0"/>
        <pt x="35" y="369" on="1"/>
        <pt x="35" y="565" on="0"/>
        <pt x="195" y="750" on="0"/>
        <pt x="356" y="750" on="1"/>
        <pt x="422" y="750" on="0"/>
        <pt x="506" y="735" on="1"/>
        <pt x="506" y="611" on="1"/>
        <pt x="468" y="617" on="0"/>
        <pt x="405" y="623" on="0"/>
        <pt x="378" y="623" on="1"/>
        <pt x="327" y="623" on="0"/>
        <pt x="257" y="599" on="0"/>
        <pt x="213" y="541" on="0"/>
        <pt x="194" y="443" on="0"/>
        <pt x="194" y="369" on="1"/>
        <pt x="194" y="296" on="0"/>
        <pt x="213" y="199" on="0"/>
        <pt x="257" y="141" on="0"/>
        <pt x="326" y="117" on="0"/>
        <pt x="376" y="117" on="1"/>
        <pt x="405" y="117" on="0"/>
        <pt x="478" y="125" on="0"/>
        <pt x="506" y="131" on="1"/>
        <pt x="506" y="9" on="1"/>
        <pt x="482" y="1" on="0"/>
        <pt x="414" y="-8" on="0"/>
        <pt x="377" y="-10" on="1"/>
        <pt x="395" y="-39" on="0"/>
        <pt x="410" y="-86" on="0"/>
        <pt x="410" y="-112" on="1"/>
        <pt x="410" y="-163" on="0"/>
        <pt x="347" y="-220" on="0"/>
      </contour>
    </TTGlyph>
    <TTGlyph name="Ccedilla.sc" xMin="34" yMin="-172" xMax="461" yMax="586">
      <contour>
        <pt x="266" y="-172" on="1"/>
        <pt x="250" y="-172" on="0"/>
        <pt x="208" y="-167" on="0"/>
        <pt x="185" y="-162" on="1"/>
        <pt x="185" y="-81" on="1"/>
        <pt x="202" y="-84" on="0"/>
        <pt x="236" y="-87" on="0"/>
        <pt x="246" y="-87" on="1"/>
        <pt x="266" y="-87" on="0"/>
        <pt x="282" y="-74" on="0"/>
        <pt x="282" y="-65" on="1"/>
        <pt x="282" y="-54" on="0"/>
        <pt x="268" y="-22" on="0"/>
        <pt x="256" y="-2" on="1"/>
        <pt x="144" y="14" on="0"/>
        <pt x="34" y="156" on="0"/>
        <pt x="34" y="288" on="1"/>
        <pt x="34" y="441" on="0"/>
        <pt x="178" y="586" on="0"/>
        <pt x="324" y="586" on="1"/>
        <pt x="353" y="586" on="0"/>
        <pt x="421" y="579" on="0"/>
        <pt x="461" y="573" on="1"/>
        <pt x="461" y="458" on="1"/>
        <pt x="423" y="463" on="0"/>
        <pt x="368" y="466" on="0"/>
        <pt x="344" y="466" on="1"/>
        <pt x="299" y="466" on="0"/>
        <pt x="239" y="451" on="0"/>
        <pt x="201" y="411" on="0"/>
        <pt x="185" y="342" on="0"/>
        <pt x="185" y="288" on="1"/>
        <pt x="185" y="234" on="0"/>
        <pt x="201" y="166" on="0"/>
        <pt x="238" y="126" on="0"/>
        <pt x="299" y="111" on="0"/>
        <pt x="343" y="111" on="1"/>
        <pt x="370" y="111" on="0"/>
        <pt x="436" y="117" on="0"/>
        <pt x="461" y="122" on="1"/>
        <pt x="461" y="8" on="1"/>
        <pt x="439" y="2" on="0"/>
        <pt x="379" y="-7" on="0"/>
        <pt x="348" y="-8" on="1"/>
        <pt x="362" y="-30" on="0"/>
        <pt x="375" y="-67" on="0"/>
        <pt x="375" y="-87" on="1"/>
        <pt x="375" y="-126" on="0"/>
        <pt x="319" y="-172" on="0"/>
      </contour>
    </TTGlyph>
    <TTGlyph name="Ccircumflex" xMin="35" yMin="-10" xMax="506" yMax="975">
      <contour>
        <pt x="361" y="-10" on="1"/>
        <pt x="196" y="-10" on="0"/>
        <pt x="35" y="174" on="0"/>
        <pt x="35" y="369" on="1"/>
        <pt x="35" y="565" on="0"/>
        <pt x="195" y="750" on="0"/>
        <pt x="356" y="750" on="1"/>
        <pt x="422" y="750" on="0"/>
        <pt x="506" y="735" on="1"/>
        <pt x="506" y="611" on="1"/>
        <pt x="468" y="617" on="0"/>
        <pt x="405" y="623" on="0"/>
        <pt x="378" y="623" on="1"/>
        <pt x="327" y="623" on="0"/>
        <pt x="257" y="599" on="0"/>
        <pt x="213" y="541" on="0"/>
        <pt x="194" y="443" on="0"/>
        <pt x="194" y="369" on="1"/>
        <pt x="194" y="296" on="0"/>
        <pt x="213" y="199" on="0"/>
        <pt x="257" y="141" on="0"/>
        <pt x="326" y="117" on="0"/>
        <pt x="376" y="117" on="1"/>
        <pt x="405" y="117" on="0"/>
        <pt x="478" y="125" on="0"/>
        <pt x="506" y="131" on="1"/>
        <pt x="506" y="9" on="1"/>
        <pt x="480" y="1" on="0"/>
        <pt x="402" y="-10" on="0"/>
      </contour>
      <contour>
        <pt x="138" y="901" on="1"/>
        <pt x="308" y="975" on="1"/>
        <pt x="477" y="901" on="1"/>
        <pt x="477" y="798" on="1"/>
        <pt x="308" y="871" on="1"/>
        <pt x="138" y="798" on="1"/>
      </contour>
    </TTGlyph>
    <TTGlyph name="Ccircumflex.sc" xMin="34" yMin="-8" xMax="460" yMax="771">
      <contour>
        <pt x="329" y="-8" on="1"/>
        <pt x="180" y="-8" on="0"/>
        <pt x="34" y="136" on="0"/>
        <pt x="34" y="288" on="1"/>
        <pt x="34" y="441" on="0"/>
        <pt x="178" y="586" on="0"/>
        <pt x="324" y="586" on="1"/>
        <pt x="353" y="586" on="0"/>
        <pt x="421" y="579" on="0"/>
        <pt x="460" y="573" on="1"/>
        <pt x="460" y="458" on="1"/>
        <pt x="423" y="463" on="0"/>
        <pt x="368" y="466" on="0"/>
        <pt x="344" y="466" on="1"/>
        <pt x="299" y="466" on="0"/>
        <pt x="239" y="451" on="0"/>
        <pt x="201" y="411" on="0"/>
        <pt x="185" y="342" on="0"/>
        <pt x="185" y="288" on="1"/>
        <pt x="185" y="234" on="0"/>
        <pt x="201" y="166" on="0"/>
        <pt x="238" y="126" on="0"/>
        <pt x="298" y="111" on="0"/>
        <pt x="342" y="111" on="1"/>
        <pt x="370" y="111" on="0"/>
        <pt x="435" y="117" on="0"/>
        <pt x="460" y="122" on="1"/>
        <pt x="460" y="8" on="1"/>
        <pt x="436" y="1" on="0"/>
        <pt x="365" y="-8" on="0"/>
      </contour>
      <contour>
        <pt x="123" y="713" on="1"/>
        <pt x="279" y="771" on="1"/>
        <pt x="435" y="713" on="1"/>
        <pt x="435" y="618" on="1"/>
        <pt x="279" y="676" on="1"/>
        <pt x="123" y="618" on="1"/>
      </contour>
    </TTGlyph>
    <TTGlyph name="Cdotaccent" xMin="35" yMin="-10" xMax="506" yMax="964">
      <contour>
        <pt x="312" y="800" on="1"/>
        <pt x="267" y="800" on="0"/>
        <pt x="228" y="838" on="0"/>
        <pt x="228" y="882" on="1"/>
        <pt x="228" y="926" on="0"/>
        <pt x="267" y="964" on="0"/>
        <pt x="312" y="964" on="1"/>
        <pt x="356" y="964" on="0"/>
        <pt x="397" y="925" on="0"/>
        <pt x="397" y="882" on="1"/>
        <pt x="397" y="839" on="0"/>
        <pt x="356" y="800" on="0"/>
      </contour>
      <contour>
        <pt x="361" y="-10" on="1"/>
        <pt x="196" y="-10" on="0"/>
        <pt x="35" y="174" on="0"/>
        <pt x="35" y="369" on="1"/>
        <pt x="35" y="565" on="0"/>
        <pt x="195" y="750" on="0"/>
        <pt x="356" y="750" on="1"/>
        <pt x="422" y="750" on="0"/>
        <pt x="506" y="735" on="1"/>
        <pt x="506" y="611" on="1"/>
        <pt x="468" y="617" on="0"/>
        <pt x="405" y="623" on="0"/>
        <pt x="378" y="623" on="1"/>
        <pt x="327" y="623" on="0"/>
        <pt x="257" y="599" on="0"/>
        <pt x="213" y="541" on="0"/>
        <pt x="194" y="443" on="0"/>
        <pt x="194" y="369" on="1"/>
        <pt x="194" y="296" on="0"/>
        <pt x="213" y="199" on="0"/>
        <pt x="257" y="141" on="0"/>
        <pt x="326" y="117" on="0"/>
        <pt x="376" y="117" on="1"/>
        <pt x="405" y="117" on="0"/>
        <pt x="478" y="125" on="0"/>
        <pt x="506" y="131" on="1"/>
        <pt x="506" y="9" on="1"/>
        <pt x="480" y="1" on="0"/>
        <pt x="402" y="-10" on="0"/>
      </contour>
    </TTGlyph>
    <TTGlyph name="Cdotaccent.sc" xMin="34" yMin="-8" xMax="460" yMax="773">
      <contour>
        <pt x="329" y="-8" on="1"/>
        <pt x="180" y="-8" on="0"/>
        <pt x="34" y="136" on="0"/>
        <pt x="34" y="288" on="1"/>
        <pt x="34" y="441" on="0"/>
        <pt x="178" y="586" on="0"/>
        <pt x="324" y="586" on="1"/>
        <pt x="353" y="586" on="0"/>
        <pt x="421" y="579" on="0"/>
        <pt x="460" y="573" on="1"/>
        <pt x="460" y="458" on="1"/>
        <pt x="423" y="463" on="0"/>
        <pt x="368" y="466" on="0"/>
        <pt x="344" y="466" on="1"/>
        <pt x="299" y="466" on="0"/>
        <pt x="239" y="451" on="0"/>
        <pt x="201" y="411" on="0"/>
        <pt x="185" y="342" on="0"/>
        <pt x="185" y="288" on="1"/>
        <pt x="185" y="234" on="0"/>
        <pt x="201" y="166" on="0"/>
        <pt x="238" y="126" on="0"/>
        <pt x="298" y="111" on="0"/>
        <pt x="342" y="111" on="1"/>
        <pt x="370" y="111" on="0"/>
        <pt x="435" y="117" on="0"/>
        <pt x="460" y="122" on="1"/>
        <pt x="460" y="8" on="1"/>
        <pt x="436" y="1" on="0"/>
        <pt x="365" y="-8" on="0"/>
      </contour>
      <contour>
        <pt x="285" y="622" on="1"/>
        <pt x="243" y="622" on="0"/>
        <pt x="206" y="658" on="0"/>
        <pt x="206" y="699" on="1"/>
        <pt x="206" y="738" on="0"/>
        <pt x="243" y="773" on="0"/>
        <pt x="285" y="773" on="1"/>
        <pt x="327" y="773" on="0"/>
        <pt x="365" y="738" on="0"/>
        <pt x="365" y="699" on="1"/>
        <pt x="365" y="622" on="0"/>
      </contour>
    </TTGlyph>
    <TTGlyph name="D" xMin="64" yMin="-13" xMax="640" yMax="749">
      <contour>
        <pt x="247" y="-13" on="1"/>
        <pt x="161" y="-13" on="0"/>
        <pt x="64" y="-1" on="1"/>
        <pt x="64" y="738" on="1"/>
        <pt x="130" y="743" on="0"/>
        <pt x="228" y="749" on="0"/>
        <pt x="267" y="749" on="1"/>
        <pt x="367" y="749" on="0"/>
        <pt x="508" y="706" on="0"/>
        <pt x="598" y="614" on="0"/>
        <pt x="640" y="470" on="0"/>
        <pt x="640" y="369" on="1"/>
        <pt x="640" y="267" on="0"/>
        <pt x="596" y="122" on="0"/>
        <pt x="502" y="30" on="0"/>
        <pt x="353" y="-13" on="0"/>
      </contour>
      <contour>
        <pt x="301" y="112" on="1"/>
        <pt x="351" y="112" on="0"/>
        <pt x="420" y="138" on="0"/>
        <pt x="462" y="198" on="0"/>
        <pt x="481" y="297" on="0"/>
        <pt x="481" y="370" on="1"/>
        <pt x="481" y="442" on="0"/>
        <pt x="462" y="540" on="0"/>
        <pt x="418" y="600" on="0"/>
        <pt x="346" y="626" on="0"/>
        <pt x="293" y="626" on="1"/>
        <pt x="255" y="626" on="0"/>
        <pt x="216" y="620" on="1"/>
        <pt x="216" y="118" on="1"/>
        <pt x="242" y="115" on="0"/>
        <pt x="282" y="112" on="0"/>
      </contour>
    </TTGlyph>
    <TTGlyph name="D.sc" xMin="61" yMin="-9" xMax="587" yMax="584">
      <contour>
        <pt x="240" y="-9" on="1"/>
        <pt x="198" y="-9" on="0"/>
        <pt x="107" y="-5" on="0"/>
        <pt x="61" y="0" on="1"/>
        <pt x="61" y="577" on="1"/>
        <pt x="122" y="581" on="0"/>
        <pt x="213" y="584" on="0"/>
        <pt x="249" y="584" on="1"/>
        <pt x="339" y="584" on="0"/>
        <pt x="467" y="551" on="0"/>
        <pt x="549" y="479" on="0"/>
        <pt x="587" y="367" on="0"/>
        <pt x="587" y="288" on="1"/>
        <pt x="587" y="208" on="0"/>
        <pt x="548" y="95" on="0"/>
        <pt x="464" y="24" on="0"/>
        <pt x="333" y="-9" on="0"/>
      </contour>
      <contour>
        <pt x="282" y="108" on="1"/>
        <pt x="325" y="108" on="0"/>
        <pt x="385" y="124" on="0"/>
        <pt x="421" y="165" on="0"/>
        <pt x="437" y="235" on="0"/>
        <pt x="437" y="288" on="1"/>
        <pt x="437" y="340" on="0"/>
        <pt x="421" y="410" on="0"/>
        <pt x="382" y="452" on="0"/>
        <pt x="319" y="469" on="0"/>
        <pt x="273" y="469" on="1"/>
        <pt x="255" y="469" on="0"/>
        <pt x="222" y="467" on="0"/>
        <pt x="205" y="465" on="1"/>
        <pt x="205" y="112" on="1"/>
        <pt x="228" y="109" on="0"/>
        <pt x="264" y="108" on="0"/>
      </contour>
    </TTGlyph>
    <TTGlyph name="Dcaron" xMin="64" yMin="-13" xMax="640" yMax="970">
      <contour>
        <pt x="155" y="970" on="1"/>
        <pt x="325" y="897" on="1"/>
        <pt x="495" y="970" on="1"/>
        <pt x="495" y="866" on="1"/>
        <pt x="325" y="793" on="1"/>
        <pt x="155" y="866" on="1"/>
      </contour>
      <contour>
        <pt x="247" y="-13" on="1"/>
        <pt x="161" y="-13" on="0"/>
        <pt x="64" y="-1" on="1"/>
        <pt x="64" y="738" on="1"/>
        <pt x="130" y="743" on="0"/>
        <pt x="228" y="749" on="0"/>
        <pt x="267" y="749" on="1"/>
        <pt x="367" y="749" on="0"/>
        <pt x="508" y="706" on="0"/>
        <pt x="598" y="614" on="0"/>
        <pt x="640" y="470" on="0"/>
        <pt x="640" y="369" on="1"/>
        <pt x="640" y="267" on="0"/>
        <pt x="596" y="122" on="0"/>
        <pt x="502" y="30" on="0"/>
        <pt x="353" y="-13" on="0"/>
      </contour>
      <contour>
        <pt x="301" y="112" on="1"/>
        <pt x="351" y="112" on="0"/>
        <pt x="420" y="138" on="0"/>
        <pt x="462" y="198" on="0"/>
        <pt x="481" y="297" on="0"/>
        <pt x="481" y="370" on="1"/>
        <pt x="481" y="442" on="0"/>
        <pt x="462" y="540" on="0"/>
        <pt x="418" y="600" on="0"/>
        <pt x="346" y="626" on="0"/>
        <pt x="293" y="626" on="1"/>
        <pt x="255" y="626" on="0"/>
        <pt x="216" y="620" on="1"/>
        <pt x="216" y="118" on="1"/>
        <pt x="242" y="115" on="0"/>
        <pt x="282" y="112" on="0"/>
      </contour>
    </TTGlyph>
    <TTGlyph name="Dcaron.sc" xMin="61" yMin="-9" xMax="587" yMax="769">
      <contour>
        <pt x="240" y="-9" on="1"/>
        <pt x="198" y="-9" on="0"/>
        <pt x="107" y="-5" on="0"/>
        <pt x="61" y="0" on="1"/>
        <pt x="61" y="577" on="1"/>
        <pt x="122" y="581" on="0"/>
        <pt x="213" y="584" on="0"/>
        <pt x="249" y="584" on="1"/>
        <pt x="339" y="584" on="0"/>
        <pt x="467" y="551" on="0"/>
        <pt x="549" y="479" on="0"/>
        <pt x="587" y="367" on="0"/>
        <pt x="587" y="288" on="1"/>
        <pt x="587" y="208" on="0"/>
        <pt x="548" y="95" on="0"/>
        <pt x="464" y="24" on="0"/>
        <pt x="333" y="-9" on="0"/>
      </contour>
      <contour>
        <pt x="282" y="108" on="1"/>
        <pt x="325" y="108" on="0"/>
        <pt x="385" y="124" on="0"/>
        <pt x="421" y="165" on="0"/>
        <pt x="437" y="235" on="0"/>
        <pt x="437" y="288" on="1"/>
        <pt x="437" y="340" on="0"/>
        <pt x="421" y="410" on="0"/>
        <pt x="382" y="452" on="0"/>
        <pt x="319" y="469" on="0"/>
        <pt x="273" y="469" on="1"/>
        <pt x="255" y="469" on="0"/>
        <pt x="222" y="467" on="0"/>
        <pt x="205" y="465" on="1"/>
        <pt x="205" y="112" on="1"/>
        <pt x="228" y="109" on="0"/>
        <pt x="264" y="108" on="0"/>
      </contour>
      <contour>
        <pt x="145" y="675" on="1"/>
        <pt x="145" y="769" on="1"/>
        <pt x="302" y="712" on="1"/>
        <pt x="458" y="769" on="1"/>
        <pt x="458" y="675" on="1"/>
        <pt x="301" y="617" on="1"/>
      </contour>
    </TTGlyph>
    <TTGlyph name="Dcroat" xMin="0" yMin="-13" xMax="661" yMax="749">
      <contour>
        <pt x="0" y="431" on="1"/>
        <pt x="85" y="431" on="1"/>
        <pt x="85" y="738" on="1"/>
        <pt x="151" y="743" on="0"/>
        <pt x="249" y="749" on="0"/>
        <pt x="288" y="749" on="1"/>
        <pt x="388" y="749" on="0"/>
        <pt x="529" y="706" on="0"/>
        <pt x="619" y="614" on="0"/>
        <pt x="661" y="470" on="0"/>
        <pt x="661" y="369" on="1"/>
        <pt x="661" y="267" on="0"/>
        <pt x="617" y="122" on="0"/>
        <pt x="523" y="30" on="0"/>
        <pt x="374" y="-13" on="0"/>
        <pt x="268" y="-13" on="1"/>
        <pt x="182" y="-13" on="0"/>
        <pt x="85" y="-1" on="1"/>
        <pt x="85" y="313" on="1"/>
        <pt x="0" y="313" on="1"/>
      </contour>
      <contour>
        <pt x="322" y="112" on="1"/>
        <pt x="372" y="112" on="0"/>
        <pt x="441" y="138" on="0"/>
        <pt x="483" y="198" on="0"/>
        <pt x="502" y="297" on="0"/>
        <pt x="502" y="370" on="1"/>
        <pt x="502" y="442" on="0"/>
        <pt x="483" y="540" on="0"/>
        <pt x="439" y="600" on="0"/>
        <pt x="367" y="626" on="0"/>
        <pt x="314" y="626" on="1"/>
        <pt x="276" y="626" on="0"/>
        <pt x="237" y="620" on="1"/>
        <pt x="237" y="431" on="1"/>
        <pt x="346" y="431" on="1"/>
        <pt x="346" y="313" on="1"/>
        <pt x="237" y="313" on="1"/>
        <pt x="237" y="118" on="1"/>
        <pt x="263" y="115" on="0"/>
        <pt x="303" y="112" on="0"/>
      </contour>
    </TTGlyph>
    <TTGlyph name="Dcroat.sc" xMin="6" yMin="-9" xMax="608" yMax="584">
      <contour>
        <pt x="6" y="346" on="1"/>
        <pt x="81" y="346" on="1"/>
        <pt x="81" y="577" on="1"/>
        <pt x="144" y="581" on="0"/>
        <pt x="234" y="584" on="0"/>
        <pt x="270" y="584" on="1"/>
        <pt x="360" y="584" on="0"/>
        <pt x="488" y="551" on="0"/>
        <pt x="570" y="480" on="0"/>
        <pt x="608" y="367" on="0"/>
        <pt x="608" y="288" on="1"/>
        <pt x="608" y="207" on="0"/>
        <pt x="568" y="94" on="0"/>
        <pt x="482" y="23" on="0"/>
        <pt x="346" y="-9" on="0"/>
        <pt x="250" y="-9" on="1"/>
        <pt x="169" y="-9" on="0"/>
        <pt x="81" y="0" on="1"/>
        <pt x="81" y="236" on="1"/>
        <pt x="6" y="236" on="1"/>
      </contour>
      <contour>
        <pt x="303" y="108" on="1"/>
        <pt x="346" y="108" on="0"/>
        <pt x="405" y="124" on="0"/>
        <pt x="442" y="165" on="0"/>
        <pt x="458" y="235" on="0"/>
        <pt x="458" y="288" on="1"/>
        <pt x="458" y="341" on="0"/>
        <pt x="441" y="411" on="0"/>
        <pt x="403" y="452" on="0"/>
        <pt x="340" y="469" on="0"/>
        <pt x="294" y="469" on="1"/>
        <pt x="276" y="469" on="0"/>
        <pt x="244" y="467" on="0"/>
        <pt x="226" y="465" on="1"/>
        <pt x="226" y="346" on="1"/>
        <pt x="318" y="346" on="1"/>
        <pt x="318" y="236" on="1"/>
        <pt x="226" y="236" on="1"/>
        <pt x="226" y="112" on="1"/>
        <pt x="249" y="109" on="0"/>
        <pt x="286" y="108" on="0"/>
      </contour>
    </TTGlyph>
    <TTGlyph name="Ddotbelow" xMin="64" yMin="-203" xMax="640" yMax="749">
      <contour>
        <pt x="324" y="-203" on="1"/>
        <pt x="288" y="-203" on="0"/>
        <pt x="256" y="-171" on="0"/>
        <pt x="256" y="-136" on="1"/>
        <pt x="256" y="-101" on="0"/>
        <pt x="288" y="-70" on="0"/>
        <pt x="324" y="-70" on="1"/>
        <pt x="360" y="-70" on="0"/>
        <pt x="393" y="-101" on="0"/>
        <pt x="393" y="-136" on="1"/>
        <pt x="393" y="-171" on="0"/>
        <pt x="360" y="-203" on="0"/>
      </contour>
      <contour>
        <pt x="247" y="-13" on="1"/>
        <pt x="161" y="-13" on="0"/>
        <pt x="64" y="-1" on="1"/>
        <pt x="64" y="738" on="1"/>
        <pt x="130" y="743" on="0"/>
        <pt x="228" y="749" on="0"/>
        <pt x="267" y="749" on="1"/>
        <pt x="367" y="749" on="0"/>
        <pt x="508" y="706" on="0"/>
        <pt x="598" y="614" on="0"/>
        <pt x="640" y="470" on="0"/>
        <pt x="640" y="369" on="1"/>
        <pt x="640" y="267" on="0"/>
        <pt x="596" y="122" on="0"/>
        <pt x="502" y="30" on="0"/>
        <pt x="353" y="-13" on="0"/>
      </contour>
      <contour>
        <pt x="301" y="112" on="1"/>
        <pt x="351" y="112" on="0"/>
        <pt x="420" y="138" on="0"/>
        <pt x="462" y="198" on="0"/>
        <pt x="481" y="297" on="0"/>
        <pt x="481" y="370" on="1"/>
        <pt x="481" y="442" on="0"/>
        <pt x="462" y="540" on="0"/>
        <pt x="418" y="600" on="0"/>
        <pt x="346" y="626" on="0"/>
        <pt x="293" y="626" on="1"/>
        <pt x="255" y="626" on="0"/>
        <pt x="216" y="620" on="1"/>
        <pt x="216" y="118" on="1"/>
        <pt x="242" y="115" on="0"/>
        <pt x="282" y="112" on="0"/>
      </contour>
    </TTGlyph>
    <TTGlyph name="Ddotbelow.sc" xMin="61" yMin="-166" xMax="587" yMax="584">
      <contour>
        <pt x="240" y="-9" on="1"/>
        <pt x="198" y="-9" on="0"/>
        <pt x="107" y="-5" on="0"/>
        <pt x="61" y="0" on="1"/>
        <pt x="61" y="577" on="1"/>
        <pt x="122" y="581" on="0"/>
        <pt x="213" y="584" on="0"/>
        <pt x="249" y="584" on="1"/>
        <pt x="339" y="584" on="0"/>
        <pt x="467" y="551" on="0"/>
        <pt x="549" y="479" on="0"/>
        <pt x="587" y="367" on="0"/>
        <pt x="587" y="288" on="1"/>
        <pt x="587" y="208" on="0"/>
        <pt x="548" y="95" on="0"/>
        <pt x="464" y="24" on="0"/>
        <pt x="333" y="-9" on="0"/>
      </contour>
      <contour>
        <pt x="282" y="108" on="1"/>
        <pt x="325" y="108" on="0"/>
        <pt x="385" y="124" on="0"/>
        <pt x="421" y="165" on="0"/>
        <pt x="437" y="235" on="0"/>
        <pt x="437" y="288" on="1"/>
        <pt x="437" y="340" on="0"/>
        <pt x="421" y="410" on="0"/>
        <pt x="382" y="452" on="0"/>
        <pt x="319" y="469" on="0"/>
        <pt x="273" y="469" on="1"/>
        <pt x="255" y="469" on="0"/>
        <pt x="222" y="467" on="0"/>
        <pt x="205" y="465" on="1"/>
        <pt x="205" y="112" on="1"/>
        <pt x="228" y="109" on="0"/>
        <pt x="264" y="108" on="0"/>
      </contour>
      <contour>
        <pt x="300" y="-166" on="1"/>
        <pt x="267" y="-166" on="0"/>
        <pt x="237" y="-139" on="0"/>
        <pt x="237" y="-108" on="1"/>
        <pt x="237" y="-77" on="0"/>
        <pt x="267" y="-50" on="0"/>
        <pt x="300" y="-50" on="1"/>
        <pt x="334" y="-50" on="0"/>
        <pt x="364" y="-77" on="0"/>
        <pt x="364" y="-108" on="1"/>
        <pt x="364" y="-139" on="0"/>
        <pt x="334" y="-166" on="0"/>
      </contour>
    </TTGlyph>
    <TTGlyph name="Delta" xMin="19" yMin="0" xMax="711" yMax="740">
      <contour>
        <pt x="269" y="740" on="1"/>
        <pt x="461" y="740" on="1"/>
        <pt x="711" y="0" on="1"/>
        <pt x="19" y="0" on="1"/>
      </contour>
      <contour>
        <pt x="528" y="126" on="1"/>
        <pt x="365" y="609" on="1"/>
        <pt x="202" y="126" on="1"/>
      </contour>
    </TTGlyph>
    <TTGlyph name="E" xMin="64" yMin="0" xMax="543" yMax="740">
      <contour>
        <pt x="64" y="740" on="1"/>
        <pt x="534" y="740" on="1"/>
        <pt x="534" y="613" on="1"/>
        <pt x="218" y="613" on="1"/>
        <pt x="218" y="435" on="1"/>
        <pt x="501" y="435" on="1"/>
        <pt x="501" y="309" on="1"/>
        <pt x="218" y="309" on="1"/>
        <pt x="218" y="127" on="1"/>
        <pt x="543" y="127" on="1"/>
        <pt x="543" y="0" on="1"/>
        <pt x="64" y="0" on="1"/>
      </contour>
    </TTGlyph>
    <TTGlyph name="E.sc" xMin="61" yMin="0" xMax="498" yMax="577">
      <contour>
        <pt x="61" y="577" on="1"/>
        <pt x="490" y="577" on="1"/>
        <pt x="490" y="463" on="1"/>
        <pt x="207" y="463" on="1"/>
        <pt x="207" y="343" on="1"/>
        <pt x="461" y="343" on="1"/>
        <pt x="461" y="236" on="1"/>
        <pt x="207" y="236" on="1"/>
        <pt x="207" y="115" on="1"/>
        <pt x="498" y="115" on="1"/>
        <pt x="498" y="0" on="1"/>
        <pt x="61" y="0" on="1"/>
      </contour>
    </TTGlyph>
    <TTGlyph name="Eacute" xMin="64" yMin="0" xMax="543" yMax="970">
      <contour>
        <pt x="239" y="801" on="1"/>
        <pt x="307" y="970" on="1"/>
        <pt x="462" y="970" on="1"/>
        <pt x="349" y="793" on="1"/>
      </contour>
      <contour>
        <pt x="64" y="740" on="1"/>
        <pt x="534" y="740" on="1"/>
        <pt x="534" y="613" on="1"/>
        <pt x="218" y="613" on="1"/>
        <pt x="218" y="435" on="1"/>
        <pt x="501" y="435" on="1"/>
        <pt x="501" y="309" on="1"/>
        <pt x="218" y="309" on="1"/>
        <pt x="218" y="127" on="1"/>
        <pt x="543" y="127" on="1"/>
        <pt x="543" y="0" on="1"/>
        <pt x="64" y="0" on="1"/>
      </contour>
    </TTGlyph>
    <TTGlyph name="Eacute.sc" xMin="61" yMin="0" xMax="498" yMax="769">
      <contour>
        <pt x="61" y="577" on="1"/>
        <pt x="490" y="577" on="1"/>
        <pt x="490" y="463" on="1"/>
        <pt x="207" y="463" on="1"/>
        <pt x="207" y="343" on="1"/>
        <pt x="461" y="343" on="1"/>
        <pt x="461" y="236" on="1"/>
        <pt x="207" y="236" on="1"/>
        <pt x="207" y="115" on="1"/>
        <pt x="498" y="115" on="1"/>
        <pt x="498" y="0" on="1"/>
        <pt x="61" y="0" on="1"/>
      </contour>
      <contour>
        <pt x="219" y="627" on="1"/>
        <pt x="278" y="769" on="1"/>
        <pt x="425" y="769" on="1"/>
        <pt x="323" y="620" on="1"/>
      </contour>
    </TTGlyph>
    <TTGlyph name="Ebreve" xMin="64" yMin="0" xMax="543" yMax="973">
      <contour>
        <pt x="300" y="801" on="1"/>
        <pt x="204" y="801" on="0"/>
        <pt x="112" y="895" on="0"/>
        <pt x="112" y="973" on="1"/>
        <pt x="216" y="973" on="1"/>
        <pt x="216" y="922" on="0"/>
        <pt x="253" y="875" on="0"/>
        <pt x="300" y="875" on="1"/>
        <pt x="345" y="875" on="0"/>
        <pt x="383" y="922" on="0"/>
        <pt x="383" y="973" on="1"/>
        <pt x="487" y="973" on="1"/>
        <pt x="487" y="895" on="0"/>
        <pt x="394" y="801" on="0"/>
      </contour>
      <contour>
        <pt x="64" y="740" on="1"/>
        <pt x="534" y="740" on="1"/>
        <pt x="534" y="613" on="1"/>
        <pt x="218" y="613" on="1"/>
        <pt x="218" y="435" on="1"/>
        <pt x="501" y="435" on="1"/>
        <pt x="501" y="309" on="1"/>
        <pt x="218" y="309" on="1"/>
        <pt x="218" y="127" on="1"/>
        <pt x="543" y="127" on="1"/>
        <pt x="543" y="0" on="1"/>
        <pt x="64" y="0" on="1"/>
      </contour>
    </TTGlyph>
    <TTGlyph name="Ebreve.sc" xMin="61" yMin="0" xMax="498" yMax="765">
      <contour>
        <pt x="276" y="623" on="1"/>
        <pt x="187" y="623" on="0"/>
        <pt x="104" y="701" on="0"/>
        <pt x="104" y="765" on="1"/>
        <pt x="201" y="765" on="1"/>
        <pt x="201" y="724" on="0"/>
        <pt x="234" y="689" on="0"/>
        <pt x="276" y="689" on="1"/>
        <pt x="318" y="689" on="0"/>
        <pt x="351" y="724" on="0"/>
        <pt x="351" y="765" on="1"/>
        <pt x="448" y="765" on="1"/>
        <pt x="448" y="700" on="0"/>
        <pt x="364" y="623" on="0"/>
      </contour>
      <contour>
        <pt x="61" y="577" on="1"/>
        <pt x="490" y="577" on="1"/>
        <pt x="490" y="463" on="1"/>
        <pt x="207" y="463" on="1"/>
        <pt x="207" y="343" on="1"/>
        <pt x="461" y="343" on="1"/>
        <pt x="461" y="236" on="1"/>
        <pt x="207" y="236" on="1"/>
        <pt x="207" y="115" on="1"/>
        <pt x="498" y="115" on="1"/>
        <pt x="498" y="0" on="1"/>
        <pt x="61" y="0" on="1"/>
      </contour>
    </TTGlyph>
    <TTGlyph name="Ecaron" xMin="64" yMin="0" xMax="543" yMax="970">
      <contour>
        <pt x="137" y="970" on="1"/>
        <pt x="307" y="897" on="1"/>
        <pt x="477" y="970" on="1"/>
        <pt x="477" y="866" on="1"/>
        <pt x="307" y="793" on="1"/>
        <pt x="137" y="866" on="1"/>
      </contour>
      <contour>
        <pt x="64" y="740" on="1"/>
        <pt x="534" y="740" on="1"/>
        <pt x="534" y="613" on="1"/>
        <pt x="218" y="613" on="1"/>
        <pt x="218" y="435" on="1"/>
        <pt x="501" y="435" on="1"/>
        <pt x="501" y="309" on="1"/>
        <pt x="218" y="309" on="1"/>
        <pt x="218" y="127" on="1"/>
        <pt x="543" y="127" on="1"/>
        <pt x="543" y="0" on="1"/>
        <pt x="64" y="0" on="1"/>
      </contour>
    </TTGlyph>
    <TTGlyph name="Ecaron.sc" xMin="61" yMin="0" xMax="498" yMax="769">
      <contour>
        <pt x="61" y="577" on="1"/>
        <pt x="490" y="577" on="1"/>
        <pt x="490" y="463" on="1"/>
        <pt x="207" y="463" on="1"/>
        <pt x="207" y="343" on="1"/>
        <pt x="461" y="343" on="1"/>
        <pt x="461" y="236" on="1"/>
        <pt x="207" y="236" on="1"/>
        <pt x="207" y="115" on="1"/>
        <pt x="498" y="115" on="1"/>
        <pt x="498" y="0" on="1"/>
        <pt x="61" y="0" on="1"/>
      </contour>
      <contour>
        <pt x="127" y="675" on="1"/>
        <pt x="127" y="769" on="1"/>
        <pt x="283" y="712" on="1"/>
        <pt x="439" y="769" on="1"/>
        <pt x="439" y="675" on="1"/>
        <pt x="283" y="617" on="1"/>
      </contour>
    </TTGlyph>
    <TTGlyph name="Ecircumflex" xMin="64" yMin="0" xMax="543" yMax="975">
      <contour>
        <pt x="64" y="740" on="1"/>
        <pt x="534" y="740" on="1"/>
        <pt x="534" y="613" on="1"/>
        <pt x="218" y="613" on="1"/>
        <pt x="218" y="435" on="1"/>
        <pt x="501" y="435" on="1"/>
        <pt x="501" y="309" on="1"/>
        <pt x="218" y="309" on="1"/>
        <pt x="218" y="127" on="1"/>
        <pt x="543" y="127" on="1"/>
        <pt x="543" y="0" on="1"/>
        <pt x="64" y="0" on="1"/>
      </contour>
      <contour>
        <pt x="136" y="901" on="1"/>
        <pt x="306" y="975" on="1"/>
        <pt x="475" y="901" on="1"/>
        <pt x="475" y="798" on="1"/>
        <pt x="306" y="871" on="1"/>
        <pt x="136" y="798" on="1"/>
      </contour>
    </TTGlyph>
    <TTGlyph name="Ecircumflex.sc" xMin="61" yMin="0" xMax="498" yMax="771">
      <contour>
        <pt x="61" y="577" on="1"/>
        <pt x="490" y="577" on="1"/>
        <pt x="490" y="463" on="1"/>
        <pt x="207" y="463" on="1"/>
        <pt x="207" y="343" on="1"/>
        <pt x="461" y="343" on="1"/>
        <pt x="461" y="236" on="1"/>
        <pt x="207" y="236" on="1"/>
        <pt x="207" y="115" on="1"/>
        <pt x="498" y="115" on="1"/>
        <pt x="498" y="0" on="1"/>
        <pt x="61" y="0" on="1"/>
      </contour>
      <contour>
        <pt x="126" y="713" on="1"/>
        <pt x="282" y="771" on="1"/>
        <pt x="438" y="713" on="1"/>
        <pt x="438" y="618" on="1"/>
        <pt x="282" y="676" on="1"/>
        <pt x="126" y="618" on="1"/>
      </contour>
    </TTGlyph>
    <TTGlyph name="Edblgrave" xMin="55" yMin="0" xMax="543" yMax="969">
      <contour>
        <pt x="64" y="740" on="1"/>
        <pt x="534" y="740" on="1"/>
        <pt x="534" y="613" on="1"/>
        <pt x="218" y="613" on="1"/>
        <pt x="218" y="435" on="1"/>
        <pt x="501" y="435" on="1"/>
        <pt x="501" y="309" on="1"/>
        <pt x="218" y="309" on="1"/>
        <pt x="218" y="127" on="1"/>
        <pt x="543" y="127" on="1"/>
        <pt x="543" y="0" on="1"/>
        <pt x="64" y="0" on="1"/>
      </contour>
      <contour>
        <pt x="168" y="792" on="1"/>
        <pt x="55" y="969" on="1"/>
        <pt x="189" y="969" on="1"/>
        <pt x="257" y="803" on="1"/>
      </contour>
      <contour>
        <pt x="355" y="792" on="1"/>
        <pt x="241" y="969" on="1"/>
        <pt x="376" y="969" on="1"/>
        <pt x="444" y="803" on="1"/>
      </contour>
    </TTGlyph>
    <TTGlyph name="Edblgrave.sc" xMin="51" yMin="0" xMax="498" yMax="769">
      <contour>
        <pt x="61" y="577" on="1"/>
        <pt x="490" y="577" on="1"/>
        <pt x="490" y="463" on="1"/>
        <pt x="207" y="463" on="1"/>
        <pt x="207" y="343" on="1"/>
        <pt x="461" y="343" on="1"/>
        <pt x="461" y="236" on="1"/>
        <pt x="207" y="236" on="1"/>
        <pt x="207" y="115" on="1"/>
        <pt x="498" y="115" on="1"/>
        <pt x="498" y="0" on="1"/>
        <pt x="61" y="0" on="1"/>
      </contour>
      <contour>
        <pt x="51" y="769" on="1"/>
        <pt x="180" y="769" on="1"/>
        <pt x="238" y="628" on="1"/>
        <pt x="154" y="620" on="1"/>
      </contour>
      <contour>
        <pt x="222" y="769" on="1"/>
        <pt x="350" y="769" on="1"/>
        <pt x="410" y="628" on="1"/>
        <pt x="325" y="620" on="1"/>
      </contour>
    </TTGlyph>
    <TTGlyph name="Edieresis" xMin="64" yMin="0" xMax="543" yMax="968">
      <contour>
        <pt x="177" y="803" on="1"/>
        <pt x="132" y="803" on="0"/>
        <pt x="93" y="842" on="0"/>
        <pt x="93" y="886" on="1"/>
        <pt x="93" y="930" on="0"/>
        <pt x="132" y="968" on="0"/>
        <pt x="177" y="968" on="1"/>
        <pt x="221" y="968" on="0"/>
        <pt x="262" y="929" on="0"/>
        <pt x="262" y="886" on="1"/>
        <pt x="262" y="842" on="0"/>
        <pt x="221" y="803" on="0"/>
      </contour>
      <contour>
        <pt x="430" y="803" on="1"/>
        <pt x="385" y="803" on="0"/>
        <pt x="346" y="842" on="0"/>
        <pt x="346" y="886" on="1"/>
        <pt x="346" y="930" on="0"/>
        <pt x="385" y="968" on="0"/>
        <pt x="430" y="968" on="1"/>
        <pt x="474" y="968" on="0"/>
        <pt x="515" y="929" on="0"/>
        <pt x="515" y="886" on="1"/>
        <pt x="515" y="842" on="0"/>
        <pt x="474" y="803" on="0"/>
      </contour>
      <contour>
        <pt x="64" y="740" on="1"/>
        <pt x="534" y="740" on="1"/>
        <pt x="534" y="613" on="1"/>
        <pt x="218" y="613" on="1"/>
        <pt x="218" y="435" on="1"/>
        <pt x="501" y="435" on="1"/>
        <pt x="501" y="309" on="1"/>
        <pt x="218" y="309" on="1"/>
        <pt x="218" y="127" on="1"/>
        <pt x="543" y="127" on="1"/>
        <pt x="543" y="0" on="1"/>
        <pt x="64" y="0" on="1"/>
      </contour>
    </TTGlyph>
    <TTGlyph name="Edieresis.sc" xMin="61" yMin="0" xMax="498" yMax="775">
      <contour>
        <pt x="165" y="624" on="1"/>
        <pt x="123" y="624" on="0"/>
        <pt x="86" y="659" on="0"/>
        <pt x="86" y="699" on="1"/>
        <pt x="86" y="739" on="0"/>
        <pt x="123" y="775" on="0"/>
        <pt x="165" y="775" on="1"/>
        <pt x="244" y="775" on="0"/>
        <pt x="244" y="699" on="1"/>
        <pt x="244" y="660" on="0"/>
        <pt x="206" y="624" on="0"/>
      </contour>
      <contour>
        <pt x="396" y="624" on="1"/>
        <pt x="354" y="624" on="0"/>
        <pt x="317" y="659" on="0"/>
        <pt x="317" y="699" on="1"/>
        <pt x="317" y="739" on="0"/>
        <pt x="354" y="775" on="0"/>
        <pt x="396" y="775" on="1"/>
        <pt x="438" y="775" on="0"/>
        <pt x="475" y="738" on="0"/>
        <pt x="475" y="699" on="1"/>
        <pt x="475" y="660" on="0"/>
        <pt x="438" y="624" on="0"/>
      </contour>
      <contour>
        <pt x="61" y="577" on="1"/>
        <pt x="490" y="577" on="1"/>
        <pt x="490" y="463" on="1"/>
        <pt x="207" y="463" on="1"/>
        <pt x="207" y="343" on="1"/>
        <pt x="461" y="343" on="1"/>
        <pt x="461" y="236" on="1"/>
        <pt x="207" y="236" on="1"/>
        <pt x="207" y="115" on="1"/>
        <pt x="498" y="115" on="1"/>
        <pt x="498" y="0" on="1"/>
        <pt x="61" y="0" on="1"/>
      </contour>
    </TTGlyph>
    <TTGlyph name="Edotaccent" xMin="64" yMin="0" xMax="543" yMax="964">
      <contour>
        <pt x="299" y="800" on="1"/>
        <pt x="254" y="800" on="0"/>
        <pt x="215" y="838" on="0"/>
        <pt x="215" y="882" on="1"/>
        <pt x="215" y="926" on="0"/>
        <pt x="254" y="964" on="0"/>
        <pt x="299" y="964" on="1"/>
        <pt x="343" y="964" on="0"/>
        <pt x="384" y="925" on="0"/>
        <pt x="384" y="882" on="1"/>
        <pt x="384" y="839" on="0"/>
        <pt x="343" y="800" on="0"/>
      </contour>
      <contour>
        <pt x="64" y="740" on="1"/>
        <pt x="534" y="740" on="1"/>
        <pt x="534" y="613" on="1"/>
        <pt x="218" y="613" on="1"/>
        <pt x="218" y="435" on="1"/>
        <pt x="501" y="435" on="1"/>
        <pt x="501" y="309" on="1"/>
        <pt x="218" y="309" on="1"/>
        <pt x="218" y="127" on="1"/>
        <pt x="543" y="127" on="1"/>
        <pt x="543" y="0" on="1"/>
        <pt x="64" y="0" on="1"/>
      </contour>
    </TTGlyph>
    <TTGlyph name="Edotaccent.sc" xMin="61" yMin="0" xMax="498" yMax="773">
      <contour>
        <pt x="276" y="622" on="1"/>
        <pt x="234" y="622" on="0"/>
        <pt x="197" y="658" on="0"/>
        <pt x="197" y="699" on="1"/>
        <pt x="197" y="738" on="0"/>
        <pt x="234" y="773" on="0"/>
        <pt x="276" y="773" on="1"/>
        <pt x="318" y="773" on="0"/>
        <pt x="355" y="738" on="0"/>
        <pt x="355" y="699" on="1"/>
        <pt x="355" y="659" on="0"/>
        <pt x="318" y="622" on="0"/>
      </contour>
      <contour>
        <pt x="61" y="577" on="1"/>
        <pt x="490" y="577" on="1"/>
        <pt x="490" y="463" on="1"/>
        <pt x="207" y="463" on="1"/>
        <pt x="207" y="343" on="1"/>
        <pt x="461" y="343" on="1"/>
        <pt x="461" y="236" on="1"/>
        <pt x="207" y="236" on="1"/>
        <pt x="207" y="115" on="1"/>
        <pt x="498" y="115" on="1"/>
        <pt x="498" y="0" on="1"/>
        <pt x="61" y="0" on="1"/>
      </contour>
    </TTGlyph>
    <TTGlyph name="Edotbelow" xMin="64" yMin="-203" xMax="543" yMax="740">
      <contour>
        <pt x="64" y="740" on="1"/>
        <pt x="534" y="740" on="1"/>
        <pt x="534" y="613" on="1"/>
        <pt x="218" y="613" on="1"/>
        <pt x="218" y="435" on="1"/>
        <pt x="501" y="435" on="1"/>
        <pt x="501" y="309" on="1"/>
        <pt x="218" y="309" on="1"/>
        <pt x="218" y="127" on="1"/>
        <pt x="543" y="127" on="1"/>
        <pt x="543" y="0" on="1"/>
        <pt x="64" y="0" on="1"/>
      </contour>
      <contour>
        <pt x="311" y="-203" on="1"/>
        <pt x="275" y="-203" on="0"/>
        <pt x="243" y="-171" on="0"/>
        <pt x="243" y="-136" on="1"/>
        <pt x="243" y="-101" on="0"/>
        <pt x="275" y="-70" on="0"/>
        <pt x="311" y="-70" on="1"/>
        <pt x="347" y="-70" on="0"/>
        <pt x="380" y="-101" on="0"/>
        <pt x="380" y="-136" on="1"/>
        <pt x="380" y="-171" on="0"/>
        <pt x="347" y="-203" on="0"/>
      </contour>
    </TTGlyph>
    <TTGlyph name="Edotbelow.sc" xMin="61" yMin="-166" xMax="498" yMax="577">
      <contour>
        <pt x="287" y="-166" on="1"/>
        <pt x="254" y="-166" on="0"/>
        <pt x="224" y="-140" on="0"/>
        <pt x="224" y="-108" on="1"/>
        <pt x="224" y="-77" on="0"/>
        <pt x="254" y="-50" on="0"/>
        <pt x="287" y="-50" on="1"/>
        <pt x="321" y="-50" on="0"/>
        <pt x="351" y="-77" on="0"/>
        <pt x="351" y="-108" on="1"/>
        <pt x="351" y="-139" on="0"/>
        <pt x="321" y="-166" on="0"/>
      </contour>
      <contour>
        <pt x="61" y="577" on="1"/>
        <pt x="490" y="577" on="1"/>
        <pt x="490" y="463" on="1"/>
        <pt x="207" y="463" on="1"/>
        <pt x="207" y="343" on="1"/>
        <pt x="461" y="343" on="1"/>
        <pt x="461" y="236" on="1"/>
        <pt x="207" y="236" on="1"/>
        <pt x="207" y="115" on="1"/>
        <pt x="498" y="115" on="1"/>
        <pt x="498" y="0" on="1"/>
        <pt x="61" y="0" on="1"/>
      </contour>
    </TTGlyph>
    <TTGlyph name="Egrave" xMin="64" yMin="0" xMax="543" yMax="970">
      <contour>
        <pt x="250" y="793" on="1"/>
        <pt x="136" y="970" on="1"/>
        <pt x="292" y="970" on="1"/>
        <pt x="359" y="804" on="1"/>
      </contour>
      <contour>
        <pt x="64" y="740" on="1"/>
        <pt x="534" y="740" on="1"/>
        <pt x="534" y="613" on="1"/>
        <pt x="218" y="613" on="1"/>
        <pt x="218" y="435" on="1"/>
        <pt x="501" y="435" on="1"/>
        <pt x="501" y="309" on="1"/>
        <pt x="218" y="309" on="1"/>
        <pt x="218" y="127" on="1"/>
        <pt x="543" y="127" on="1"/>
        <pt x="543" y="0" on="1"/>
        <pt x="64" y="0" on="1"/>
      </contour>
    </TTGlyph>
    <TTGlyph name="Egrave.sc" xMin="61" yMin="0" xMax="498" yMax="769">
      <contour>
        <pt x="61" y="577" on="1"/>
        <pt x="490" y="577" on="1"/>
        <pt x="490" y="463" on="1"/>
        <pt x="207" y="463" on="1"/>
        <pt x="207" y="343" on="1"/>
        <pt x="461" y="343" on="1"/>
        <pt x="461" y="236" on="1"/>
        <pt x="207" y="236" on="1"/>
        <pt x="207" y="115" on="1"/>
        <pt x="498" y="115" on="1"/>
        <pt x="498" y="0" on="1"/>
        <pt x="61" y="0" on="1"/>
      </contour>
      <contour>
        <pt x="128" y="769" on="1"/>
        <pt x="275" y="769" on="1"/>
        <pt x="334" y="628" on="1"/>
        <pt x="231" y="620" on="1"/>
      </contour>
    </TTGlyph>
    <TTGlyph name="Einvertedbreve" xMin="64" yMin="0" xMax="543" yMax="982">
      <contour>
        <pt x="64" y="740" on="1"/>
        <pt x="534" y="740" on="1"/>
        <pt x="534" y="613" on="1"/>
        <pt x="218" y="613" on="1"/>
        <pt x="218" y="435" on="1"/>
        <pt x="501" y="435" on="1"/>
        <pt x="501" y="309" on="1"/>
        <pt x="218" y="309" on="1"/>
        <pt x="218" y="127" on="1"/>
        <pt x="543" y="127" on="1"/>
        <pt x="543" y="0" on="1"/>
        <pt x="64" y="0" on="1"/>
      </contour>
      <contour>
        <pt x="385" y="811" on="1"/>
        <pt x="385" y="862" on="0"/>
        <pt x="347" y="908" on="0"/>
        <pt x="302" y="908" on="1"/>
        <pt x="255" y="908" on="0"/>
        <pt x="218" y="862" on="0"/>
        <pt x="218" y="811" on="1"/>
        <pt x="115" y="811" on="1"/>
        <pt x="115" y="889" on="0"/>
        <pt x="206" y="982" on="0"/>
        <pt x="302" y="982" on="1"/>
        <pt x="396" y="982" on="0"/>
        <pt x="489" y="889" on="0"/>
        <pt x="489" y="811" on="1"/>
      </contour>
    </TTGlyph>
    <TTGlyph name="Einvertedbreve.sc" xMin="61" yMin="0" xMax="498" yMax="773">
      <contour>
        <pt x="107" y="631" on="1"/>
        <pt x="107" y="695" on="0"/>
        <pt x="189" y="773" on="0"/>
        <pt x="279" y="773" on="1"/>
        <pt x="367" y="773" on="0"/>
        <pt x="450" y="696" on="0"/>
        <pt x="450" y="631" on="1"/>
        <pt x="353" y="631" on="1"/>
        <pt x="353" y="671" on="0"/>
        <pt x="321" y="706" on="0"/>
        <pt x="279" y="706" on="1"/>
        <pt x="237" y="706" on="0"/>
        <pt x="203" y="671" on="0"/>
        <pt x="203" y="631" on="1"/>
      </contour>
      <contour>
        <pt x="61" y="577" on="1"/>
        <pt x="490" y="577" on="1"/>
        <pt x="490" y="463" on="1"/>
        <pt x="207" y="463" on="1"/>
        <pt x="207" y="343" on="1"/>
        <pt x="461" y="343" on="1"/>
        <pt x="461" y="236" on="1"/>
        <pt x="207" y="236" on="1"/>
        <pt x="207" y="115" on="1"/>
        <pt x="498" y="115" on="1"/>
        <pt x="498" y="0" on="1"/>
        <pt x="61" y="0" on="1"/>
      </contour>
    </TTGlyph>
    <TTGlyph name="Emacron" xMin="64" yMin="0" xMax="543" yMax="941">
      <contour>
        <pt x="134" y="941" on="1"/>
        <pt x="466" y="941" on="1"/>
        <pt x="466" y="839" on="1"/>
        <pt x="134" y="839" on="1"/>
      </contour>
      <contour>
        <pt x="64" y="740" on="1"/>
        <pt x="534" y="740" on="1"/>
        <pt x="534" y="613" on="1"/>
        <pt x="218" y="613" on="1"/>
        <pt x="218" y="435" on="1"/>
        <pt x="501" y="435" on="1"/>
        <pt x="501" y="309" on="1"/>
        <pt x="218" y="309" on="1"/>
        <pt x="218" y="127" on="1"/>
        <pt x="543" y="127" on="1"/>
        <pt x="543" y="0" on="1"/>
        <pt x="64" y="0" on="1"/>
      </contour>
    </TTGlyph>
    <TTGlyph name="Emacron.sc" xMin="61" yMin="0" xMax="498" yMax="748">
      <contour>
        <pt x="61" y="577" on="1"/>
        <pt x="490" y="577" on="1"/>
        <pt x="490" y="463" on="1"/>
        <pt x="207" y="463" on="1"/>
        <pt x="207" y="343" on="1"/>
        <pt x="461" y="343" on="1"/>
        <pt x="461" y="236" on="1"/>
        <pt x="207" y="236" on="1"/>
        <pt x="207" y="115" on="1"/>
        <pt x="498" y="115" on="1"/>
        <pt x="498" y="0" on="1"/>
        <pt x="61" y="0" on="1"/>
      </contour>
      <contour>
        <pt x="124" y="748" on="1"/>
        <pt x="430" y="748" on="1"/>
        <pt x="430" y="654" on="1"/>
        <pt x="124" y="654" on="1"/>
      </contour>
    </TTGlyph>
    <TTGlyph name="Eng" xMin="64" yMin="-203" xMax="657" yMax="740">
      <contour>
        <pt x="435" y="-170" on="1"/>
        <pt x="459" y="-111" on="0"/>
        <pt x="490" y="-3" on="0"/>
        <pt x="497" y="48" on="1"/>
        <pt x="257" y="403" on="1"/>
        <pt x="211" y="488" on="1"/>
        <pt x="201" y="488" on="1"/>
        <pt x="201" y="0" on="1"/>
        <pt x="64" y="0" on="1"/>
        <pt x="64" y="740" on="1"/>
        <pt x="190" y="740" on="1"/>
        <pt x="464" y="336" on="1"/>
        <pt x="510" y="253" on="1"/>
        <pt x="519" y="253" on="1"/>
        <pt x="519" y="740" on="1"/>
        <pt x="657" y="740" on="1"/>
        <pt x="657" y="109" on="1"/>
        <pt x="657" y="82" on="0"/>
        <pt x="638" y="6" on="0"/>
        <pt x="606" y="-79" on="0"/>
        <pt x="562" y="-165" on="0"/>
        <pt x="537" y="-203" on="1"/>
      </contour>
    </TTGlyph>
    <TTGlyph name="Eng.sc" xMin="62" yMin="-164" xMax="594" yMax="577">
      <contour>
        <pt x="393" y="-133" on="1"/>
        <pt x="416" y="-83" on="0"/>
        <pt x="442" y="1" on="0"/>
        <pt x="448" y="42" on="1"/>
        <pt x="243" y="278" on="1"/>
        <pt x="199" y="344" on="1"/>
        <pt x="191" y="344" on="1"/>
        <pt x="191" y="0" on="1"/>
        <pt x="62" y="0" on="1"/>
        <pt x="62" y="577" on="1"/>
        <pt x="179" y="577" on="1"/>
        <pt x="415" y="299" on="1"/>
        <pt x="457" y="234" on="1"/>
        <pt x="465" y="235" on="1"/>
        <pt x="465" y="577" on="1"/>
        <pt x="594" y="577" on="1"/>
        <pt x="594" y="97" on="1"/>
        <pt x="594" y="73" on="0"/>
        <pt x="578" y="11" on="0"/>
        <pt x="550" y="-59" on="0"/>
        <pt x="511" y="-131" on="0"/>
        <pt x="488" y="-164" on="1"/>
      </contour>
    </TTGlyph>
    <TTGlyph name="Eogonek" xMin="64" yMin="-220" xMax="544" yMax="740">
      <contour>
        <pt x="64" y="740" on="1"/>
        <pt x="534" y="740" on="1"/>
        <pt x="534" y="613" on="1"/>
        <pt x="218" y="613" on="1"/>
        <pt x="218" y="435" on="1"/>
        <pt x="501" y="435" on="1"/>
        <pt x="501" y="309" on="1"/>
        <pt x="218" y="309" on="1"/>
        <pt x="218" y="127" on="1"/>
        <pt x="543" y="127" on="1"/>
        <pt x="543" y="-10" on="1"/>
        <pt x="484" y="-33" on="0"/>
        <pt x="435" y="-86" on="0"/>
        <pt x="435" y="-107" on="1"/>
        <pt x="435" y="-133" on="0"/>
        <pt x="472" y="-133" on="1"/>
        <pt x="488" y="-133" on="0"/>
        <pt x="527" y="-126" on="0"/>
        <pt x="544" y="-121" on="1"/>
        <pt x="544" y="-208" on="1"/>
        <pt x="523" y="-214" on="0"/>
        <pt x="484" y="-220" on="0"/>
        <pt x="461" y="-220" on="1"/>
        <pt x="336" y="-220" on="0"/>
        <pt x="336" y="-124" on="1"/>
        <pt x="336" y="-89" on="0"/>
        <pt x="375" y="-30" on="0"/>
        <pt x="419" y="0" on="1"/>
        <pt x="64" y="0" on="1"/>
      </contour>
    </TTGlyph>
    <TTGlyph name="Eogonek.sc" xMin="62" yMin="-172" xMax="499" yMax="577">
      <contour>
        <pt x="423" y="-172" on="1"/>
        <pt x="307" y="-172" on="0"/>
        <pt x="307" y="-94" on="1"/>
        <pt x="307" y="-67" on="0"/>
        <pt x="341" y="-23" on="0"/>
        <pt x="377" y="0" on="1"/>
        <pt x="62" y="0" on="1"/>
        <pt x="62" y="577" on="1"/>
        <pt x="490" y="577" on="1"/>
        <pt x="490" y="463" on="1"/>
        <pt x="207" y="463" on="1"/>
        <pt x="207" y="343" on="1"/>
        <pt x="462" y="343" on="1"/>
        <pt x="462" y="236" on="1"/>
        <pt x="207" y="236" on="1"/>
        <pt x="207" y="115" on="1"/>
        <pt x="498" y="115" on="1"/>
        <pt x="498" y="-5" on="1"/>
        <pt x="441" y="-26" on="0"/>
        <pt x="401" y="-64" on="0"/>
        <pt x="401" y="-76" on="1"/>
        <pt x="401" y="-92" on="0"/>
        <pt x="432" y="-92" on="1"/>
        <pt x="447" y="-92" on="0"/>
        <pt x="485" y="-86" on="0"/>
        <pt x="499" y="-83" on="1"/>
        <pt x="499" y="-162" on="1"/>
        <pt x="479" y="-167" on="0"/>
        <pt x="443" y="-172" on="0"/>
      </contour>
    </TTGlyph>
    <TTGlyph name="Eth" xMin="0" yMin="-13" xMax="661" yMax="749">
      <contour>
        <pt x="0" y="431" on="1"/>
        <pt x="85" y="431" on="1"/>
        <pt x="85" y="738" on="1"/>
        <pt x="151" y="743" on="0"/>
        <pt x="249" y="749" on="0"/>
        <pt x="288" y="749" on="1"/>
        <pt x="388" y="749" on="0"/>
        <pt x="529" y="706" on="0"/>
        <pt x="619" y="614" on="0"/>
        <pt x="661" y="470" on="0"/>
        <pt x="661" y="369" on="1"/>
        <pt x="661" y="267" on="0"/>
        <pt x="617" y="122" on="0"/>
        <pt x="523" y="30" on="0"/>
        <pt x="374" y="-13" on="0"/>
        <pt x="268" y="-13" on="1"/>
        <pt x="182" y="-13" on="0"/>
        <pt x="85" y="-1" on="1"/>
        <pt x="85" y="313" on="1"/>
        <pt x="0" y="313" on="1"/>
      </contour>
      <contour>
        <pt x="322" y="112" on="1"/>
        <pt x="372" y="112" on="0"/>
        <pt x="441" y="138" on="0"/>
        <pt x="483" y="198" on="0"/>
        <pt x="502" y="297" on="0"/>
        <pt x="502" y="370" on="1"/>
        <pt x="502" y="442" on="0"/>
        <pt x="483" y="540" on="0"/>
        <pt x="439" y="600" on="0"/>
        <pt x="367" y="626" on="0"/>
        <pt x="314" y="626" on="1"/>
        <pt x="276" y="626" on="0"/>
        <pt x="237" y="620" on="1"/>
        <pt x="237" y="431" on="1"/>
        <pt x="346" y="431" on="1"/>
        <pt x="346" y="313" on="1"/>
        <pt x="237" y="313" on="1"/>
        <pt x="237" y="118" on="1"/>
        <pt x="263" y="115" on="0"/>
        <pt x="303" y="112" on="0"/>
      </contour>
    </TTGlyph>
    <TTGlyph name="Eth.sc" xMin="6" yMin="-9" xMax="607" yMax="584">
      <contour>
        <pt x="6" y="344" on="1"/>
        <pt x="81" y="344" on="1"/>
        <pt x="81" y="577" on="1"/>
        <pt x="143" y="581" on="0"/>
        <pt x="234" y="584" on="0"/>
        <pt x="269" y="584" on="1"/>
        <pt x="359" y="584" on="0"/>
        <pt x="488" y="551" on="0"/>
        <pt x="569" y="480" on="0"/>
        <pt x="607" y="367" on="0"/>
        <pt x="607" y="288" on="1"/>
        <pt x="607" y="207" on="0"/>
        <pt x="568" y="94" on="0"/>
        <pt x="482" y="23" on="0"/>
        <pt x="346" y="-9" on="0"/>
        <pt x="250" y="-9" on="1"/>
        <pt x="168" y="-9" on="0"/>
        <pt x="81" y="0" on="1"/>
        <pt x="81" y="237" on="1"/>
        <pt x="6" y="237" on="1"/>
      </contour>
      <contour>
        <pt x="302" y="108" on="1"/>
        <pt x="345" y="108" on="0"/>
        <pt x="405" y="124" on="0"/>
        <pt x="441" y="165" on="0"/>
        <pt x="457" y="235" on="0"/>
        <pt x="457" y="288" on="1"/>
        <pt x="457" y="341" on="0"/>
        <pt x="441" y="411" on="0"/>
        <pt x="402" y="452" on="0"/>
        <pt x="339" y="469" on="0"/>
        <pt x="293" y="469" on="1"/>
        <pt x="276" y="469" on="0"/>
        <pt x="243" y="467" on="0"/>
        <pt x="225" y="465" on="1"/>
        <pt x="225" y="344" on="1"/>
        <pt x="318" y="344" on="1"/>
        <pt x="318" y="237" on="1"/>
        <pt x="225" y="237" on="1"/>
        <pt x="225" y="112" on="1"/>
        <pt x="248" y="109" on="0"/>
        <pt x="285" y="108" on="0"/>
      </contour>
    </TTGlyph>
    <TTGlyph name="Etilde" xMin="64" yMin="0" xMax="543" yMax="955">
      <contour>
        <pt x="109" y="844" on="1"/>
        <pt x="138" y="898" on="0"/>
        <pt x="212" y="955" on="0"/>
        <pt x="247" y="955" on="1"/>
        <pt x="268" y="955" on="0"/>
        <pt x="309" y="942" on="0"/>
        <pt x="348" y="927" on="0"/>
        <pt x="388" y="915" on="0"/>
        <pt x="409" y="915" on="1"/>
        <pt x="429" y="915" on="0"/>
        <pt x="466" y="933" on="0"/>
        <pt x="487" y="954" on="1"/>
        <pt x="511" y="929" on="1"/>
        <pt x="484" y="874" on="0"/>
        <pt x="410" y="818" on="0"/>
        <pt x="373" y="818" on="1"/>
        <pt x="352" y="818" on="0"/>
        <pt x="312" y="830" on="0"/>
        <pt x="272" y="845" on="0"/>
        <pt x="233" y="857" on="0"/>
        <pt x="212" y="857" on="1"/>
        <pt x="192" y="857" on="0"/>
        <pt x="153" y="840" on="0"/>
        <pt x="132" y="820" on="1"/>
      </contour>
      <contour>
        <pt x="64" y="740" on="1"/>
        <pt x="534" y="740" on="1"/>
        <pt x="534" y="613" on="1"/>
        <pt x="218" y="613" on="1"/>
        <pt x="218" y="435" on="1"/>
        <pt x="501" y="435" on="1"/>
        <pt x="501" y="309" on="1"/>
        <pt x="218" y="309" on="1"/>
        <pt x="218" y="127" on="1"/>
        <pt x="543" y="127" on="1"/>
        <pt x="543" y="0" on="1"/>
        <pt x="64" y="0" on="1"/>
      </contour>
    </TTGlyph>
    <TTGlyph name="Etilde.sc" xMin="61" yMin="0" xMax="498" yMax="757">
      <contour>
        <pt x="101" y="658" on="1"/>
        <pt x="127" y="708" on="0"/>
        <pt x="196" y="757" on="0"/>
        <pt x="229" y="757" on="1"/>
        <pt x="248" y="757" on="0"/>
        <pt x="285" y="748" on="0"/>
        <pt x="321" y="737" on="0"/>
        <pt x="358" y="728" on="0"/>
        <pt x="377" y="728" on="1"/>
        <pt x="395" y="728" on="0"/>
        <pt x="429" y="740" on="0"/>
        <pt x="449" y="757" on="1"/>
        <pt x="471" y="737" on="1"/>
        <pt x="445" y="686" on="0"/>
        <pt x="376" y="637" on="0"/>
        <pt x="343" y="637" on="1"/>
        <pt x="324" y="637" on="0"/>
        <pt x="287" y="646" on="0"/>
        <pt x="250" y="658" on="0"/>
        <pt x="214" y="667" on="0"/>
        <pt x="195" y="667" on="1"/>
        <pt x="176" y="667" on="0"/>
        <pt x="141" y="655" on="0"/>
        <pt x="121" y="638" on="1"/>
      </contour>
      <contour>
        <pt x="61" y="577" on="1"/>
        <pt x="490" y="577" on="1"/>
        <pt x="490" y="463" on="1"/>
        <pt x="207" y="463" on="1"/>
        <pt x="207" y="343" on="1"/>
        <pt x="461" y="343" on="1"/>
        <pt x="461" y="236" on="1"/>
        <pt x="207" y="236" on="1"/>
        <pt x="207" y="115" on="1"/>
        <pt x="498" y="115" on="1"/>
        <pt x="498" y="0" on="1"/>
        <pt x="61" y="0" on="1"/>
      </contour>
    </TTGlyph>
    <TTGlyph name="Euro" xMin="31" yMin="-10" xMax="576" yMax="750">
      <contour>
        <pt x="31" y="497" on="1"/>
        <pt x="114" y="497" on="1"/>
        <pt x="140" y="625" on="0"/>
        <pt x="305" y="750" on="0"/>
        <pt x="450" y="750" on="1"/>
        <pt x="490" y="750" on="0"/>
        <pt x="553" y="740" on="0"/>
        <pt x="576" y="733" on="1"/>
        <pt x="545" y="613" on="1"/>
        <pt x="509" y="619" on="0"/>
        <pt x="472" y="619" on="1"/>
        <pt x="426" y="619" on="0"/>
        <pt x="358" y="606" on="0"/>
        <pt x="309" y="578" on="0"/>
        <pt x="278" y="531" on="0"/>
        <pt x="270" y="497" on="1"/>
        <pt x="506" y="497" on="1"/>
        <pt x="486" y="410" on="1"/>
        <pt x="260" y="410" on="1"/>
        <pt x="259" y="400" on="0"/>
        <pt x="259" y="380" on="0"/>
        <pt x="259" y="369" on="1"/>
        <pt x="259" y="358" on="0"/>
        <pt x="259" y="338" on="0"/>
        <pt x="260" y="329" on="1"/>
        <pt x="473" y="329" on="1"/>
        <pt x="454" y="242" on="1"/>
        <pt x="271" y="242" on="1"/>
        <pt x="287" y="174" on="0"/>
        <pt x="381" y="120" on="0"/>
        <pt x="472" y="120" on="1"/>
        <pt x="524" y="120" on="0"/>
        <pt x="572" y="132" on="1"/>
        <pt x="572" y="5" on="1"/>
        <pt x="549" y="-3" on="0"/>
        <pt x="487" y="-10" on="0"/>
        <pt x="452" y="-10" on="1"/>
        <pt x="166" y="-9" on="0"/>
        <pt x="115" y="242" on="1"/>
        <pt x="31" y="242" on="1"/>
        <pt x="31" y="329" on="1"/>
        <pt x="104" y="329" on="1"/>
        <pt x="103" y="339" on="0"/>
        <pt x="103" y="358" on="0"/>
        <pt x="103" y="369" on="1"/>
        <pt x="103" y="380" on="0"/>
        <pt x="103" y="399" on="0"/>
        <pt x="104" y="410" on="1"/>
        <pt x="31" y="410" on="1"/>
      </contour>
    </TTGlyph>
    <TTGlyph name="Euro.tab" xMin="20" yMin="-10" xMax="559" yMax="750">
      <contour>
        <pt x="20" y="497" on="1"/>
        <pt x="103" y="497" on="1"/>
        <pt x="129" y="625" on="0"/>
        <pt x="291" y="750" on="0"/>
        <pt x="433" y="750" on="1"/>
        <pt x="473" y="750" on="0"/>
        <pt x="535" y="740" on="0"/>
        <pt x="559" y="733" on="1"/>
        <pt x="528" y="613" on="1"/>
        <pt x="492" y="619" on="0"/>
        <pt x="456" y="619" on="1"/>
        <pt x="370" y="619" on="0"/>
        <pt x="277" y="564" on="0"/>
        <pt x="261" y="497" on="1"/>
        <pt x="490" y="497" on="1"/>
        <pt x="470" y="410" on="1"/>
        <pt x="246" y="410" on="1"/>
        <pt x="246" y="329" on="1"/>
        <pt x="457" y="329" on="1"/>
        <pt x="438" y="242" on="1"/>
        <pt x="260" y="242" on="1"/>
        <pt x="278" y="176" on="0"/>
        <pt x="370" y="120" on="0"/>
        <pt x="456" y="120" on="1"/>
        <pt x="507" y="120" on="0"/>
        <pt x="554" y="132" on="1"/>
        <pt x="554" y="5" on="1"/>
        <pt x="532" y="-3" on="0"/>
        <pt x="471" y="-10" on="0"/>
        <pt x="436" y="-10" on="1"/>
        <pt x="293" y="-9" on="0"/>
        <pt x="129" y="115" on="0"/>
        <pt x="103" y="242" on="1"/>
        <pt x="20" y="242" on="1"/>
        <pt x="20" y="329" on="1"/>
        <pt x="92" y="329" on="1"/>
        <pt x="91" y="338" on="0"/>
        <pt x="91" y="359" on="0"/>
        <pt x="91" y="369" on="1"/>
        <pt x="91" y="379" on="0"/>
        <pt x="91" y="401" on="0"/>
        <pt x="92" y="410" on="1"/>
        <pt x="20" y="410" on="1"/>
      </contour>
    </TTGlyph>
    <TTGlyph name="F" xMin="64" yMin="0" xMax="524" yMax="740">
      <contour>
        <pt x="64" y="740" on="1"/>
        <pt x="524" y="740" on="1"/>
        <pt x="524" y="613" on="1"/>
        <pt x="218" y="613" on="1"/>
        <pt x="218" y="419" on="1"/>
        <pt x="494" y="419" on="1"/>
        <pt x="494" y="293" on="1"/>
        <pt x="218" y="293" on="1"/>
        <pt x="218" y="0" on="1"/>
        <pt x="64" y="0" on="1"/>
      </contour>
    </TTGlyph>
    <TTGlyph name="F.sc" xMin="61" yMin="0" xMax="482" yMax="577">
      <contour>
        <pt x="61" y="577" on="1"/>
        <pt x="482" y="577" on="1"/>
        <pt x="482" y="460" on="1"/>
        <pt x="207" y="460" on="1"/>
        <pt x="207" y="331" on="1"/>
        <pt x="455" y="331" on="1"/>
        <pt x="455" y="216" on="1"/>
        <pt x="207" y="216" on="1"/>
        <pt x="207" y="0" on="1"/>
        <pt x="61" y="0" on="1"/>
      </contour>
    </TTGlyph>
    <TTGlyph name="F_B.sc" xMin="61" yMin="-8" xMax="1048" yMax="585">
      <contour>
        <pt x="61" y="577" on="1"/>
        <pt x="482" y="577" on="1"/>
        <pt x="482" y="460" on="1"/>
        <pt x="207" y="460" on="1"/>
        <pt x="207" y="331" on="1"/>
        <pt x="455" y="331" on="1"/>
        <pt x="455" y="216" on="1"/>
        <pt x="207" y="216" on="1"/>
        <pt x="207" y="0" on="1"/>
        <pt x="61" y="0" on="1"/>
      </contour>
      <contour>
        <pt x="770" y="-8" on="1"/>
        <pt x="719" y="-8" on="0"/>
        <pt x="613" y="-2" on="0"/>
        <pt x="562" y="4" on="1"/>
        <pt x="562" y="573" on="1"/>
        <pt x="624" y="579" on="0"/>
        <pt x="720" y="585" on="0"/>
        <pt x="765" y="585" on="1"/>
        <pt x="903" y="585" on="0"/>
        <pt x="1029" y="506" on="0"/>
        <pt x="1029" y="421" on="1"/>
        <pt x="1029" y="322" on="0"/>
        <pt x="925" y="298" on="1"/>
        <pt x="925" y="295" on="1"/>
        <pt x="985" y="284" on="0"/>
        <pt x="1048" y="216" on="0"/>
        <pt x="1048" y="159" on="1"/>
        <pt x="1048" y="-8" on="0"/>
      </contour>
      <contour>
        <pt x="785" y="97" on="1"/>
        <pt x="906" y="97" on="0"/>
        <pt x="906" y="170" on="1"/>
        <pt x="906" y="211" on="0"/>
        <pt x="849" y="243" on="0"/>
        <pt x="782" y="243" on="1"/>
        <pt x="698" y="243" on="1"/>
        <pt x="698" y="101" on="1"/>
        <pt x="709" y="99" on="0"/>
        <pt x="750" y="97" on="0"/>
      </contour>
      <contour>
        <pt x="777" y="338" on="1"/>
        <pt x="837" y="338" on="0"/>
        <pt x="885" y="369" on="0"/>
        <pt x="885" y="411" on="1"/>
        <pt x="885" y="448" on="0"/>
        <pt x="835" y="480" on="0"/>
        <pt x="779" y="480" on="1"/>
        <pt x="758" y="480" on="0"/>
        <pt x="718" y="478" on="0"/>
        <pt x="698" y="475" on="1"/>
        <pt x="698" y="338" on="1"/>
      </contour>
    </TTGlyph>
    <TTGlyph name="F_F.sc" xMin="61" yMin="0" xMax="982" yMax="577">
      <contour>
        <pt x="61" y="577" on="1"/>
        <pt x="482" y="577" on="1"/>
        <pt x="482" y="460" on="1"/>
        <pt x="207" y="460" on="1"/>
        <pt x="207" y="331" on="1"/>
        <pt x="455" y="331" on="1"/>
        <pt x="455" y="216" on="1"/>
        <pt x="207" y="216" on="1"/>
        <pt x="207" y="0" on="1"/>
        <pt x="61" y="0" on="1"/>
      </contour>
      <contour>
        <pt x="561" y="577" on="1"/>
        <pt x="982" y="577" on="1"/>
        <pt x="982" y="460" on="1"/>
        <pt x="707" y="460" on="1"/>
        <pt x="707" y="331" on="1"/>
        <pt x="955" y="331" on="1"/>
        <pt x="955" y="216" on="1"/>
        <pt x="707" y="216" on="1"/>
        <pt x="707" y="0" on="1"/>
        <pt x="561" y="0" on="1"/>
      </contour>
    </TTGlyph>
    <TTGlyph name="F_F_B.sc" xMin="61" yMin="-8" xMax="1548" yMax="585">
      <contour>
        <pt x="61" y="577" on="1"/>
        <pt x="482" y="577" on="1"/>
        <pt x="482" y="460" on="1"/>
        <pt x="207" y="460" on="1"/>
        <pt x="207" y="331" on="1"/>
        <pt x="455" y="331" on="1"/>
        <pt x="455" y="216" on="1"/>
        <pt x="207" y="216" on="1"/>
        <pt x="207" y="0" on="1"/>
        <pt x="61" y="0" on="1"/>
      </contour>
      <contour>
        <pt x="561" y="577" on="1"/>
        <pt x="982" y="577" on="1"/>
        <pt x="982" y="460" on="1"/>
        <pt x="707" y="460" on="1"/>
        <pt x="707" y="331" on="1"/>
        <pt x="955" y="331" on="1"/>
        <pt x="955" y="216" on="1"/>
        <pt x="707" y="216" on="1"/>
        <pt x="707" y="0" on="1"/>
        <pt x="561" y="0" on="1"/>
      </contour>
      <contour>
        <pt x="1270" y="-8" on="1"/>
        <pt x="1219" y="-8" on="0"/>
        <pt x="1113" y="-2" on="0"/>
        <pt x="1062" y="4" on="1"/>
        <pt x="1062" y="573" on="1"/>
        <pt x="1124" y="579" on="0"/>
        <pt x="1220" y="585" on="0"/>
        <pt x="1265" y="585" on="1"/>
        <pt x="1403" y="585" on="0"/>
        <pt x="1529" y="506" on="0"/>
        <pt x="1529" y="421" on="1"/>
        <pt x="1529" y="322" on="0"/>
        <pt x="1425" y="298" on="1"/>
        <pt x="1425" y="295" on="1"/>
        <pt x="1485" y="284" on="0"/>
        <pt x="1548" y="216" on="0"/>
        <pt x="1548" y="159" on="1"/>
        <pt x="1548" y="-8" on="0"/>
      </contour>
      <contour>
        <pt x="1285" y="97" on="1"/>
        <pt x="1406" y="97" on="0"/>
        <pt x="1406" y="170" on="1"/>
        <pt x="1406" y="211" on="0"/>
        <pt x="1349" y="243" on="0"/>
        <pt x="1282" y="243" on="1"/>
        <pt x="1198" y="243" on="1"/>
        <pt x="1198" y="101" on="1"/>
        <pt x="1209" y="99" on="0"/>
        <pt x="1250" y="97" on="0"/>
      </contour>
      <contour>
        <pt x="1277" y="338" on="1"/>
        <pt x="1337" y="338" on="0"/>
        <pt x="1385" y="369" on="0"/>
        <pt x="1385" y="411" on="1"/>
        <pt x="1385" y="448" on="0"/>
        <pt x="1335" y="480" on="0"/>
        <pt x="1279" y="480" on="1"/>
        <pt x="1258" y="480" on="0"/>
        <pt x="1218" y="478" on="0"/>
        <pt x="1198" y="475" on="1"/>
        <pt x="1198" y="338" on="1"/>
      </contour>
    </TTGlyph>
    <TTGlyph name="F_F_H.sc" xMin="61" yMin="0" xMax="1597" yMax="577">
      <contour>
        <pt x="61" y="577" on="1"/>
        <pt x="482" y="577" on="1"/>
        <pt x="482" y="460" on="1"/>
        <pt x="207" y="460" on="1"/>
        <pt x="207" y="331" on="1"/>
        <pt x="455" y="331" on="1"/>
        <pt x="455" y="216" on="1"/>
        <pt x="207" y="216" on="1"/>
        <pt x="207" y="0" on="1"/>
        <pt x="61" y="0" on="1"/>
      </contour>
      <contour>
        <pt x="561" y="577" on="1"/>
        <pt x="982" y="577" on="1"/>
        <pt x="982" y="460" on="1"/>
        <pt x="707" y="460" on="1"/>
        <pt x="707" y="331" on="1"/>
        <pt x="955" y="331" on="1"/>
        <pt x="955" y="216" on="1"/>
        <pt x="707" y="216" on="1"/>
        <pt x="707" y="0" on="1"/>
        <pt x="561" y="0" on="1"/>
      </contour>
      <contour>
        <pt x="1061" y="577" on="1"/>
        <pt x="1207" y="577" on="1"/>
        <pt x="1207" y="354" on="1"/>
        <pt x="1450" y="354" on="1"/>
        <pt x="1450" y="577" on="1"/>
        <pt x="1597" y="577" on="1"/>
        <pt x="1597" y="0" on="1"/>
        <pt x="1450" y="0" on="1"/>
        <pt x="1450" y="236" on="1"/>
        <pt x="1207" y="236" on="1"/>
        <pt x="1207" y="0" on="1"/>
        <pt x="1061" y="0" on="1"/>
      </contour>
    </TTGlyph>
    <TTGlyph name="F_F_I.sc" xMin="61" yMin="0" xMax="1207" yMax="577">
      <contour>
        <pt x="61" y="577" on="1"/>
        <pt x="482" y="577" on="1"/>
        <pt x="482" y="460" on="1"/>
        <pt x="207" y="460" on="1"/>
        <pt x="207" y="331" on="1"/>
        <pt x="455" y="331" on="1"/>
        <pt x="455" y="216" on="1"/>
        <pt x="207" y="216" on="1"/>
        <pt x="207" y="0" on="1"/>
        <pt x="61" y="0" on="1"/>
      </contour>
      <contour>
        <pt x="561" y="577" on="1"/>
        <pt x="982" y="577" on="1"/>
        <pt x="982" y="460" on="1"/>
        <pt x="707" y="460" on="1"/>
        <pt x="707" y="331" on="1"/>
        <pt x="955" y="331" on="1"/>
        <pt x="955" y="216" on="1"/>
        <pt x="707" y="216" on="1"/>
        <pt x="707" y="0" on="1"/>
        <pt x="561" y="0" on="1"/>
      </contour>
      <contour>
        <pt x="1061" y="577" on="1"/>
        <pt x="1207" y="577" on="1"/>
        <pt x="1207" y="0" on="1"/>
        <pt x="1061" y="0" on="1"/>
      </contour>
    </TTGlyph>
    <TTGlyph name="F_F_J.sc" xMin="61" yMin="-165" xMax="1217" yMax="577">
      <contour>
        <pt x="61" y="577" on="1"/>
        <pt x="482" y="577" on="1"/>
        <pt x="482" y="460" on="1"/>
        <pt x="207" y="460" on="1"/>
        <pt x="207" y="331" on="1"/>
        <pt x="455" y="331" on="1"/>
        <pt x="455" y="216" on="1"/>
        <pt x="207" y="216" on="1"/>
        <pt x="207" y="0" on="1"/>
        <pt x="61" y="0" on="1"/>
      </contour>
      <contour>
        <pt x="561" y="577" on="1"/>
        <pt x="982" y="577" on="1"/>
        <pt x="982" y="460" on="1"/>
        <pt x="707" y="460" on="1"/>
        <pt x="707" y="331" on="1"/>
        <pt x="955" y="331" on="1"/>
        <pt x="955" y="216" on="1"/>
        <pt x="707" y="216" on="1"/>
        <pt x="707" y="0" on="1"/>
        <pt x="561" y="0" on="1"/>
      </contour>
      <contour>
        <pt x="1003" y="-124" on="1"/>
        <pt x="1023" y="-85" on="0"/>
        <pt x="1049" y="-19" on="0"/>
        <pt x="1065" y="45" on="0"/>
        <pt x="1071" y="113" on="0"/>
        <pt x="1071" y="154" on="1"/>
        <pt x="1071" y="577" on="1"/>
        <pt x="1217" y="577" on="1"/>
        <pt x="1217" y="141" on="1"/>
        <pt x="1217" y="100" on="0"/>
        <pt x="1204" y="28" on="0"/>
        <pt x="1176" y="-44" on="0"/>
        <pt x="1130" y="-121" on="0"/>
        <pt x="1096" y="-165" on="1"/>
      </contour>
    </TTGlyph>
    <TTGlyph name="F_F_K.sc" xMin="61" yMin="0" xMax="1599" yMax="577">
      <contour>
        <pt x="61" y="577" on="1"/>
        <pt x="482" y="577" on="1"/>
        <pt x="482" y="460" on="1"/>
        <pt x="207" y="460" on="1"/>
        <pt x="207" y="331" on="1"/>
        <pt x="455" y="331" on="1"/>
        <pt x="455" y="216" on="1"/>
        <pt x="207" y="216" on="1"/>
        <pt x="207" y="0" on="1"/>
        <pt x="61" y="0" on="1"/>
      </contour>
      <contour>
        <pt x="561" y="577" on="1"/>
        <pt x="982" y="577" on="1"/>
        <pt x="982" y="460" on="1"/>
        <pt x="707" y="460" on="1"/>
        <pt x="707" y="331" on="1"/>
        <pt x="955" y="331" on="1"/>
        <pt x="955" y="216" on="1"/>
        <pt x="707" y="216" on="1"/>
        <pt x="707" y="0" on="1"/>
        <pt x="561" y="0" on="1"/>
      </contour>
      <contour>
        <pt x="1061" y="577" on="1"/>
        <pt x="1207" y="577" on="1"/>
        <pt x="1207" y="352" on="1"/>
        <pt x="1283" y="352" on="1"/>
        <pt x="1420" y="577" on="1"/>
        <pt x="1582" y="577" on="1"/>
        <pt x="1422" y="321" on="1"/>
        <pt x="1371" y="299" on="1"/>
        <pt x="1371" y="294" on="1"/>
        <pt x="1424" y="272" on="1"/>
        <pt x="1599" y="0" on="1"/>
        <pt x="1436" y="0" on="1"/>
        <pt x="1284" y="234" on="1"/>
        <pt x="1207" y="234" on="1"/>
        <pt x="1207" y="0" on="1"/>
        <pt x="1061" y="0" on="1"/>
      </contour>
    </TTGlyph>
    <TTGlyph name="F_F_L.sc" xMin="61" yMin="0" xMax="1443" yMax="577">
      <contour>
        <pt x="1061" y="577" on="1"/>
        <pt x="1207" y="577" on="1"/>
        <pt x="1207" y="118" on="1"/>
        <pt x="1443" y="118" on="1"/>
        <pt x="1443" y="0" on="1"/>
        <pt x="1061" y="0" on="1"/>
      </contour>
      <contour>
        <pt x="61" y="577" on="1"/>
        <pt x="482" y="577" on="1"/>
        <pt x="482" y="460" on="1"/>
        <pt x="207" y="460" on="1"/>
        <pt x="207" y="331" on="1"/>
        <pt x="455" y="331" on="1"/>
        <pt x="455" y="216" on="1"/>
        <pt x="207" y="216" on="1"/>
        <pt x="207" y="0" on="1"/>
        <pt x="61" y="0" on="1"/>
      </contour>
      <contour>
        <pt x="561" y="577" on="1"/>
        <pt x="982" y="577" on="1"/>
        <pt x="982" y="460" on="1"/>
        <pt x="707" y="460" on="1"/>
        <pt x="707" y="331" on="1"/>
        <pt x="955" y="331" on="1"/>
        <pt x="955" y="216" on="1"/>
        <pt x="707" y="216" on="1"/>
        <pt x="707" y="0" on="1"/>
        <pt x="561" y="0" on="1"/>
      </contour>
    </TTGlyph>
    <TTGlyph name="F_F_T.sc" xMin="61" yMin="0" xMax="1476" yMax="577">
      <contour>
        <pt x="1163" y="458" on="1"/>
        <pt x="996" y="458" on="1"/>
        <pt x="996" y="577" on="1"/>
        <pt x="1476" y="577" on="1"/>
        <pt x="1476" y="458" on="1"/>
        <pt x="1309" y="458" on="1"/>
        <pt x="1309" y="0" on="1"/>
        <pt x="1163" y="0" on="1"/>
      </contour>
      <contour>
        <pt x="61" y="577" on="1"/>
        <pt x="482" y="577" on="1"/>
        <pt x="482" y="460" on="1"/>
        <pt x="207" y="460" on="1"/>
        <pt x="207" y="331" on="1"/>
        <pt x="455" y="331" on="1"/>
        <pt x="455" y="216" on="1"/>
        <pt x="207" y="216" on="1"/>
        <pt x="207" y="0" on="1"/>
        <pt x="61" y="0" on="1"/>
      </contour>
      <contour>
        <pt x="561" y="577" on="1"/>
        <pt x="982" y="577" on="1"/>
        <pt x="982" y="460" on="1"/>
        <pt x="707" y="460" on="1"/>
        <pt x="707" y="331" on="1"/>
        <pt x="955" y="331" on="1"/>
        <pt x="955" y="216" on="1"/>
        <pt x="707" y="216" on="1"/>
        <pt x="707" y="0" on="1"/>
        <pt x="561" y="0" on="1"/>
      </contour>
    </TTGlyph>
    <TTGlyph name="F_H.sc" xMin="61" yMin="0" xMax="1097" yMax="577">
      <contour>
        <pt x="61" y="577" on="1"/>
        <pt x="482" y="577" on="1"/>
        <pt x="482" y="460" on="1"/>
        <pt x="207" y="460" on="1"/>
        <pt x="207" y="331" on="1"/>
        <pt x="455" y="331" on="1"/>
        <pt x="455" y="216" on="1"/>
        <pt x="207" y="216" on="1"/>
        <pt x="207" y="0" on="1"/>
        <pt x="61" y="0" on="1"/>
      </contour>
      <contour>
        <pt x="561" y="577" on="1"/>
        <pt x="707" y="577" on="1"/>
        <pt x="707" y="354" on="1"/>
        <pt x="950" y="354" on="1"/>
        <pt x="950" y="577" on="1"/>
        <pt x="1097" y="577" on="1"/>
        <pt x="1097" y="0" on="1"/>
        <pt x="950" y="0" on="1"/>
        <pt x="950" y="236" on="1"/>
        <pt x="707" y="236" on="1"/>
        <pt x="707" y="0" on="1"/>
        <pt x="561" y="0" on="1"/>
      </contour>
    </TTGlyph>
    <TTGlyph name="F_I.sc" xMin="61" yMin="0" xMax="707" yMax="577">
      <contour>
        <pt x="61" y="577" on="1"/>
        <pt x="482" y="577" on="1"/>
        <pt x="482" y="460" on="1"/>
        <pt x="207" y="460" on="1"/>
        <pt x="207" y="331" on="1"/>
        <pt x="455" y="331" on="1"/>
        <pt x="455" y="216" on="1"/>
        <pt x="207" y="216" on="1"/>
        <pt x="207" y="0" on="1"/>
        <pt x="61" y="0" on="1"/>
      </contour>
      <contour>
        <pt x="561" y="577" on="1"/>
        <pt x="707" y="577" on="1"/>
        <pt x="707" y="0" on="1"/>
        <pt x="561" y="0" on="1"/>
      </contour>
    </TTGlyph>
    <TTGlyph name="F_J.sc" xMin="61" yMin="-165" xMax="717" yMax="577">
      <contour>
        <pt x="61" y="577" on="1"/>
        <pt x="482" y="577" on="1"/>
        <pt x="482" y="460" on="1"/>
        <pt x="207" y="460" on="1"/>
        <pt x="207" y="331" on="1"/>
        <pt x="455" y="331" on="1"/>
        <pt x="455" y="216" on="1"/>
        <pt x="207" y="216" on="1"/>
        <pt x="207" y="0" on="1"/>
        <pt x="61" y="0" on="1"/>
      </contour>
      <contour>
        <pt x="503" y="-124" on="1"/>
        <pt x="523" y="-85" on="0"/>
        <pt x="549" y="-19" on="0"/>
        <pt x="565" y="45" on="0"/>
        <pt x="571" y="113" on="0"/>
        <pt x="571" y="154" on="1"/>
        <pt x="571" y="577" on="1"/>
        <pt x="717" y="577" on="1"/>
        <pt x="717" y="141" on="1"/>
        <pt x="717" y="100" on="0"/>
        <pt x="704" y="28" on="0"/>
        <pt x="676" y="-44" on="0"/>
        <pt x="630" y="-121" on="0"/>
        <pt x="596" y="-165" on="1"/>
      </contour>
    </TTGlyph>
    <TTGlyph name="F_K.sc" xMin="61" yMin="0" xMax="1099" yMax="577">
      <contour>
        <pt x="61" y="577" on="1"/>
        <pt x="482" y="577" on="1"/>
        <pt x="482" y="460" on="1"/>
        <pt x="207" y="460" on="1"/>
        <pt x="207" y="331" on="1"/>
        <pt x="455" y="331" on="1"/>
        <pt x="455" y="216" on="1"/>
        <pt x="207" y="216" on="1"/>
        <pt x="207" y="0" on="1"/>
        <pt x="61" y="0" on="1"/>
      </contour>
      <contour>
        <pt x="561" y="577" on="1"/>
        <pt x="707" y="577" on="1"/>
        <pt x="707" y="352" on="1"/>
        <pt x="783" y="352" on="1"/>
        <pt x="920" y="577" on="1"/>
        <pt x="1082" y="577" on="1"/>
        <pt x="922" y="321" on="1"/>
        <pt x="871" y="299" on="1"/>
        <pt x="871" y="294" on="1"/>
        <pt x="924" y="272" on="1"/>
        <pt x="1099" y="0" on="1"/>
        <pt x="936" y="0" on="1"/>
        <pt x="784" y="234" on="1"/>
        <pt x="707" y="234" on="1"/>
        <pt x="707" y="0" on="1"/>
        <pt x="561" y="0" on="1"/>
      </contour>
    </TTGlyph>
    <TTGlyph name="F_L.sc" xMin="61" yMin="0" xMax="943" yMax="577">
      <contour>
        <pt x="561" y="577" on="1"/>
        <pt x="707" y="577" on="1"/>
        <pt x="707" y="118" on="1"/>
        <pt x="943" y="118" on="1"/>
        <pt x="943" y="0" on="1"/>
        <pt x="561" y="0" on="1"/>
      </contour>
      <contour>
        <pt x="61" y="577" on="1"/>
        <pt x="482" y="577" on="1"/>
        <pt x="482" y="460" on="1"/>
        <pt x="207" y="460" on="1"/>
        <pt x="207" y="331" on="1"/>
        <pt x="455" y="331" on="1"/>
        <pt x="455" y="216" on="1"/>
        <pt x="207" y="216" on="1"/>
        <pt x="207" y="0" on="1"/>
        <pt x="61" y="0" on="1"/>
      </contour>
    </TTGlyph>
    <TTGlyph name="F_T.sc" xMin="61" yMin="0" xMax="976" yMax="577">
      <contour>
        <pt x="663" y="458" on="1"/>
        <pt x="496" y="458" on="1"/>
        <pt x="496" y="577" on="1"/>
        <pt x="976" y="577" on="1"/>
        <pt x="976" y="458" on="1"/>
        <pt x="809" y="458" on="1"/>
        <pt x="809" y="0" on="1"/>
        <pt x="663" y="0" on="1"/>
      </contour>
      <contour>
        <pt x="61" y="577" on="1"/>
        <pt x="482" y="577" on="1"/>
        <pt x="482" y="460" on="1"/>
        <pt x="207" y="460" on="1"/>
        <pt x="207" y="331" on="1"/>
        <pt x="455" y="331" on="1"/>
        <pt x="455" y="216" on="1"/>
        <pt x="207" y="216" on="1"/>
        <pt x="207" y="0" on="1"/>
        <pt x="61" y="0" on="1"/>
      </contour>
    </TTGlyph>
    <TTGlyph name="G" xMin="34" yMin="-10" xMax="574" yMax="750">
      <contour>
        <pt x="362" y="-10" on="1"/>
        <pt x="195" y="-10" on="0"/>
        <pt x="34" y="177" on="0"/>
        <pt x="34" y="369" on="1"/>
        <pt x="34" y="563" on="0"/>
        <pt x="209" y="750" on="0"/>
        <pt x="390" y="750" on="1"/>
        <pt x="430" y="750" on="0"/>
        <pt x="522" y="739" on="0"/>
        <pt x="565" y="728" on="1"/>
        <pt x="565" y="605" on="1"/>
        <pt x="463" y="623" on="0"/>
        <pt x="404" y="623" on="1"/>
        <pt x="344" y="623" on="0"/>
        <pt x="264" y="597" on="0"/>
        <pt x="214" y="537" on="0"/>
        <pt x="193" y="440" on="0"/>
        <pt x="193" y="369" on="1"/>
        <pt x="193" y="298" on="0"/>
        <pt x="212" y="201" on="0"/>
        <pt x="255" y="142" on="0"/>
        <pt x="325" y="117" on="0"/>
        <pt x="376" y="117" on="1"/>
        <pt x="402" y="117" on="0"/>
        <pt x="434" y="120" on="1"/>
        <pt x="434" y="376" on="1"/>
        <pt x="574" y="376" on="1"/>
        <pt x="574" y="13" on="1"/>
        <pt x="509" y="2" on="0"/>
        <pt x="406" y="-10" on="0"/>
      </contour>
    </TTGlyph>
    <TTGlyph name="G.sc" xMin="34" yMin="-8" xMax="525" yMax="586">
      <contour>
        <pt x="330" y="-8" on="1"/>
        <pt x="179" y="-8" on="0"/>
        <pt x="34" y="138" on="0"/>
        <pt x="34" y="288" on="1"/>
        <pt x="34" y="437" on="0"/>
        <pt x="192" y="586" on="0"/>
        <pt x="355" y="586" on="1"/>
        <pt x="392" y="586" on="0"/>
        <pt x="478" y="576" on="0"/>
        <pt x="517" y="568" on="1"/>
        <pt x="517" y="453" on="1"/>
        <pt x="469" y="460" on="0"/>
        <pt x="397" y="467" on="0"/>
        <pt x="369" y="467" on="1"/>
        <pt x="316" y="467" on="0"/>
        <pt x="245" y="449" on="0"/>
        <pt x="203" y="408" on="0"/>
        <pt x="185" y="339" on="0"/>
        <pt x="185" y="288" on="1"/>
        <pt x="185" y="237" on="0"/>
        <pt x="200" y="168" on="0"/>
        <pt x="236" y="128" on="0"/>
        <pt x="297" y="111" on="0"/>
        <pt x="343" y="111" on="1"/>
        <pt x="346" y="111" on="0"/>
        <pt x="359" y="111" on="0"/>
        <pt x="374" y="112" on="0"/>
        <pt x="388" y="113" on="0"/>
        <pt x="392" y="114" on="1"/>
        <pt x="392" y="293" on="1"/>
        <pt x="525" y="293" on="1"/>
        <pt x="525" y="12" on="1"/>
        <pt x="407" y="-8" on="0"/>
      </contour>
    </TTGlyph>
    <TTGlyph name="Gacute" xMin="34" yMin="-10" xMax="574" yMax="970">
      <contour>
        <pt x="283" y="801" on="1"/>
        <pt x="351" y="970" on="1"/>
        <pt x="506" y="970" on="1"/>
        <pt x="393" y="793" on="1"/>
      </contour>
      <contour>
        <pt x="362" y="-10" on="1"/>
        <pt x="195" y="-10" on="0"/>
        <pt x="34" y="177" on="0"/>
        <pt x="34" y="369" on="1"/>
        <pt x="34" y="563" on="0"/>
        <pt x="209" y="750" on="0"/>
        <pt x="390" y="750" on="1"/>
        <pt x="430" y="750" on="0"/>
        <pt x="522" y="739" on="0"/>
        <pt x="565" y="728" on="1"/>
        <pt x="565" y="605" on="1"/>
        <pt x="463" y="623" on="0"/>
        <pt x="404" y="623" on="1"/>
        <pt x="344" y="623" on="0"/>
        <pt x="264" y="597" on="0"/>
        <pt x="214" y="537" on="0"/>
        <pt x="193" y="440" on="0"/>
        <pt x="193" y="369" on="1"/>
        <pt x="193" y="298" on="0"/>
        <pt x="212" y="201" on="0"/>
        <pt x="255" y="142" on="0"/>
        <pt x="325" y="117" on="0"/>
        <pt x="376" y="117" on="1"/>
        <pt x="402" y="117" on="0"/>
        <pt x="434" y="120" on="1"/>
        <pt x="434" y="376" on="1"/>
        <pt x="574" y="376" on="1"/>
        <pt x="574" y="13" on="1"/>
        <pt x="509" y="2" on="0"/>
        <pt x="406" y="-10" on="0"/>
      </contour>
    </TTGlyph>
    <TTGlyph name="Gacute.sc" xMin="34" yMin="-8" xMax="525" yMax="769">
      <contour>
        <pt x="330" y="-8" on="1"/>
        <pt x="179" y="-8" on="0"/>
        <pt x="34" y="138" on="0"/>
        <pt x="34" y="288" on="1"/>
        <pt x="34" y="438" on="0"/>
        <pt x="192" y="586" on="0"/>
        <pt x="355" y="586" on="1"/>
        <pt x="393" y="586" on="0"/>
        <pt x="478" y="576" on="0"/>
        <pt x="517" y="568" on="1"/>
        <pt x="517" y="452" on="1"/>
        <pt x="469" y="460" on="0"/>
        <pt x="397" y="467" on="0"/>
        <pt x="369" y="467" on="1"/>
        <pt x="316" y="467" on="0"/>
        <pt x="245" y="450" on="0"/>
        <pt x="203" y="408" on="0"/>
        <pt x="185" y="339" on="0"/>
        <pt x="185" y="288" on="1"/>
        <pt x="185" y="236" on="0"/>
        <pt x="201" y="168" on="0"/>
        <pt x="237" y="127" on="0"/>
        <pt x="298" y="111" on="0"/>
        <pt x="343" y="111" on="1"/>
        <pt x="346" y="111" on="0"/>
        <pt x="359" y="111" on="0"/>
        <pt x="374" y="112" on="0"/>
        <pt x="388" y="113" on="0"/>
        <pt x="392" y="114" on="1"/>
        <pt x="392" y="293" on="1"/>
        <pt x="525" y="293" on="1"/>
        <pt x="525" y="12" on="1"/>
        <pt x="407" y="-8" on="0"/>
      </contour>
      <contour>
        <pt x="256" y="627" on="1"/>
        <pt x="316" y="769" on="1"/>
        <pt x="462" y="769" on="1"/>
        <pt x="359" y="620" on="1"/>
      </contour>
    </TTGlyph>
    <TTGlyph name="Gbreve" xMin="34" yMin="-10" xMax="574" yMax="973">
      <contour>
        <pt x="349" y="801" on="1"/>
        <pt x="253" y="801" on="0"/>
        <pt x="161" y="895" on="0"/>
        <pt x="161" y="973" on="1"/>
        <pt x="265" y="973" on="1"/>
        <pt x="265" y="922" on="0"/>
        <pt x="302" y="875" on="0"/>
        <pt x="349" y="875" on="1"/>
        <pt x="394" y="875" on="0"/>
        <pt x="432" y="922" on="0"/>
        <pt x="432" y="973" on="1"/>
        <pt x="536" y="973" on="1"/>
        <pt x="536" y="895" on="0"/>
        <pt x="443" y="801" on="0"/>
      </contour>
      <contour>
        <pt x="362" y="-10" on="1"/>
        <pt x="195" y="-10" on="0"/>
        <pt x="34" y="177" on="0"/>
        <pt x="34" y="369" on="1"/>
        <pt x="34" y="563" on="0"/>
        <pt x="209" y="750" on="0"/>
        <pt x="390" y="750" on="1"/>
        <pt x="430" y="750" on="0"/>
        <pt x="522" y="739" on="0"/>
        <pt x="565" y="728" on="1"/>
        <pt x="565" y="605" on="1"/>
        <pt x="463" y="623" on="0"/>
        <pt x="404" y="623" on="1"/>
        <pt x="344" y="623" on="0"/>
        <pt x="264" y="597" on="0"/>
        <pt x="214" y="537" on="0"/>
        <pt x="193" y="440" on="0"/>
        <pt x="193" y="369" on="1"/>
        <pt x="193" y="298" on="0"/>
        <pt x="212" y="201" on="0"/>
        <pt x="255" y="142" on="0"/>
        <pt x="325" y="117" on="0"/>
        <pt x="376" y="117" on="1"/>
        <pt x="402" y="117" on="0"/>
        <pt x="434" y="120" on="1"/>
        <pt x="434" y="376" on="1"/>
        <pt x="574" y="376" on="1"/>
        <pt x="574" y="13" on="1"/>
        <pt x="509" y="2" on="0"/>
        <pt x="406" y="-10" on="0"/>
      </contour>
    </TTGlyph>
    <TTGlyph name="Gbreve.sc" xMin="34" yMin="-8" xMax="525" yMax="765">
      <contour>
        <pt x="330" y="-8" on="1"/>
        <pt x="179" y="-8" on="0"/>
        <pt x="34" y="138" on="0"/>
        <pt x="34" y="288" on="1"/>
        <pt x="34" y="438" on="0"/>
        <pt x="192" y="586" on="0"/>
        <pt x="355" y="586" on="1"/>
        <pt x="393" y="586" on="0"/>
        <pt x="478" y="576" on="0"/>
        <pt x="517" y="568" on="1"/>
        <pt x="517" y="452" on="1"/>
        <pt x="469" y="460" on="0"/>
        <pt x="397" y="467" on="0"/>
        <pt x="369" y="467" on="1"/>
        <pt x="316" y="467" on="0"/>
        <pt x="245" y="450" on="0"/>
        <pt x="203" y="408" on="0"/>
        <pt x="185" y="339" on="0"/>
        <pt x="185" y="288" on="1"/>
        <pt x="185" y="236" on="0"/>
        <pt x="201" y="168" on="0"/>
        <pt x="237" y="127" on="0"/>
        <pt x="298" y="111" on="0"/>
        <pt x="343" y="111" on="1"/>
        <pt x="346" y="111" on="0"/>
        <pt x="359" y="111" on="0"/>
        <pt x="374" y="112" on="0"/>
        <pt x="388" y="113" on="0"/>
        <pt x="392" y="114" on="1"/>
        <pt x="392" y="293" on="1"/>
        <pt x="525" y="293" on="1"/>
        <pt x="525" y="12" on="1"/>
        <pt x="407" y="-8" on="0"/>
      </contour>
      <contour>
        <pt x="318" y="623" on="1"/>
        <pt x="229" y="623" on="0"/>
        <pt x="146" y="701" on="0"/>
        <pt x="146" y="765" on="1"/>
        <pt x="243" y="765" on="1"/>
        <pt x="243" y="724" on="0"/>
        <pt x="276" y="689" on="0"/>
        <pt x="318" y="689" on="1"/>
        <pt x="360" y="689" on="0"/>
        <pt x="392" y="724" on="0"/>
        <pt x="392" y="765" on="1"/>
        <pt x="490" y="765" on="1"/>
        <pt x="490" y="700" on="0"/>
        <pt x="406" y="623" on="0"/>
      </contour>
    </TTGlyph>
    <TTGlyph name="Gcircumflex" xMin="34" yMin="-10" xMax="574" yMax="975">
      <contour>
        <pt x="362" y="-10" on="1"/>
        <pt x="195" y="-10" on="0"/>
        <pt x="34" y="177" on="0"/>
        <pt x="34" y="369" on="1"/>
        <pt x="34" y="563" on="0"/>
        <pt x="209" y="750" on="0"/>
        <pt x="390" y="750" on="1"/>
        <pt x="430" y="750" on="0"/>
        <pt x="522" y="739" on="0"/>
        <pt x="565" y="728" on="1"/>
        <pt x="565" y="605" on="1"/>
        <pt x="463" y="623" on="0"/>
        <pt x="404" y="623" on="1"/>
        <pt x="344" y="623" on="0"/>
        <pt x="264" y="597" on="0"/>
        <pt x="214" y="537" on="0"/>
        <pt x="193" y="440" on="0"/>
        <pt x="193" y="369" on="1"/>
        <pt x="193" y="298" on="0"/>
        <pt x="212" y="201" on="0"/>
        <pt x="255" y="142" on="0"/>
        <pt x="325" y="117" on="0"/>
        <pt x="376" y="117" on="1"/>
        <pt x="402" y="117" on="0"/>
        <pt x="434" y="120" on="1"/>
        <pt x="434" y="376" on="1"/>
        <pt x="574" y="376" on="1"/>
        <pt x="574" y="13" on="1"/>
        <pt x="509" y="2" on="0"/>
        <pt x="406" y="-10" on="0"/>
      </contour>
      <contour>
        <pt x="176" y="901" on="1"/>
        <pt x="346" y="975" on="1"/>
        <pt x="515" y="901" on="1"/>
        <pt x="515" y="798" on="1"/>
        <pt x="346" y="871" on="1"/>
        <pt x="176" y="798" on="1"/>
      </contour>
    </TTGlyph>
    <TTGlyph name="Gcircumflex.sc" xMin="34" yMin="-8" xMax="525" yMax="771">
      <contour>
        <pt x="330" y="-8" on="1"/>
        <pt x="179" y="-8" on="0"/>
        <pt x="34" y="138" on="0"/>
        <pt x="34" y="288" on="1"/>
        <pt x="34" y="438" on="0"/>
        <pt x="192" y="586" on="0"/>
        <pt x="355" y="586" on="1"/>
        <pt x="393" y="586" on="0"/>
        <pt x="478" y="576" on="0"/>
        <pt x="517" y="568" on="1"/>
        <pt x="517" y="452" on="1"/>
        <pt x="469" y="460" on="0"/>
        <pt x="397" y="467" on="0"/>
        <pt x="369" y="467" on="1"/>
        <pt x="316" y="467" on="0"/>
        <pt x="245" y="450" on="0"/>
        <pt x="203" y="408" on="0"/>
        <pt x="185" y="339" on="0"/>
        <pt x="185" y="288" on="1"/>
        <pt x="185" y="236" on="0"/>
        <pt x="201" y="168" on="0"/>
        <pt x="237" y="127" on="0"/>
        <pt x="298" y="111" on="0"/>
        <pt x="343" y="111" on="1"/>
        <pt x="346" y="111" on="0"/>
        <pt x="359" y="111" on="0"/>
        <pt x="374" y="112" on="0"/>
        <pt x="388" y="113" on="0"/>
        <pt x="392" y="114" on="1"/>
        <pt x="392" y="293" on="1"/>
        <pt x="525" y="293" on="1"/>
        <pt x="525" y="12" on="1"/>
        <pt x="407" y="-8" on="0"/>
      </contour>
      <contour>
        <pt x="158" y="713" on="1"/>
        <pt x="314" y="771" on="1"/>
        <pt x="469" y="713" on="1"/>
        <pt x="469" y="618" on="1"/>
        <pt x="314" y="676" on="1"/>
        <pt x="158" y="618" on="1"/>
      </contour>
    </TTGlyph>
    <TTGlyph name="Gcommaaccent" xMin="34" yMin="-220" xMax="574" yMax="750">
      <contour>
        <pt x="279" y="-69" on="1"/>
        <pt x="434" y="-69" on="1"/>
        <pt x="350" y="-220" on="1"/>
        <pt x="235" y="-220" on="1"/>
      </contour>
      <contour>
        <pt x="362" y="-10" on="1"/>
        <pt x="195" y="-10" on="0"/>
        <pt x="34" y="177" on="0"/>
        <pt x="34" y="369" on="1"/>
        <pt x="34" y="563" on="0"/>
        <pt x="209" y="750" on="0"/>
        <pt x="390" y="750" on="1"/>
        <pt x="430" y="750" on="0"/>
        <pt x="522" y="739" on="0"/>
        <pt x="565" y="728" on="1"/>
        <pt x="565" y="605" on="1"/>
        <pt x="463" y="623" on="0"/>
        <pt x="404" y="623" on="1"/>
        <pt x="344" y="623" on="0"/>
        <pt x="264" y="597" on="0"/>
        <pt x="214" y="537" on="0"/>
        <pt x="193" y="440" on="0"/>
        <pt x="193" y="369" on="1"/>
        <pt x="193" y="298" on="0"/>
        <pt x="212" y="201" on="0"/>
        <pt x="255" y="142" on="0"/>
        <pt x="325" y="117" on="0"/>
        <pt x="376" y="117" on="1"/>
        <pt x="402" y="117" on="0"/>
        <pt x="434" y="120" on="1"/>
        <pt x="434" y="376" on="1"/>
        <pt x="574" y="376" on="1"/>
        <pt x="574" y="13" on="1"/>
        <pt x="509" y="2" on="0"/>
        <pt x="406" y="-10" on="0"/>
      </contour>
    </TTGlyph>
    <TTGlyph name="Gcommaaccent.sc" xMin="34" yMin="-172" xMax="525" yMax="586">
      <contour>
        <pt x="330" y="-8" on="1"/>
        <pt x="179" y="-8" on="0"/>
        <pt x="34" y="138" on="0"/>
        <pt x="34" y="288" on="1"/>
        <pt x="34" y="438" on="0"/>
        <pt x="192" y="586" on="0"/>
        <pt x="355" y="586" on="1"/>
        <pt x="393" y="586" on="0"/>
        <pt x="478" y="576" on="0"/>
        <pt x="517" y="568" on="1"/>
        <pt x="517" y="452" on="1"/>
        <pt x="469" y="460" on="0"/>
        <pt x="397" y="467" on="0"/>
        <pt x="369" y="467" on="1"/>
        <pt x="316" y="467" on="0"/>
        <pt x="245" y="450" on="0"/>
        <pt x="203" y="408" on="0"/>
        <pt x="185" y="339" on="0"/>
        <pt x="185" y="288" on="1"/>
        <pt x="185" y="236" on="0"/>
        <pt x="201" y="168" on="0"/>
        <pt x="237" y="127" on="0"/>
        <pt x="298" y="111" on="0"/>
        <pt x="343" y="111" on="1"/>
        <pt x="346" y="111" on="0"/>
        <pt x="359" y="111" on="0"/>
        <pt x="374" y="112" on="0"/>
        <pt x="388" y="113" on="0"/>
        <pt x="392" y="114" on="1"/>
        <pt x="392" y="293" on="1"/>
        <pt x="525" y="293" on="1"/>
        <pt x="525" y="12" on="1"/>
        <pt x="407" y="-8" on="0"/>
      </contour>
      <contour>
        <pt x="250" y="-54" on="1"/>
        <pt x="396" y="-54" on="1"/>
        <pt x="320" y="-172" on="1"/>
        <pt x="212" y="-172" on="1"/>
      </contour>
    </TTGlyph>
    <TTGlyph name="Gdotaccent" xMin="34" yMin="-10" xMax="574" yMax="964">
      <contour>
        <pt x="349" y="800" on="1"/>
        <pt x="304" y="800" on="0"/>
        <pt x="265" y="838" on="0"/>
        <pt x="265" y="882" on="1"/>
        <pt x="265" y="926" on="0"/>
        <pt x="304" y="964" on="0"/>
        <pt x="349" y="964" on="1"/>
        <pt x="393" y="964" on="0"/>
        <pt x="434" y="925" on="0"/>
        <pt x="434" y="882" on="1"/>
        <pt x="434" y="839" on="0"/>
        <pt x="393" y="800" on="0"/>
      </contour>
      <contour>
        <pt x="362" y="-10" on="1"/>
        <pt x="195" y="-10" on="0"/>
        <pt x="34" y="177" on="0"/>
        <pt x="34" y="369" on="1"/>
        <pt x="34" y="563" on="0"/>
        <pt x="209" y="750" on="0"/>
        <pt x="390" y="750" on="1"/>
        <pt x="430" y="750" on="0"/>
        <pt x="522" y="739" on="0"/>
        <pt x="565" y="728" on="1"/>
        <pt x="565" y="605" on="1"/>
        <pt x="463" y="623" on="0"/>
        <pt x="404" y="623" on="1"/>
        <pt x="344" y="623" on="0"/>
        <pt x="264" y="597" on="0"/>
        <pt x="214" y="537" on="0"/>
        <pt x="193" y="440" on="0"/>
        <pt x="193" y="369" on="1"/>
        <pt x="193" y="298" on="0"/>
        <pt x="212" y="201" on="0"/>
        <pt x="255" y="142" on="0"/>
        <pt x="325" y="117" on="0"/>
        <pt x="376" y="117" on="1"/>
        <pt x="402" y="117" on="0"/>
        <pt x="434" y="120" on="1"/>
        <pt x="434" y="376" on="1"/>
        <pt x="574" y="376" on="1"/>
        <pt x="574" y="13" on="1"/>
        <pt x="509" y="2" on="0"/>
        <pt x="406" y="-10" on="0"/>
      </contour>
    </TTGlyph>
    <TTGlyph name="Gdotaccent.sc" xMin="34" yMin="-8" xMax="525" yMax="773">
      <contour>
        <pt x="330" y="-8" on="1"/>
        <pt x="179" y="-8" on="0"/>
        <pt x="34" y="138" on="0"/>
        <pt x="34" y="288" on="1"/>
        <pt x="34" y="438" on="0"/>
        <pt x="192" y="586" on="0"/>
        <pt x="355" y="586" on="1"/>
        <pt x="393" y="586" on="0"/>
        <pt x="478" y="576" on="0"/>
        <pt x="517" y="568" on="1"/>
        <pt x="517" y="452" on="1"/>
        <pt x="469" y="460" on="0"/>
        <pt x="397" y="467" on="0"/>
        <pt x="369" y="467" on="1"/>
        <pt x="316" y="467" on="0"/>
        <pt x="245" y="450" on="0"/>
        <pt x="203" y="408" on="0"/>
        <pt x="185" y="339" on="0"/>
        <pt x="185" y="288" on="1"/>
        <pt x="185" y="236" on="0"/>
        <pt x="201" y="168" on="0"/>
        <pt x="237" y="127" on="0"/>
        <pt x="298" y="111" on="0"/>
        <pt x="343" y="111" on="1"/>
        <pt x="346" y="111" on="0"/>
        <pt x="359" y="111" on="0"/>
        <pt x="374" y="112" on="0"/>
        <pt x="388" y="113" on="0"/>
        <pt x="392" y="114" on="1"/>
        <pt x="392" y="293" on="1"/>
        <pt x="525" y="293" on="1"/>
        <pt x="525" y="12" on="1"/>
        <pt x="407" y="-8" on="0"/>
      </contour>
      <contour>
        <pt x="318" y="622" on="1"/>
        <pt x="276" y="622" on="0"/>
        <pt x="239" y="658" on="0"/>
        <pt x="239" y="699" on="1"/>
        <pt x="239" y="738" on="0"/>
        <pt x="276" y="773" on="0"/>
        <pt x="318" y="773" on="1"/>
        <pt x="360" y="773" on="0"/>
        <pt x="398" y="738" on="0"/>
        <pt x="398" y="699" on="1"/>
        <pt x="398" y="622" on="0"/>
      </contour>
    </TTGlyph>
    <TTGlyph name="H" xMin="64" yMin="0" xMax="650" yMax="740">
      <contour>
        <pt x="64" y="740" on="1"/>
        <pt x="218" y="740" on="1"/>
        <pt x="218" y="442" on="1"/>
        <pt x="495" y="442" on="1"/>
        <pt x="495" y="740" on="1"/>
        <pt x="650" y="740" on="1"/>
        <pt x="650" y="0" on="1"/>
        <pt x="495" y="0" on="1"/>
        <pt x="495" y="315" on="1"/>
        <pt x="218" y="315" on="1"/>
        <pt x="218" y="0" on="1"/>
        <pt x="64" y="0" on="1"/>
      </contour>
    </TTGlyph>
    <TTGlyph name="H.sc" xMin="61" yMin="0" xMax="597" yMax="577">
      <contour>
        <pt x="61" y="577" on="1"/>
        <pt x="207" y="577" on="1"/>
        <pt x="207" y="354" on="1"/>
        <pt x="450" y="354" on="1"/>
        <pt x="450" y="577" on="1"/>
        <pt x="597" y="577" on="1"/>
        <pt x="597" y="0" on="1"/>
        <pt x="450" y="0" on="1"/>
        <pt x="450" y="236" on="1"/>
        <pt x="207" y="236" on="1"/>
        <pt x="207" y="0" on="1"/>
        <pt x="61" y="0" on="1"/>
      </contour>
    </TTGlyph>
    <TTGlyph name="Hbar" xMin="1" yMin="0" xMax="742" yMax="740">
      <contour>
        <pt x="1" y="613" on="1"/>
        <pt x="75" y="613" on="1"/>
        <pt x="75" y="740" on="1"/>
        <pt x="229" y="740" on="1"/>
        <pt x="229" y="613" on="1"/>
        <pt x="506" y="613" on="1"/>
        <pt x="506" y="740" on="1"/>
        <pt x="661" y="740" on="1"/>
        <pt x="661" y="613" on="1"/>
        <pt x="742" y="613" on="1"/>
        <pt x="742" y="540" on="1"/>
        <pt x="661" y="540" on="1"/>
        <pt x="661" y="0" on="1"/>
        <pt x="506" y="0" on="1"/>
        <pt x="506" y="315" on="1"/>
        <pt x="229" y="315" on="1"/>
        <pt x="229" y="0" on="1"/>
        <pt x="75" y="0" on="1"/>
        <pt x="75" y="540" on="1"/>
        <pt x="1" y="540" on="1"/>
      </contour>
      <contour>
        <pt x="506" y="442" on="1"/>
        <pt x="506" y="540" on="1"/>
        <pt x="229" y="540" on="1"/>
        <pt x="229" y="442" on="1"/>
      </contour>
    </TTGlyph>
    <TTGlyph name="Hbar.sc" xMin="7" yMin="0" xMax="676" yMax="577">
      <contour>
        <pt x="7" y="485" on="1"/>
        <pt x="71" y="485" on="1"/>
        <pt x="71" y="577" on="1"/>
        <pt x="217" y="577" on="1"/>
        <pt x="217" y="485" on="1"/>
        <pt x="460" y="485" on="1"/>
        <pt x="460" y="577" on="1"/>
        <pt x="606" y="577" on="1"/>
        <pt x="606" y="485" on="1"/>
        <pt x="676" y="485" on="1"/>
        <pt x="676" y="419" on="1"/>
        <pt x="606" y="419" on="1"/>
        <pt x="606" y="0" on="1"/>
        <pt x="460" y="0" on="1"/>
        <pt x="460" y="233" on="1"/>
        <pt x="217" y="233" on="1"/>
        <pt x="217" y="0" on="1"/>
        <pt x="71" y="0" on="1"/>
        <pt x="71" y="419" on="1"/>
        <pt x="7" y="419" on="1"/>
      </contour>
      <contour>
        <pt x="460" y="351" on="1"/>
        <pt x="460" y="419" on="1"/>
        <pt x="217" y="419" on="1"/>
        <pt x="217" y="351" on="1"/>
      </contour>
    </TTGlyph>
    <TTGlyph name="Hcircumflex" xMin="64" yMin="0" xMax="650" yMax="975">
      <contour>
        <pt x="64" y="740" on="1"/>
        <pt x="218" y="740" on="1"/>
        <pt x="218" y="442" on="1"/>
        <pt x="495" y="442" on="1"/>
        <pt x="495" y="740" on="1"/>
        <pt x="650" y="740" on="1"/>
        <pt x="650" y="0" on="1"/>
        <pt x="495" y="0" on="1"/>
        <pt x="495" y="315" on="1"/>
        <pt x="218" y="315" on="1"/>
        <pt x="218" y="0" on="1"/>
        <pt x="64" y="0" on="1"/>
      </contour>
      <contour>
        <pt x="184" y="901" on="1"/>
        <pt x="354" y="975" on="1"/>
        <pt x="523" y="901" on="1"/>
        <pt x="523" y="798" on="1"/>
        <pt x="354" y="871" on="1"/>
        <pt x="184" y="798" on="1"/>
      </contour>
    </TTGlyph>
    <TTGlyph name="Hcircumflex.sc" xMin="61" yMin="0" xMax="597" yMax="771">
      <contour>
        <pt x="61" y="577" on="1"/>
        <pt x="207" y="577" on="1"/>
        <pt x="207" y="354" on="1"/>
        <pt x="450" y="354" on="1"/>
        <pt x="450" y="577" on="1"/>
        <pt x="597" y="577" on="1"/>
        <pt x="597" y="0" on="1"/>
        <pt x="450" y="0" on="1"/>
        <pt x="450" y="236" on="1"/>
        <pt x="207" y="236" on="1"/>
        <pt x="207" y="0" on="1"/>
        <pt x="61" y="0" on="1"/>
      </contour>
      <contour>
        <pt x="171" y="713" on="1"/>
        <pt x="326" y="771" on="1"/>
        <pt x="482" y="713" on="1"/>
        <pt x="482" y="618" on="1"/>
        <pt x="327" y="676" on="1"/>
        <pt x="171" y="618" on="1"/>
      </contour>
    </TTGlyph>
    <TTGlyph name="Hdotbelow" xMin="64" yMin="-203" xMax="650" yMax="740">
      <contour>
        <pt x="64" y="740" on="1"/>
        <pt x="218" y="740" on="1"/>
        <pt x="218" y="442" on="1"/>
        <pt x="495" y="442" on="1"/>
        <pt x="495" y="740" on="1"/>
        <pt x="650" y="740" on="1"/>
        <pt x="650" y="0" on="1"/>
        <pt x="495" y="0" on="1"/>
        <pt x="495" y="315" on="1"/>
        <pt x="218" y="315" on="1"/>
        <pt x="218" y="0" on="1"/>
        <pt x="64" y="0" on="1"/>
      </contour>
      <contour>
        <pt x="358" y="-203" on="1"/>
        <pt x="322" y="-203" on="0"/>
        <pt x="290" y="-171" on="0"/>
        <pt x="290" y="-136" on="1"/>
        <pt x="290" y="-101" on="0"/>
        <pt x="322" y="-70" on="0"/>
        <pt x="358" y="-70" on="1"/>
        <pt x="394" y="-70" on="0"/>
        <pt x="427" y="-101" on="0"/>
        <pt x="427" y="-136" on="1"/>
        <pt x="427" y="-171" on="0"/>
        <pt x="394" y="-203" on="0"/>
      </contour>
    </TTGlyph>
    <TTGlyph name="Hdotbelow.sc" xMin="61" yMin="-166" xMax="597" yMax="577">
      <contour>
        <pt x="61" y="577" on="1"/>
        <pt x="207" y="577" on="1"/>
        <pt x="207" y="354" on="1"/>
        <pt x="450" y="354" on="1"/>
        <pt x="450" y="577" on="1"/>
        <pt x="597" y="577" on="1"/>
        <pt x="597" y="0" on="1"/>
        <pt x="450" y="0" on="1"/>
        <pt x="450" y="236" on="1"/>
        <pt x="207" y="236" on="1"/>
        <pt x="207" y="0" on="1"/>
        <pt x="61" y="0" on="1"/>
      </contour>
      <contour>
        <pt x="330" y="-166" on="1"/>
        <pt x="296" y="-166" on="0"/>
        <pt x="267" y="-139" on="0"/>
        <pt x="267" y="-108" on="1"/>
        <pt x="267" y="-77" on="0"/>
        <pt x="296" y="-50" on="0"/>
        <pt x="330" y="-50" on="1"/>
        <pt x="363" y="-50" on="0"/>
        <pt x="393" y="-77" on="0"/>
        <pt x="393" y="-108" on="1"/>
        <pt x="393" y="-139" on="0"/>
        <pt x="363" y="-166" on="0"/>
      </contour>
    </TTGlyph>
    <TTGlyph name="I" xMin="64" yMin="0" xMax="218" yMax="740">
      <contour>
        <pt x="64" y="740" on="1"/>
        <pt x="218" y="740" on="1"/>
        <pt x="218" y="0" on="1"/>
        <pt x="64" y="0" on="1"/>
      </contour>
    </TTGlyph>
    <TTGlyph name="I.sc" xMin="61" yMin="0" xMax="207" yMax="577">
      <contour>
        <pt x="61" y="577" on="1"/>
        <pt x="207" y="577" on="1"/>
        <pt x="207" y="0" on="1"/>
        <pt x="61" y="0" on="1"/>
      </contour>
    </TTGlyph>
    <TTGlyph name="IJ" xMin="64" yMin="-204" xMax="503" yMax="740">
      <contour>
        <pt x="64" y="740" on="1"/>
        <pt x="218" y="740" on="1"/>
        <pt x="218" y="0" on="1"/>
        <pt x="64" y="0" on="1"/>
      </contour>
      <contour>
        <pt x="271" y="-159" on="1"/>
        <pt x="293" y="-108" on="0"/>
        <pt x="323" y="-25" on="0"/>
        <pt x="341" y="56" on="0"/>
        <pt x="348" y="141" on="0"/>
        <pt x="348" y="193" on="1"/>
        <pt x="348" y="740" on="1"/>
        <pt x="503" y="740" on="1"/>
        <pt x="503" y="181" on="1"/>
        <pt x="503" y="130" on="0"/>
        <pt x="489" y="38" on="0"/>
        <pt x="457" y="-54" on="0"/>
        <pt x="406" y="-149" on="0"/>
        <pt x="369" y="-204" on="1"/>
      </contour>
    </TTGlyph>
    <TTGlyph name="Iacute" xMin="64" yMin="0" xMax="304" yMax="970">
      <contour>
        <pt x="64" y="740" on="1"/>
        <pt x="218" y="740" on="1"/>
        <pt x="218" y="0" on="1"/>
        <pt x="64" y="0" on="1"/>
      </contour>
      <contour>
        <pt x="81" y="801" on="1"/>
        <pt x="149" y="970" on="1"/>
        <pt x="304" y="970" on="1"/>
        <pt x="191" y="793" on="1"/>
      </contour>
    </TTGlyph>
    <TTGlyph name="Iacute.sc" xMin="61" yMin="0" xMax="284" yMax="769">
      <contour>
        <pt x="61" y="577" on="1"/>
        <pt x="207" y="577" on="1"/>
        <pt x="207" y="0" on="1"/>
        <pt x="61" y="0" on="1"/>
      </contour>
      <contour>
        <pt x="78" y="627" on="1"/>
        <pt x="138" y="769" on="1"/>
        <pt x="284" y="769" on="1"/>
        <pt x="181" y="620" on="1"/>
      </contour>
    </TTGlyph>
    <TTGlyph name="Ibreve" xMin="-45" yMin="0" xMax="330" yMax="973">
      <contour>
        <pt x="64" y="740" on="1"/>
        <pt x="218" y="740" on="1"/>
        <pt x="218" y="0" on="1"/>
        <pt x="64" y="0" on="1"/>
      </contour>
      <contour>
        <pt x="143" y="801" on="1"/>
        <pt x="47" y="801" on="0"/>
        <pt x="-45" y="895" on="0"/>
        <pt x="-45" y="973" on="1"/>
        <pt x="59" y="973" on="1"/>
        <pt x="59" y="922" on="0"/>
        <pt x="96" y="875" on="0"/>
        <pt x="143" y="875" on="1"/>
        <pt x="188" y="875" on="0"/>
        <pt x="226" y="922" on="0"/>
        <pt x="226" y="973" on="1"/>
        <pt x="330" y="973" on="1"/>
        <pt x="330" y="895" on="0"/>
        <pt x="237" y="801" on="0"/>
      </contour>
    </TTGlyph>
    <TTGlyph name="Ibreve.sc" xMin="-37" yMin="0" xMax="306" yMax="765">
      <contour>
        <pt x="61" y="577" on="1"/>
        <pt x="207" y="577" on="1"/>
        <pt x="207" y="0" on="1"/>
        <pt x="61" y="0" on="1"/>
      </contour>
      <contour>
        <pt x="135" y="623" on="1"/>
        <pt x="45" y="623" on="0"/>
        <pt x="-37" y="701" on="0"/>
        <pt x="-37" y="765" on="1"/>
        <pt x="60" y="765" on="1"/>
        <pt x="60" y="724" on="0"/>
        <pt x="93" y="689" on="0"/>
        <pt x="135" y="689" on="1"/>
        <pt x="177" y="689" on="0"/>
        <pt x="209" y="724" on="0"/>
        <pt x="209" y="765" on="1"/>
        <pt x="306" y="765" on="1"/>
        <pt x="306" y="700" on="0"/>
        <pt x="223" y="623" on="0"/>
      </contour>
    </TTGlyph>
    <TTGlyph name="Icircumflex" xMin="-27" yMin="0" xMax="312" yMax="975">
      <contour>
        <pt x="64" y="740" on="1"/>
        <pt x="218" y="740" on="1"/>
        <pt x="218" y="0" on="1"/>
        <pt x="64" y="0" on="1"/>
      </contour>
      <contour>
        <pt x="-27" y="901" on="1"/>
        <pt x="143" y="975" on="1"/>
        <pt x="312" y="901" on="1"/>
        <pt x="312" y="798" on="1"/>
        <pt x="143" y="871" on="1"/>
        <pt x="-27" y="798" on="1"/>
      </contour>
    </TTGlyph>
    <TTGlyph name="Icircumflex.sc" xMin="-20" yMin="0" xMax="291" yMax="771">
      <contour>
        <pt x="61" y="577" on="1"/>
        <pt x="207" y="577" on="1"/>
        <pt x="207" y="0" on="1"/>
        <pt x="61" y="0" on="1"/>
      </contour>
      <contour>
        <pt x="-20" y="713" on="1"/>
        <pt x="135" y="771" on="1"/>
        <pt x="291" y="713" on="1"/>
        <pt x="291" y="618" on="1"/>
        <pt x="136" y="676" on="1"/>
        <pt x="-20" y="618" on="1"/>
      </contour>
    </TTGlyph>
    <TTGlyph name="Idblgrave" xMin="-100" yMin="0" xMax="289" yMax="969">
      <contour>
        <pt x="64" y="740" on="1"/>
        <pt x="218" y="740" on="1"/>
        <pt x="218" y="0" on="1"/>
        <pt x="64" y="0" on="1"/>
      </contour>
      <contour>
        <pt x="13" y="792" on="1"/>
        <pt x="-100" y="969" on="1"/>
        <pt x="34" y="969" on="1"/>
        <pt x="102" y="803" on="1"/>
      </contour>
      <contour>
        <pt x="200" y="792" on="1"/>
        <pt x="86" y="969" on="1"/>
        <pt x="221" y="969" on="1"/>
        <pt x="289" y="803" on="1"/>
      </contour>
    </TTGlyph>
    <TTGlyph name="Idblgrave.sc" xMin="-87" yMin="0" xMax="272" yMax="769">
      <contour>
        <pt x="61" y="577" on="1"/>
        <pt x="207" y="577" on="1"/>
        <pt x="207" y="0" on="1"/>
        <pt x="61" y="0" on="1"/>
      </contour>
      <contour>
        <pt x="16" y="620" on="1"/>
        <pt x="-87" y="769" on="1"/>
        <pt x="42" y="769" on="1"/>
        <pt x="101" y="628" on="1"/>
      </contour>
      <contour>
        <pt x="187" y="620" on="1"/>
        <pt x="84" y="769" on="1"/>
        <pt x="212" y="769" on="1"/>
        <pt x="272" y="628" on="1"/>
      </contour>
    </TTGlyph>
    <TTGlyph name="Idieresis" xMin="-68" yMin="0" xMax="354" yMax="968">
      <contour>
        <pt x="64" y="740" on="1"/>
        <pt x="218" y="740" on="1"/>
        <pt x="218" y="0" on="1"/>
        <pt x="64" y="0" on="1"/>
      </contour>
      <contour>
        <pt x="16" y="803" on="1"/>
        <pt x="-29" y="803" on="0"/>
        <pt x="-68" y="842" on="0"/>
        <pt x="-68" y="886" on="1"/>
        <pt x="-68" y="930" on="0"/>
        <pt x="-29" y="968" on="0"/>
        <pt x="16" y="968" on="1"/>
        <pt x="60" y="968" on="0"/>
        <pt x="101" y="929" on="0"/>
        <pt x="101" y="886" on="1"/>
        <pt x="101" y="842" on="0"/>
        <pt x="60" y="803" on="0"/>
      </contour>
      <contour>
        <pt x="269" y="803" on="1"/>
        <pt x="224" y="803" on="0"/>
        <pt x="185" y="842" on="0"/>
        <pt x="185" y="886" on="1"/>
        <pt x="185" y="930" on="0"/>
        <pt x="224" y="968" on="0"/>
        <pt x="269" y="968" on="1"/>
        <pt x="313" y="968" on="0"/>
        <pt x="354" y="929" on="0"/>
        <pt x="354" y="886" on="1"/>
        <pt x="354" y="842" on="0"/>
        <pt x="313" y="803" on="0"/>
      </contour>
    </TTGlyph>
    <TTGlyph name="Idieresis.sc" xMin="-59" yMin="0" xMax="330" yMax="775">
      <contour>
        <pt x="61" y="577" on="1"/>
        <pt x="207" y="577" on="1"/>
        <pt x="207" y="0" on="1"/>
        <pt x="61" y="0" on="1"/>
      </contour>
      <contour>
        <pt x="20" y="624" on="1"/>
        <pt x="-22" y="624" on="0"/>
        <pt x="-59" y="659" on="0"/>
        <pt x="-59" y="699" on="1"/>
        <pt x="-59" y="739" on="0"/>
        <pt x="-22" y="775" on="0"/>
        <pt x="20" y="775" on="1"/>
        <pt x="62" y="775" on="0"/>
        <pt x="99" y="738" on="0"/>
        <pt x="99" y="699" on="1"/>
        <pt x="99" y="660" on="0"/>
        <pt x="62" y="624" on="0"/>
      </contour>
      <contour>
        <pt x="251" y="624" on="1"/>
        <pt x="209" y="624" on="0"/>
        <pt x="172" y="659" on="0"/>
        <pt x="172" y="699" on="1"/>
        <pt x="172" y="739" on="0"/>
        <pt x="209" y="775" on="0"/>
        <pt x="251" y="775" on="1"/>
        <pt x="293" y="775" on="0"/>
        <pt x="330" y="738" on="0"/>
        <pt x="330" y="699" on="1"/>
        <pt x="330" y="660" on="0"/>
        <pt x="293" y="624" on="0"/>
      </contour>
    </TTGlyph>
    <TTGlyph name="Idotaccent" xMin="58" yMin="0" xMax="227" yMax="964">
      <contour>
        <pt x="64" y="740" on="1"/>
        <pt x="218" y="740" on="1"/>
        <pt x="218" y="0" on="1"/>
        <pt x="64" y="0" on="1"/>
      </contour>
      <contour>
        <pt x="142" y="800" on="1"/>
        <pt x="97" y="800" on="0"/>
        <pt x="58" y="838" on="0"/>
        <pt x="58" y="882" on="1"/>
        <pt x="58" y="926" on="0"/>
        <pt x="97" y="964" on="0"/>
        <pt x="142" y="964" on="1"/>
        <pt x="186" y="964" on="0"/>
        <pt x="227" y="925" on="0"/>
        <pt x="227" y="882" on="1"/>
        <pt x="227" y="839" on="0"/>
        <pt x="186" y="800" on="0"/>
      </contour>
    </TTGlyph>
    <TTGlyph name="Idotaccent.sc" xMin="56" yMin="0" xMax="214" yMax="773">
      <contour>
        <pt x="61" y="577" on="1"/>
        <pt x="207" y="577" on="1"/>
        <pt x="207" y="0" on="1"/>
        <pt x="61" y="0" on="1"/>
      </contour>
      <contour>
        <pt x="135" y="622" on="1"/>
        <pt x="93" y="622" on="0"/>
        <pt x="56" y="658" on="0"/>
        <pt x="56" y="699" on="1"/>
        <pt x="56" y="738" on="0"/>
        <pt x="93" y="773" on="0"/>
        <pt x="135" y="773" on="1"/>
        <pt x="177" y="773" on="0"/>
        <pt x="214" y="738" on="0"/>
        <pt x="214" y="699" on="1"/>
        <pt x="214" y="659" on="0"/>
        <pt x="177" y="622" on="0"/>
      </contour>
    </TTGlyph>
    <TTGlyph name="Idotbelow" xMin="64" yMin="-203" xMax="218" yMax="740">
      <contour>
        <pt x="64" y="740" on="1"/>
        <pt x="218" y="740" on="1"/>
        <pt x="218" y="0" on="1"/>
        <pt x="64" y="0" on="1"/>
      </contour>
      <contour>
        <pt x="141" y="-203" on="1"/>
        <pt x="105" y="-203" on="0"/>
        <pt x="73" y="-171" on="0"/>
        <pt x="73" y="-136" on="1"/>
        <pt x="73" y="-101" on="0"/>
        <pt x="105" y="-70" on="0"/>
        <pt x="141" y="-70" on="1"/>
        <pt x="177" y="-70" on="0"/>
        <pt x="210" y="-101" on="0"/>
        <pt x="210" y="-136" on="1"/>
        <pt x="210" y="-171" on="0"/>
        <pt x="177" y="-203" on="0"/>
      </contour>
    </TTGlyph>
    <TTGlyph name="Idotbelow.sc" xMin="61" yMin="-166" xMax="207" yMax="577">
      <contour>
        <pt x="61" y="577" on="1"/>
        <pt x="207" y="577" on="1"/>
        <pt x="207" y="0" on="1"/>
        <pt x="61" y="0" on="1"/>
      </contour>
      <contour>
        <pt x="135" y="-166" on="1"/>
        <pt x="101" y="-166" on="0"/>
        <pt x="72" y="-139" on="0"/>
        <pt x="72" y="-108" on="1"/>
        <pt x="72" y="-77" on="0"/>
        <pt x="101" y="-50" on="0"/>
        <pt x="135" y="-50" on="1"/>
        <pt x="168" y="-50" on="0"/>
        <pt x="198" y="-77" on="0"/>
        <pt x="198" y="-108" on="1"/>
        <pt x="198" y="-139" on="0"/>
        <pt x="168" y="-166" on="0"/>
      </contour>
    </TTGlyph>
    <TTGlyph name="Igrave" xMin="-25" yMin="0" xMax="218" yMax="970">
      <contour>
        <pt x="64" y="740" on="1"/>
        <pt x="218" y="740" on="1"/>
        <pt x="218" y="0" on="1"/>
        <pt x="64" y="0" on="1"/>
      </contour>
      <contour>
        <pt x="89" y="793" on="1"/>
        <pt x="-25" y="970" on="1"/>
        <pt x="131" y="970" on="1"/>
        <pt x="198" y="804" on="1"/>
      </contour>
    </TTGlyph>
    <TTGlyph name="Igrave.sc" xMin="-17" yMin="0" xMax="207" yMax="769">
      <contour>
        <pt x="61" y="577" on="1"/>
        <pt x="207" y="577" on="1"/>
        <pt x="207" y="0" on="1"/>
        <pt x="61" y="0" on="1"/>
      </contour>
      <contour>
        <pt x="86" y="620" on="1"/>
        <pt x="-17" y="769" on="1"/>
        <pt x="129" y="769" on="1"/>
        <pt x="189" y="628" on="1"/>
      </contour>
    </TTGlyph>
    <TTGlyph name="Iinvertedbreve" xMin="-44" yMin="0" xMax="330" yMax="982">
      <contour>
        <pt x="64" y="740" on="1"/>
        <pt x="218" y="740" on="1"/>
        <pt x="218" y="0" on="1"/>
        <pt x="64" y="0" on="1"/>
      </contour>
      <contour>
        <pt x="226" y="811" on="1"/>
        <pt x="226" y="862" on="0"/>
        <pt x="188" y="908" on="0"/>
        <pt x="143" y="908" on="1"/>
        <pt x="96" y="908" on="0"/>
        <pt x="59" y="862" on="0"/>
        <pt x="59" y="811" on="1"/>
        <pt x="-44" y="811" on="1"/>
        <pt x="-44" y="889" on="0"/>
        <pt x="47" y="982" on="0"/>
        <pt x="143" y="982" on="1"/>
        <pt x="237" y="982" on="0"/>
        <pt x="330" y="889" on="0"/>
        <pt x="330" y="811" on="1"/>
      </contour>
    </TTGlyph>
    <TTGlyph name="Iinvertedbreve.sc" xMin="-36" yMin="0" xMax="308" yMax="773">
      <contour>
        <pt x="61" y="577" on="1"/>
        <pt x="207" y="577" on="1"/>
        <pt x="207" y="0" on="1"/>
        <pt x="61" y="0" on="1"/>
      </contour>
      <contour>
        <pt x="210" y="631" on="1"/>
        <pt x="210" y="671" on="0"/>
        <pt x="178" y="706" on="0"/>
        <pt x="136" y="706" on="1"/>
        <pt x="94" y="706" on="0"/>
        <pt x="61" y="671" on="0"/>
        <pt x="61" y="631" on="1"/>
        <pt x="-36" y="631" on="1"/>
        <pt x="-36" y="695" on="0"/>
        <pt x="47" y="773" on="0"/>
        <pt x="136" y="773" on="1"/>
        <pt x="224" y="773" on="0"/>
        <pt x="308" y="696" on="0"/>
        <pt x="308" y="631" on="1"/>
      </contour>
    </TTGlyph>
    <TTGlyph name="Imacron" xMin="-25" yMin="0" xMax="307" yMax="941">
      <contour>
        <pt x="64" y="740" on="1"/>
        <pt x="218" y="740" on="1"/>
        <pt x="218" y="0" on="1"/>
        <pt x="64" y="0" on="1"/>
      </contour>
      <contour>
        <pt x="-25" y="941" on="1"/>
        <pt x="307" y="941" on="1"/>
        <pt x="307" y="839" on="1"/>
        <pt x="-25" y="839" on="1"/>
      </contour>
    </TTGlyph>
    <TTGlyph name="Imacron.sc" xMin="-18" yMin="0" xMax="288" yMax="748">
      <contour>
        <pt x="61" y="577" on="1"/>
        <pt x="207" y="577" on="1"/>
        <pt x="207" y="0" on="1"/>
        <pt x="61" y="0" on="1"/>
      </contour>
      <contour>
        <pt x="-18" y="748" on="1"/>
        <pt x="288" y="748" on="1"/>
        <pt x="288" y="654" on="1"/>
        <pt x="-18" y="654" on="1"/>
      </contour>
    </TTGlyph>
    <TTGlyph name="Iogonek" xMin="11" yMin="-220" xMax="219" yMax="740">
      <contour>
        <pt x="64" y="740" on="1"/>
        <pt x="218" y="740" on="1"/>
        <pt x="218" y="-10" on="1"/>
        <pt x="159" y="-33" on="0"/>
        <pt x="110" y="-86" on="0"/>
        <pt x="110" y="-107" on="1"/>
        <pt x="110" y="-133" on="0"/>
        <pt x="147" y="-133" on="1"/>
        <pt x="163" y="-133" on="0"/>
        <pt x="202" y="-126" on="0"/>
        <pt x="219" y="-121" on="1"/>
        <pt x="219" y="-208" on="1"/>
        <pt x="198" y="-214" on="0"/>
        <pt x="159" y="-220" on="0"/>
        <pt x="136" y="-220" on="1"/>
        <pt x="11" y="-220" on="0"/>
        <pt x="11" y="-124" on="1"/>
        <pt x="11" y="-89" on="0"/>
        <pt x="50" y="-30" on="0"/>
        <pt x="94" y="0" on="1"/>
        <pt x="64" y="0" on="1"/>
      </contour>
    </TTGlyph>
    <TTGlyph name="Iogonek.sc" xMin="17" yMin="-172" xMax="208" yMax="577">
      <contour>
        <pt x="62" y="577" on="1"/>
        <pt x="207" y="577" on="1"/>
        <pt x="207" y="-5" on="1"/>
        <pt x="150" y="-26" on="0"/>
        <pt x="109" y="-64" on="0"/>
        <pt x="109" y="-76" on="1"/>
        <pt x="109" y="-92" on="0"/>
        <pt x="142" y="-92" on="1"/>
        <pt x="156" y="-92" on="0"/>
        <pt x="194" y="-86" on="0"/>
        <pt x="208" y="-83" on="1"/>
        <pt x="208" y="-162" on="1"/>
        <pt x="188" y="-167" on="0"/>
        <pt x="152" y="-172" on="0"/>
        <pt x="132" y="-172" on="1"/>
        <pt x="75" y="-172" on="0"/>
        <pt x="17" y="-132" on="0"/>
        <pt x="17" y="-94" on="1"/>
        <pt x="17" y="-67" on="0"/>
        <pt x="51" y="-23" on="0"/>
        <pt x="86" y="0" on="1"/>
        <pt x="62" y="0" on="1"/>
      </contour>
    </TTGlyph>
    <TTGlyph name="Itilde" xMin="-50" yMin="0" xMax="352" yMax="955">
      <contour>
        <pt x="64" y="740" on="1"/>
        <pt x="218" y="740" on="1"/>
        <pt x="218" y="0" on="1"/>
        <pt x="64" y="0" on="1"/>
      </contour>
      <contour>
        <pt x="-50" y="844" on="1"/>
        <pt x="-21" y="898" on="0"/>
        <pt x="53" y="955" on="0"/>
        <pt x="88" y="955" on="1"/>
        <pt x="109" y="955" on="0"/>
        <pt x="150" y="942" on="0"/>
        <pt x="189" y="927" on="0"/>
        <pt x="229" y="915" on="0"/>
        <pt x="250" y="915" on="1"/>
        <pt x="270" y="915" on="0"/>
        <pt x="307" y="933" on="0"/>
        <pt x="328" y="954" on="1"/>
        <pt x="352" y="929" on="1"/>
        <pt x="325" y="874" on="0"/>
        <pt x="251" y="818" on="0"/>
        <pt x="214" y="818" on="1"/>
        <pt x="193" y="818" on="0"/>
        <pt x="153" y="830" on="0"/>
        <pt x="113" y="845" on="0"/>
        <pt x="74" y="857" on="0"/>
        <pt x="53" y="857" on="1"/>
        <pt x="33" y="857" on="0"/>
        <pt x="-6" y="840" on="0"/>
        <pt x="-27" y="820" on="1"/>
      </contour>
    </TTGlyph>
    <TTGlyph name="Itilde.sc" xMin="-42" yMin="0" xMax="327" yMax="757">
      <contour>
        <pt x="61" y="577" on="1"/>
        <pt x="207" y="577" on="1"/>
        <pt x="207" y="0" on="1"/>
        <pt x="61" y="0" on="1"/>
      </contour>
      <contour>
        <pt x="-42" y="658" on="1"/>
        <pt x="-16" y="708" on="0"/>
        <pt x="52" y="757" on="0"/>
        <pt x="85" y="757" on="1"/>
        <pt x="104" y="757" on="0"/>
        <pt x="142" y="748" on="0"/>
        <pt x="178" y="737" on="0"/>
        <pt x="215" y="728" on="0"/>
        <pt x="234" y="728" on="1"/>
        <pt x="252" y="728" on="0"/>
        <pt x="286" y="740" on="0"/>
        <pt x="306" y="757" on="1"/>
        <pt x="327" y="737" on="1"/>
        <pt x="301" y="686" on="0"/>
        <pt x="233" y="637" on="0"/>
        <pt x="200" y="637" on="1"/>
        <pt x="181" y="637" on="0"/>
        <pt x="144" y="646" on="0"/>
        <pt x="107" y="658" on="0"/>
        <pt x="70" y="667" on="0"/>
        <pt x="51" y="667" on="1"/>
        <pt x="33" y="667" on="0"/>
        <pt x="-2" y="655" on="0"/>
        <pt x="-22" y="638" on="1"/>
      </contour>
    </TTGlyph>
    <TTGlyph name="J" xMin="-11" yMin="-204" xMax="221" yMax="740">
      <contour>
        <pt x="-11" y="-159" on="1"/>
        <pt x="11" y="-108" on="0"/>
        <pt x="41" y="-25" on="0"/>
        <pt x="59" y="56" on="0"/>
        <pt x="66" y="141" on="0"/>
        <pt x="66" y="193" on="1"/>
        <pt x="66" y="740" on="1"/>
        <pt x="221" y="740" on="1"/>
        <pt x="221" y="181" on="1"/>
        <pt x="221" y="130" on="0"/>
        <pt x="207" y="38" on="0"/>
        <pt x="175" y="-54" on="0"/>
        <pt x="124" y="-149" on="0"/>
        <pt x="87" y="-204" on="1"/>
      </contour>
    </TTGlyph>
    <TTGlyph name="J.sc" xMin="-5" yMin="-165" xMax="209" yMax="577">
      <contour>
        <pt x="-5" y="-124" on="1"/>
        <pt x="15" y="-85" on="0"/>
        <pt x="41" y="-19" on="0"/>
        <pt x="57" y="45" on="0"/>
        <pt x="63" y="113" on="0"/>
        <pt x="63" y="154" on="1"/>
        <pt x="63" y="577" on="1"/>
        <pt x="209" y="577" on="1"/>
        <pt x="209" y="141" on="1"/>
        <pt x="209" y="100" on="0"/>
        <pt x="196" y="28" on="0"/>
        <pt x="168" y="-44" on="0"/>
        <pt x="122" y="-121" on="0"/>
        <pt x="88" y="-165" on="1"/>
      </contour>
    </TTGlyph>
    <TTGlyph name="Jcircumflex" xMin="-25" yMin="-204" xMax="314" yMax="975">
      <contour>
        <pt x="-11" y="-159" on="1"/>
        <pt x="11" y="-108" on="0"/>
        <pt x="41" y="-25" on="0"/>
        <pt x="59" y="56" on="0"/>
        <pt x="66" y="141" on="0"/>
        <pt x="66" y="193" on="1"/>
        <pt x="66" y="740" on="1"/>
        <pt x="221" y="740" on="1"/>
        <pt x="221" y="181" on="1"/>
        <pt x="221" y="130" on="0"/>
        <pt x="207" y="38" on="0"/>
        <pt x="175" y="-54" on="0"/>
        <pt x="124" y="-149" on="0"/>
        <pt x="87" y="-204" on="1"/>
      </contour>
      <contour>
        <pt x="-25" y="901" on="1"/>
        <pt x="145" y="975" on="1"/>
        <pt x="314" y="901" on="1"/>
        <pt x="314" y="798" on="1"/>
        <pt x="145" y="871" on="1"/>
        <pt x="-25" y="798" on="1"/>
      </contour>
    </TTGlyph>
    <TTGlyph name="Jcircumflex.sc" xMin="-18" yMin="-165" xMax="294" yMax="771">
      <contour>
        <pt x="-5" y="-124" on="1"/>
        <pt x="15" y="-85" on="0"/>
        <pt x="41" y="-19" on="0"/>
        <pt x="57" y="45" on="0"/>
        <pt x="63" y="113" on="0"/>
        <pt x="63" y="154" on="1"/>
        <pt x="63" y="577" on="1"/>
        <pt x="209" y="577" on="1"/>
        <pt x="209" y="141" on="1"/>
        <pt x="209" y="100" on="0"/>
        <pt x="196" y="28" on="0"/>
        <pt x="168" y="-44" on="0"/>
        <pt x="122" y="-121" on="0"/>
        <pt x="88" y="-165" on="1"/>
      </contour>
      <contour>
        <pt x="-18" y="713" on="1"/>
        <pt x="138" y="771" on="1"/>
        <pt x="294" y="713" on="1"/>
        <pt x="294" y="618" on="1"/>
        <pt x="138" y="676" on="1"/>
        <pt x="-18" y="618" on="1"/>
      </contour>
    </TTGlyph>
    <TTGlyph name="K" xMin="64" yMin="0" xMax="654" yMax="740">
      <contour>
        <pt x="64" y="740" on="1"/>
        <pt x="218" y="740" on="1"/>
        <pt x="218" y="440" on="1"/>
        <pt x="304" y="440" on="1"/>
        <pt x="463" y="740" on="1"/>
        <pt x="635" y="740" on="1"/>
        <pt x="452" y="410" on="1"/>
        <pt x="402" y="383" on="1"/>
        <pt x="402" y="376" on="1"/>
        <pt x="454" y="350" on="1"/>
        <pt x="654" y="0" on="1"/>
        <pt x="482" y="0" on="1"/>
        <pt x="305" y="313" on="1"/>
        <pt x="218" y="313" on="1"/>
        <pt x="218" y="0" on="1"/>
        <pt x="64" y="0" on="1"/>
      </contour>
    </TTGlyph>
    <TTGlyph name="K.sc" xMin="61" yMin="0" xMax="599" yMax="577">
      <contour>
        <pt x="61" y="577" on="1"/>
        <pt x="207" y="577" on="1"/>
        <pt x="207" y="352" on="1"/>
        <pt x="283" y="352" on="1"/>
        <pt x="420" y="577" on="1"/>
        <pt x="582" y="577" on="1"/>
        <pt x="422" y="321" on="1"/>
        <pt x="371" y="299" on="1"/>
        <pt x="371" y="294" on="1"/>
        <pt x="424" y="272" on="1"/>
        <pt x="599" y="0" on="1"/>
        <pt x="436" y="0" on="1"/>
        <pt x="284" y="234" on="1"/>
        <pt x="207" y="234" on="1"/>
        <pt x="207" y="0" on="1"/>
        <pt x="61" y="0" on="1"/>
      </contour>
    </TTGlyph>
    <TTGlyph name="Kcommaaccent" xMin="64" yMin="-220" xMax="654" yMax="740">
      <contour>
        <pt x="253" y="-69" on="1"/>
        <pt x="408" y="-69" on="1"/>
        <pt x="324" y="-220" on="1"/>
        <pt x="209" y="-220" on="1"/>
      </contour>
      <contour>
        <pt x="64" y="740" on="1"/>
        <pt x="218" y="740" on="1"/>
        <pt x="218" y="440" on="1"/>
        <pt x="304" y="440" on="1"/>
        <pt x="463" y="740" on="1"/>
        <pt x="635" y="740" on="1"/>
        <pt x="452" y="410" on="1"/>
        <pt x="402" y="383" on="1"/>
        <pt x="402" y="376" on="1"/>
        <pt x="454" y="350" on="1"/>
        <pt x="654" y="0" on="1"/>
        <pt x="482" y="0" on="1"/>
        <pt x="305" y="313" on="1"/>
        <pt x="218" y="313" on="1"/>
        <pt x="218" y="0" on="1"/>
        <pt x="64" y="0" on="1"/>
      </contour>
    </TTGlyph>
    <TTGlyph name="Kcommaaccent.sc" xMin="61" yMin="-172" xMax="599" yMax="577">
      <contour>
        <pt x="61" y="577" on="1"/>
        <pt x="207" y="577" on="1"/>
        <pt x="207" y="352" on="1"/>
        <pt x="283" y="352" on="1"/>
        <pt x="420" y="577" on="1"/>
        <pt x="582" y="577" on="1"/>
        <pt x="422" y="321" on="1"/>
        <pt x="371" y="299" on="1"/>
        <pt x="371" y="294" on="1"/>
        <pt x="424" y="272" on="1"/>
        <pt x="599" y="0" on="1"/>
        <pt x="436" y="0" on="1"/>
        <pt x="284" y="234" on="1"/>
        <pt x="207" y="234" on="1"/>
        <pt x="207" y="0" on="1"/>
        <pt x="61" y="0" on="1"/>
      </contour>
      <contour>
        <pt x="237" y="-54" on="1"/>
        <pt x="384" y="-54" on="1"/>
        <pt x="308" y="-172" on="1"/>
        <pt x="200" y="-172" on="1"/>
      </contour>
    </TTGlyph>
    <TTGlyph name="L" xMin="64" yMin="0" xMax="480" yMax="740">
      <contour>
        <pt x="64" y="740" on="1"/>
        <pt x="218" y="740" on="1"/>
        <pt x="218" y="126" on="1"/>
        <pt x="480" y="126" on="1"/>
        <pt x="480" y="0" on="1"/>
        <pt x="64" y="0" on="1"/>
      </contour>
    </TTGlyph>
    <TTGlyph name="L.sc" xMin="61" yMin="0" xMax="443" yMax="577">
      <contour>
        <pt x="61" y="577" on="1"/>
        <pt x="207" y="577" on="1"/>
        <pt x="207" y="118" on="1"/>
        <pt x="443" y="118" on="1"/>
        <pt x="443" y="0" on="1"/>
        <pt x="61" y="0" on="1"/>
      </contour>
    </TTGlyph>
    <TTGlyph name="Lacute" xMin="64" yMin="0" xMax="480" yMax="970">
      <contour>
        <pt x="88" y="801" on="1"/>
        <pt x="156" y="970" on="1"/>
        <pt x="311" y="970" on="1"/>
        <pt x="198" y="793" on="1"/>
      </contour>
      <contour>
        <pt x="64" y="740" on="1"/>
        <pt x="218" y="740" on="1"/>
        <pt x="218" y="126" on="1"/>
        <pt x="480" y="126" on="1"/>
        <pt x="480" y="0" on="1"/>
        <pt x="64" y="0" on="1"/>
      </contour>
    </TTGlyph>
    <TTGlyph name="Lacute.sc" xMin="61" yMin="0" xMax="443" yMax="769">
      <contour>
        <pt x="61" y="577" on="1"/>
        <pt x="207" y="577" on="1"/>
        <pt x="207" y="118" on="1"/>
        <pt x="443" y="118" on="1"/>
        <pt x="443" y="0" on="1"/>
        <pt x="61" y="0" on="1"/>
      </contour>
      <contour>
        <pt x="83" y="627" on="1"/>
        <pt x="143" y="769" on="1"/>
        <pt x="289" y="769" on="1"/>
        <pt x="187" y="620" on="1"/>
      </contour>
    </TTGlyph>
    <TTGlyph name="Lcaron" xMin="64" yMin="0" xMax="502" yMax="788">
      <contour>
        <pt x="382" y="788" on="1"/>
        <pt x="502" y="788" on="1"/>
        <pt x="462" y="560" on="1"/>
        <pt x="382" y="560" on="1"/>
      </contour>
      <contour>
        <pt x="64" y="740" on="1"/>
        <pt x="218" y="740" on="1"/>
        <pt x="218" y="126" on="1"/>
        <pt x="480" y="126" on="1"/>
        <pt x="480" y="0" on="1"/>
        <pt x="64" y="0" on="1"/>
      </contour>
    </TTGlyph>
    <TTGlyph name="Lcaron.sc" xMin="62" yMin="0" xMax="463" yMax="624">
      <contour>
        <pt x="62" y="577" on="1"/>
        <pt x="207" y="577" on="1"/>
        <pt x="207" y="118" on="1"/>
        <pt x="443" y="118" on="1"/>
        <pt x="443" y="0" on="1"/>
        <pt x="62" y="0" on="1"/>
      </contour>
      <contour>
        <pt x="350" y="624" on="1"/>
        <pt x="463" y="624" on="1"/>
        <pt x="426" y="447" on="1"/>
        <pt x="350" y="447" on="1"/>
      </contour>
    </TTGlyph>
    <TTGlyph name="Lcommaaccent" xMin="64" yMin="-220" xMax="480" yMax="740">
      <contour>
        <pt x="196" y="-69" on="1"/>
        <pt x="351" y="-69" on="1"/>
        <pt x="267" y="-220" on="1"/>
        <pt x="152" y="-220" on="1"/>
      </contour>
      <contour>
        <pt x="64" y="740" on="1"/>
        <pt x="218" y="740" on="1"/>
        <pt x="218" y="126" on="1"/>
        <pt x="480" y="126" on="1"/>
        <pt x="480" y="0" on="1"/>
        <pt x="64" y="0" on="1"/>
      </contour>
    </TTGlyph>
    <TTGlyph name="Lcommaaccent.sc" xMin="61" yMin="-172" xMax="443" yMax="577">
      <contour>
        <pt x="61" y="577" on="1"/>
        <pt x="207" y="577" on="1"/>
        <pt x="207" y="118" on="1"/>
        <pt x="443" y="118" on="1"/>
        <pt x="443" y="0" on="1"/>
        <pt x="61" y="0" on="1"/>
      </contour>
      <contour>
        <pt x="177" y="-54" on="1"/>
        <pt x="323" y="-54" on="1"/>
        <pt x="248" y="-172" on="1"/>
        <pt x="139" y="-172" on="1"/>
      </contour>
    </TTGlyph>
    <TTGlyph name="Ldot" xMin="64" yMin="0" xMax="485" yMax="740">
      <contour>
        <pt x="64" y="740" on="1"/>
        <pt x="218" y="740" on="1"/>
        <pt x="218" y="126" on="1"/>
        <pt x="480" y="126" on="1"/>
        <pt x="480" y="0" on="1"/>
        <pt x="64" y="0" on="1"/>
      </contour>
      <contour>
        <pt x="401" y="293" on="1"/>
        <pt x="356" y="293" on="0"/>
        <pt x="316" y="332" on="0"/>
        <pt x="316" y="376" on="1"/>
        <pt x="316" y="420" on="0"/>
        <pt x="356" y="459" on="0"/>
        <pt x="401" y="459" on="1"/>
        <pt x="445" y="459" on="0"/>
        <pt x="485" y="420" on="0"/>
        <pt x="485" y="376" on="1"/>
        <pt x="485" y="333" on="0"/>
        <pt x="445" y="293" on="0"/>
      </contour>
    </TTGlyph>
    <TTGlyph name="Ldot.sc" xMin="61" yMin="0" xMax="451" yMax="577">
      <contour>
        <pt x="61" y="577" on="1"/>
        <pt x="207" y="577" on="1"/>
        <pt x="207" y="118" on="1"/>
        <pt x="443" y="118" on="1"/>
        <pt x="443" y="0" on="1"/>
        <pt x="61" y="0" on="1"/>
      </contour>
      <contour>
        <pt x="372" y="220" on="1"/>
        <pt x="330" y="220" on="0"/>
        <pt x="293" y="256" on="0"/>
        <pt x="293" y="296" on="1"/>
        <pt x="293" y="336" on="0"/>
        <pt x="330" y="371" on="0"/>
        <pt x="372" y="371" on="1"/>
        <pt x="414" y="371" on="0"/>
        <pt x="451" y="336" on="0"/>
        <pt x="451" y="296" on="1"/>
        <pt x="451" y="256" on="0"/>
        <pt x="414" y="220" on="0"/>
      </contour>
    </TTGlyph>
    <TTGlyph name="Lslash" xMin="9" yMin="0" xMax="498" yMax="740">
      <contour>
        <pt x="9" y="339" on="1"/>
        <pt x="82" y="382" on="1"/>
        <pt x="82" y="740" on="1"/>
        <pt x="236" y="740" on="1"/>
        <pt x="236" y="472" on="1"/>
        <pt x="350" y="539" on="1"/>
        <pt x="350" y="425" on="1"/>
        <pt x="236" y="358" on="1"/>
        <pt x="236" y="126" on="1"/>
        <pt x="498" y="126" on="1"/>
        <pt x="498" y="0" on="1"/>
        <pt x="82" y="0" on="1"/>
        <pt x="82" y="268" on="1"/>
        <pt x="9" y="225" on="1"/>
      </contour>
    </TTGlyph>
    <TTGlyph name="Lslash.sc" xMin="14" yMin="0" xMax="459" yMax="577">
      <contour>
        <pt x="14" y="280" on="1"/>
        <pt x="77" y="315" on="1"/>
        <pt x="77" y="577" on="1"/>
        <pt x="223" y="577" on="1"/>
        <pt x="223" y="379" on="1"/>
        <pt x="325" y="432" on="1"/>
        <pt x="325" y="327" on="1"/>
        <pt x="223" y="275" on="1"/>
        <pt x="223" y="118" on="1"/>
        <pt x="459" y="118" on="1"/>
        <pt x="459" y="0" on="1"/>
        <pt x="77" y="0" on="1"/>
        <pt x="77" y="210" on="1"/>
        <pt x="14" y="176" on="1"/>
      </contour>
    </TTGlyph>
    <TTGlyph name="M" xMin="64" yMin="0" xMax="840" yMax="740">
      <contour>
        <pt x="64" y="740" on="1"/>
        <pt x="280" y="740" on="1"/>
        <pt x="416" y="353" on="1"/>
        <pt x="448" y="223" on="1"/>
        <pt x="455" y="223" on="1"/>
        <pt x="487" y="353" on="1"/>
        <pt x="623" y="740" on="1"/>
        <pt x="840" y="740" on="1"/>
        <pt x="840" y="0" on="1"/>
        <pt x="697" y="0" on="1"/>
        <pt x="697" y="552" on="1"/>
        <pt x="691" y="552" on="1"/>
        <pt x="646" y="404" on="1"/>
        <pt x="516" y="35" on="1"/>
        <pt x="386" y="35" on="1"/>
        <pt x="256" y="404" on="1"/>
        <pt x="210" y="552" on="1"/>
        <pt x="204" y="552" on="1"/>
        <pt x="204" y="0" on="1"/>
        <pt x="64" y="0" on="1"/>
      </contour>
    </TTGlyph>
    <TTGlyph name="M.sc" xMin="61" yMin="0" xMax="766" yMax="577">
      <contour>
        <pt x="61" y="577" on="1"/>
        <pt x="262" y="577" on="1"/>
        <pt x="380" y="291" on="1"/>
        <pt x="409" y="201" on="1"/>
        <pt x="417" y="201" on="1"/>
        <pt x="446" y="291" on="1"/>
        <pt x="564" y="577" on="1"/>
        <pt x="766" y="577" on="1"/>
        <pt x="766" y="0" on="1"/>
        <pt x="632" y="0" on="1"/>
        <pt x="632" y="412" on="1"/>
        <pt x="625" y="412" on="1"/>
        <pt x="577" y="284" on="1"/>
        <pt x="473" y="28" on="1"/>
        <pt x="353" y="28" on="1"/>
        <pt x="249" y="284" on="1"/>
        <pt x="201" y="412" on="1"/>
        <pt x="194" y="412" on="1"/>
        <pt x="194" y="0" on="1"/>
        <pt x="61" y="0" on="1"/>
      </contour>
    </TTGlyph>
    <TTGlyph name="N" xMin="64" yMin="0" xMax="657" yMax="740">
      <contour>
        <pt x="64" y="740" on="1"/>
        <pt x="192" y="740" on="1"/>
        <pt x="466" y="337" on="1"/>
        <pt x="512" y="255" on="1"/>
        <pt x="520" y="255" on="1"/>
        <pt x="520" y="740" on="1"/>
        <pt x="657" y="740" on="1"/>
        <pt x="657" y="0" on="1"/>
        <pt x="529" y="0" on="1"/>
        <pt x="256" y="402" on="1"/>
        <pt x="209" y="486" on="1"/>
        <pt x="200" y="486" on="1"/>
        <pt x="200" y="0" on="1"/>
        <pt x="64" y="0" on="1"/>
      </contour>
    </TTGlyph>
    <TTGlyph name="N.sc" xMin="61" yMin="0" xMax="594" yMax="577">
      <contour>
        <pt x="61" y="577" on="1"/>
        <pt x="179" y="577" on="1"/>
        <pt x="409" y="288" on="1"/>
        <pt x="456" y="224" on="1"/>
        <pt x="464" y="224" on="1"/>
        <pt x="464" y="577" on="1"/>
        <pt x="594" y="577" on="1"/>
        <pt x="594" y="0" on="1"/>
        <pt x="477" y="0" on="1"/>
        <pt x="248" y="288" on="1"/>
        <pt x="199" y="354" on="1"/>
        <pt x="191" y="355" on="1"/>
        <pt x="191" y="0" on="1"/>
        <pt x="61" y="0" on="1"/>
      </contour>
    </TTGlyph>
    <TTGlyph name="Nacute" xMin="64" yMin="0" xMax="657" yMax="970">
      <contour>
        <pt x="288" y="801" on="1"/>
        <pt x="356" y="970" on="1"/>
        <pt x="511" y="970" on="1"/>
        <pt x="398" y="793" on="1"/>
      </contour>
      <contour>
        <pt x="64" y="740" on="1"/>
        <pt x="192" y="740" on="1"/>
        <pt x="466" y="337" on="1"/>
        <pt x="512" y="255" on="1"/>
        <pt x="520" y="255" on="1"/>
        <pt x="520" y="740" on="1"/>
        <pt x="657" y="740" on="1"/>
        <pt x="657" y="0" on="1"/>
        <pt x="529" y="0" on="1"/>
        <pt x="256" y="402" on="1"/>
        <pt x="209" y="486" on="1"/>
        <pt x="200" y="486" on="1"/>
        <pt x="200" y="0" on="1"/>
        <pt x="64" y="0" on="1"/>
      </contour>
    </TTGlyph>
    <TTGlyph name="Nacute.sc" xMin="61" yMin="0" xMax="594" yMax="769">
      <contour>
        <pt x="61" y="577" on="1"/>
        <pt x="179" y="577" on="1"/>
        <pt x="409" y="288" on="1"/>
        <pt x="456" y="224" on="1"/>
        <pt x="464" y="224" on="1"/>
        <pt x="464" y="577" on="1"/>
        <pt x="594" y="577" on="1"/>
        <pt x="594" y="0" on="1"/>
        <pt x="477" y="0" on="1"/>
        <pt x="248" y="288" on="1"/>
        <pt x="199" y="354" on="1"/>
        <pt x="191" y="355" on="1"/>
        <pt x="191" y="0" on="1"/>
        <pt x="61" y="0" on="1"/>
      </contour>
      <contour>
        <pt x="260" y="627" on="1"/>
        <pt x="320" y="769" on="1"/>
        <pt x="466" y="769" on="1"/>
        <pt x="363" y="620" on="1"/>
      </contour>
    </TTGlyph>
    <TTGlyph name="Ncaron" xMin="64" yMin="0" xMax="657" yMax="970">
      <contour>
        <pt x="192" y="970" on="1"/>
        <pt x="362" y="897" on="1"/>
        <pt x="532" y="970" on="1"/>
        <pt x="532" y="866" on="1"/>
        <pt x="362" y="793" on="1"/>
        <pt x="192" y="866" on="1"/>
      </contour>
      <contour>
        <pt x="64" y="740" on="1"/>
        <pt x="192" y="740" on="1"/>
        <pt x="466" y="337" on="1"/>
        <pt x="512" y="255" on="1"/>
        <pt x="520" y="255" on="1"/>
        <pt x="520" y="740" on="1"/>
        <pt x="657" y="740" on="1"/>
        <pt x="657" y="0" on="1"/>
        <pt x="529" y="0" on="1"/>
        <pt x="256" y="402" on="1"/>
        <pt x="209" y="486" on="1"/>
        <pt x="200" y="486" on="1"/>
        <pt x="200" y="0" on="1"/>
        <pt x="64" y="0" on="1"/>
      </contour>
    </TTGlyph>
    <TTGlyph name="Ncaron.sc" xMin="61" yMin="0" xMax="594" yMax="769">
      <contour>
        <pt x="61" y="577" on="1"/>
        <pt x="179" y="577" on="1"/>
        <pt x="409" y="288" on="1"/>
        <pt x="456" y="224" on="1"/>
        <pt x="464" y="224" on="1"/>
        <pt x="464" y="577" on="1"/>
        <pt x="594" y="577" on="1"/>
        <pt x="594" y="0" on="1"/>
        <pt x="477" y="0" on="1"/>
        <pt x="248" y="288" on="1"/>
        <pt x="199" y="354" on="1"/>
        <pt x="191" y="355" on="1"/>
        <pt x="191" y="0" on="1"/>
        <pt x="61" y="0" on="1"/>
      </contour>
      <contour>
        <pt x="173" y="675" on="1"/>
        <pt x="173" y="769" on="1"/>
        <pt x="328" y="712" on="1"/>
        <pt x="485" y="769" on="1"/>
        <pt x="485" y="675" on="1"/>
        <pt x="329" y="617" on="1"/>
      </contour>
    </TTGlyph>
    <TTGlyph name="Ncommaaccent" xMin="64" yMin="-220" xMax="657" yMax="740">
      <contour>
        <pt x="297" y="-69" on="1"/>
        <pt x="452" y="-69" on="1"/>
        <pt x="368" y="-220" on="1"/>
        <pt x="253" y="-220" on="1"/>
      </contour>
      <contour>
        <pt x="64" y="740" on="1"/>
        <pt x="192" y="740" on="1"/>
        <pt x="466" y="337" on="1"/>
        <pt x="512" y="255" on="1"/>
        <pt x="520" y="255" on="1"/>
        <pt x="520" y="740" on="1"/>
        <pt x="657" y="740" on="1"/>
        <pt x="657" y="0" on="1"/>
        <pt x="529" y="0" on="1"/>
        <pt x="256" y="402" on="1"/>
        <pt x="209" y="486" on="1"/>
        <pt x="200" y="486" on="1"/>
        <pt x="200" y="0" on="1"/>
        <pt x="64" y="0" on="1"/>
      </contour>
    </TTGlyph>
    <TTGlyph name="Ncommaaccent.sc" xMin="61" yMin="-172" xMax="594" yMax="577">
      <contour>
        <pt x="61" y="577" on="1"/>
        <pt x="179" y="577" on="1"/>
        <pt x="409" y="288" on="1"/>
        <pt x="456" y="224" on="1"/>
        <pt x="464" y="224" on="1"/>
        <pt x="464" y="577" on="1"/>
        <pt x="594" y="577" on="1"/>
        <pt x="594" y="0" on="1"/>
        <pt x="477" y="0" on="1"/>
        <pt x="248" y="288" on="1"/>
        <pt x="199" y="354" on="1"/>
        <pt x="191" y="355" on="1"/>
        <pt x="191" y="0" on="1"/>
        <pt x="61" y="0" on="1"/>
      </contour>
      <contour>
        <pt x="266" y="-54" on="1"/>
        <pt x="412" y="-54" on="1"/>
        <pt x="336" y="-172" on="1"/>
        <pt x="228" y="-172" on="1"/>
      </contour>
    </TTGlyph>
    <TTGlyph name="Ndotaccent" xMin="64" yMin="0" xMax="657" yMax="964">
      <contour>
        <pt x="355" y="800" on="1"/>
        <pt x="310" y="800" on="0"/>
        <pt x="271" y="838" on="0"/>
        <pt x="271" y="882" on="1"/>
        <pt x="271" y="926" on="0"/>
        <pt x="310" y="964" on="0"/>
        <pt x="355" y="964" on="1"/>
        <pt x="399" y="964" on="0"/>
        <pt x="440" y="925" on="0"/>
        <pt x="440" y="882" on="1"/>
        <pt x="440" y="839" on="0"/>
        <pt x="399" y="800" on="0"/>
      </contour>
      <contour>
        <pt x="64" y="740" on="1"/>
        <pt x="192" y="740" on="1"/>
        <pt x="466" y="337" on="1"/>
        <pt x="512" y="255" on="1"/>
        <pt x="520" y="255" on="1"/>
        <pt x="520" y="740" on="1"/>
        <pt x="657" y="740" on="1"/>
        <pt x="657" y="0" on="1"/>
        <pt x="529" y="0" on="1"/>
        <pt x="256" y="402" on="1"/>
        <pt x="209" y="486" on="1"/>
        <pt x="200" y="486" on="1"/>
        <pt x="200" y="0" on="1"/>
        <pt x="64" y="0" on="1"/>
      </contour>
    </TTGlyph>
    <TTGlyph name="Ndotaccent.sc" xMin="61" yMin="0" xMax="594" yMax="773">
      <contour>
        <pt x="61" y="577" on="1"/>
        <pt x="179" y="577" on="1"/>
        <pt x="409" y="288" on="1"/>
        <pt x="456" y="224" on="1"/>
        <pt x="464" y="224" on="1"/>
        <pt x="464" y="577" on="1"/>
        <pt x="594" y="577" on="1"/>
        <pt x="594" y="0" on="1"/>
        <pt x="477" y="0" on="1"/>
        <pt x="248" y="288" on="1"/>
        <pt x="199" y="354" on="1"/>
        <pt x="191" y="355" on="1"/>
        <pt x="191" y="0" on="1"/>
        <pt x="61" y="0" on="1"/>
      </contour>
      <contour>
        <pt x="324" y="622" on="1"/>
        <pt x="282" y="622" on="0"/>
        <pt x="245" y="658" on="0"/>
        <pt x="245" y="699" on="1"/>
        <pt x="245" y="738" on="0"/>
        <pt x="282" y="773" on="0"/>
        <pt x="324" y="773" on="1"/>
        <pt x="366" y="773" on="0"/>
        <pt x="403" y="738" on="0"/>
        <pt x="403" y="699" on="1"/>
        <pt x="403" y="659" on="0"/>
        <pt x="366" y="622" on="0"/>
      </contour>
    </TTGlyph>
    <TTGlyph name="Ntilde" xMin="64" yMin="0" xMax="657" yMax="955">
      <contour>
        <pt x="163" y="844" on="1"/>
        <pt x="192" y="898" on="0"/>
        <pt x="266" y="955" on="0"/>
        <pt x="301" y="955" on="1"/>
        <pt x="322" y="955" on="0"/>
        <pt x="363" y="942" on="0"/>
        <pt x="402" y="927" on="0"/>
        <pt x="442" y="915" on="0"/>
        <pt x="463" y="915" on="1"/>
        <pt x="483" y="915" on="0"/>
        <pt x="520" y="933" on="0"/>
        <pt x="541" y="954" on="1"/>
        <pt x="565" y="929" on="1"/>
        <pt x="538" y="874" on="0"/>
        <pt x="464" y="818" on="0"/>
        <pt x="427" y="818" on="1"/>
        <pt x="406" y="818" on="0"/>
        <pt x="366" y="830" on="0"/>
        <pt x="326" y="845" on="0"/>
        <pt x="287" y="857" on="0"/>
        <pt x="266" y="857" on="1"/>
        <pt x="246" y="857" on="0"/>
        <pt x="207" y="840" on="0"/>
        <pt x="186" y="820" on="1"/>
      </contour>
      <contour>
        <pt x="64" y="740" on="1"/>
        <pt x="192" y="740" on="1"/>
        <pt x="466" y="337" on="1"/>
        <pt x="512" y="255" on="1"/>
        <pt x="520" y="255" on="1"/>
        <pt x="520" y="740" on="1"/>
        <pt x="657" y="740" on="1"/>
        <pt x="657" y="0" on="1"/>
        <pt x="529" y="0" on="1"/>
        <pt x="256" y="402" on="1"/>
        <pt x="209" y="486" on="1"/>
        <pt x="200" y="486" on="1"/>
        <pt x="200" y="0" on="1"/>
        <pt x="64" y="0" on="1"/>
      </contour>
    </TTGlyph>
    <TTGlyph name="Ntilde.sc" xMin="61" yMin="0" xMax="594" yMax="757">
      <contour>
        <pt x="147" y="658" on="1"/>
        <pt x="173" y="708" on="0"/>
        <pt x="242" y="757" on="0"/>
        <pt x="274" y="757" on="1"/>
        <pt x="293" y="757" on="0"/>
        <pt x="331" y="748" on="0"/>
        <pt x="367" y="737" on="0"/>
        <pt x="404" y="728" on="0"/>
        <pt x="423" y="728" on="1"/>
        <pt x="441" y="728" on="0"/>
        <pt x="475" y="740" on="0"/>
        <pt x="495" y="757" on="1"/>
        <pt x="516" y="737" on="1"/>
        <pt x="490" y="686" on="0"/>
        <pt x="422" y="637" on="0"/>
        <pt x="389" y="637" on="1"/>
        <pt x="370" y="637" on="0"/>
        <pt x="333" y="646" on="0"/>
        <pt x="296" y="658" on="0"/>
        <pt x="259" y="667" on="0"/>
        <pt x="240" y="667" on="1"/>
        <pt x="221" y="667" on="0"/>
        <pt x="187" y="655" on="0"/>
        <pt x="167" y="638" on="1"/>
      </contour>
      <contour>
        <pt x="61" y="577" on="1"/>
        <pt x="179" y="577" on="1"/>
        <pt x="409" y="288" on="1"/>
        <pt x="456" y="224" on="1"/>
        <pt x="464" y="224" on="1"/>
        <pt x="464" y="577" on="1"/>
        <pt x="594" y="577" on="1"/>
        <pt x="594" y="0" on="1"/>
        <pt x="477" y="0" on="1"/>
        <pt x="248" y="288" on="1"/>
        <pt x="199" y="354" on="1"/>
        <pt x="191" y="355" on="1"/>
        <pt x="191" y="0" on="1"/>
        <pt x="61" y="0" on="1"/>
      </contour>
    </TTGlyph>
    <TTGlyph name="O" xMin="35" yMin="-10" xMax="667" yMax="750">
      <contour>
        <pt x="351" y="-10" on="1"/>
        <pt x="35" y="-10" on="0"/>
        <pt x="35" y="369" on="1"/>
        <pt x="35" y="750" on="0"/>
        <pt x="351" y="750" on="1"/>
        <pt x="667" y="750" on="0"/>
        <pt x="667" y="369" on="1"/>
        <pt x="667" y="-10" on="0"/>
      </contour>
      <contour>
        <pt x="351" y="117" on="1"/>
        <pt x="394" y="117" on="0"/>
        <pt x="454" y="143" on="0"/>
        <pt x="492" y="203" on="0"/>
        <pt x="509" y="299" on="0"/>
        <pt x="509" y="369" on="1"/>
        <pt x="509" y="439" on="0"/>
        <pt x="492" y="536" on="0"/>
        <pt x="454" y="597" on="0"/>
        <pt x="394" y="624" on="0"/>
        <pt x="351" y="624" on="1"/>
        <pt x="308" y="624" on="0"/>
        <pt x="248" y="597" on="0"/>
        <pt x="210" y="536" on="0"/>
        <pt x="193" y="439" on="0"/>
        <pt x="193" y="369" on="1"/>
        <pt x="193" y="300" on="0"/>
        <pt x="210" y="204" on="0"/>
        <pt x="248" y="144" on="0"/>
        <pt x="308" y="117" on="0"/>
      </contour>
    </TTGlyph>
</ttFont>
